<svg width="3326" height="1809" viewBox="0 0 3326 1809" fill="none" xmlns="http://www.w3.org/2000/svg">
<path d="M2662.75 1110.81C2662.75 1110.81 2838.64 879.482 3291.94 1244.22C3313.24 1261.36 3313.52 1293.67 3292.4 1311.03C3178.99 1404.25 2847.84 1645.23 2665.31 1448.73L2662.75 1110.81Z" fill="#E81818"/>
<path d="M2662.12 1159.67C2662.12 1159.67 2786.94 995.506 3108.75 1255.43C3122.84 1266.81 3123.01 1288.26 3109.05 1299.79C3030.57 1364.62 2793.93 1538.54 2663.93 1398.59L2662.12 1159.67Z" fill="#E7A900"/>
<path d="M2649.73 1198.74C2649.73 1198.74 2733.96 1087.97 2951.1 1263.36C2960.61 1271.03 2960.72 1285.51 2951.3 1293.29C2898.35 1337.03 2738.67 1454.39 2650.96 1359.96L2649.73 1198.74Z" fill="#FFFD01"/>
<path d="M2842.03 1540.86C2835.7 1540.86 2829.46 1540.67 2823.3 1540.3C2755.55 1536.15 2698.18 1509.26 2652.78 1460.38C2649.87 1457.24 2648.24 1453.14 2648.21 1448.86L2645.64 1110.94C2645.61 1107.16 2646.84 1103.47 2649.13 1100.46C2651.1 1097.87 2698.65 1036.79 2805.12 1023.78C2866.28 1016.31 2934.6 1026.28 3008.18 1053.41C3098.69 1086.78 3197.77 1146.5 3302.66 1230.9C3316.88 1242.34 3325.09 1259.34 3325.18 1277.56C3325.28 1295.7 3317.29 1312.72 3303.26 1324.25C3246.63 1370.8 3133.37 1456.1 3011.06 1504.44C2949.81 1528.64 2893.05 1540.86 2842.03 1540.86ZM2682.36 1441.83C2755.41 1516.3 2861.72 1526.66 2998.49 1472.62C3116.44 1426 3226.46 1343.09 3281.54 1297.82C3287.57 1292.86 3291.01 1285.54 3290.97 1277.73C3290.93 1269.86 3287.37 1262.51 3281.21 1257.55C3051.61 1072.8 2897.83 1046.92 2809.27 1057.74C2732.28 1067.14 2691.53 1104.63 2679.9 1117.11L2682.36 1441.83Z" fill="#371A45"/>
<path d="M2683.4 803.138C2641.67 828.32 2444.65 945.042 2448.11 1069.46L2239.94 976.132C2240.59 970.062 2241.6 963.716 2243.01 957.222L2243 957.191C2263.36 863.903 2367.25 732.854 2674.93 792.74C2677.22 793.172 2679.51 793.636 2681.84 794.093C2686.22 794.966 2687.23 800.816 2683.4 803.138Z" fill="#6E6EC8"/>
<g opacity="0.5">
<path d="M2683.4 803.148C2677.89 806.486 2669.69 811.392 2659.56 817.746C2378.14 772.223 2279.25 894.273 2257.94 984.232L2239.92 976.149C2240.57 970.077 2241.61 963.722 2243.02 957.207H2242.98C2263.37 863.911 2367.24 732.854 2674.92 792.733C2677.21 793.175 2679.5 793.618 2681.84 794.1C2686.22 794.984 2687.22 800.815 2683.4 803.148Z" fill="white"/>
</g>
<g opacity="0.25">
<path d="M2678.4 793.138C2636.67 818.32 2439.65 935.042 2443.11 1059.46L2234.94 966.132C2235.59 960.062 2236.6 953.716 2238.01 947.222L2235.36 955.971C2250.53 948.958 2274.9 941.408 2298.18 943.815C2383.74 952.665 2428.64 950.981 2470.32 906.731C2522.57 851.256 2620.77 792.55 2669.93 782.74C2672.22 783.172 2674.51 783.636 2676.84 784.093C2681.22 784.966 2682.23 790.816 2678.4 793.138Z" fill="#371A45"/>
</g>
<path d="M2448.1 1085.56C2439.42 1085.56 2432.27 1078.65 2432.03 1069.92C2430.45 1013.06 2465.32 952.279 2535.66 889.26C2576.58 852.607 2621.09 822.851 2650.25 804.567C2513.19 781.3 2404.31 795.96 2334.18 847.4C2271.15 893.642 2258.46 954.014 2255.94 977.823C2255 986.657 2247.08 993.058 2238.24 992.121C2229.41 991.183 2223.01 983.262 2223.95 974.427C2226.92 946.367 2241.77 875.291 2315.15 821.459C2353.52 793.313 2401.66 774.842 2458.22 766.56C2523.07 757.066 2599.37 761.021 2685.02 778.314C2693.57 780.042 2700.07 786.722 2701.56 795.334C2703.05 803.94 2699.19 812.411 2691.72 816.915L2689.74 818.107C2667.67 831.398 2609.05 866.703 2557.13 913.221C2494.15 969.638 2462.88 1022.06 2464.18 1069.03C2464.43 1077.91 2457.43 1085.3 2448.55 1085.55C2448.4 1085.56 2448.25 1085.56 2448.1 1085.56Z" fill="#371A45"/>
<path d="M2432.92 1557.61L2542.21 1537.83C2591.65 1528.88 2631.15 1497.29 2645.05 1455.59C2686.44 1331.4 2687.38 1199.56 2647.78 1074.35C2634.48 1032.31 2595.44 999.739 2546.13 989.553L2437.15 967.039L2432.92 1557.61Z" fill="#22A7F0"/>
<g opacity="0.5">
<path d="M2647.78 1074.35C2634.48 1032.31 2595.44 999.738 2546.13 989.552L2437.15 967.038L2436.88 1004.89L2532.06 1024.55C2581.36 1034.74 2620.41 1067.31 2633.71 1109.35C2671.84 1229.91 2672.27 1356.59 2635.31 1476.7C2639.29 1470.02 2642.59 1462.97 2645.05 1455.58C2686.44 1331.4 2687.38 1199.56 2647.78 1074.35Z" fill="white"/>
</g>
<g opacity="0.3">
<path d="M2532.38 1497.82C2581.8 1488.89 2621.33 1457.28 2635.2 1415.58C2651.6 1366.37 2661.58 1315.96 2665.28 1265.22C2665.34 1265.18 2665.39 1265.13 2665.45 1265.09C2635.98 1285.72 2594.24 1300.41 2546.31 1305.93L2434.6 1318.8L2433.18 1515.78L2532.38 1497.82Z" fill="#371A45"/>
</g>
<path d="M2234.04 1564.46C2242.09 1658.22 2336.05 1821.45 2672.13 1760.58C2676.54 1759.78 2677.68 1753.95 2673.89 1751.56C2632.66 1725.55 2438.09 1599.31 2444.03 1474.98" fill="#D25658"/>
<path d="M2672.12 1760.6C2676.53 1759.77 2677.66 1753.95 2673.87 1751.56C2652.77 1738.23 2591.42 1698.61 2537.4 1646.4C2486.33 1597.1 2441.82 1536.51 2444 1476.31C2444.01 1475.88 2444.05 1475.41 2444.05 1474.98L2442.78 1475.52L2234.05 1564.44C2236.31 1590.76 2245.33 1622.56 2264.62 1653.33C2313.91 1732.2 2430.36 1804.36 2672.12 1760.6Z" fill="#6E6EC8"/>
<g opacity="0.35">
<path d="M2537.4 1646.4C2486.33 1597.1 2441.82 1536.51 2444 1476.31C2443.59 1476.06 2443.19 1475.77 2442.78 1475.52L2234.05 1564.44C2236.31 1590.76 2245.33 1622.56 2264.62 1653.33C2331.57 1676.82 2421.05 1681.12 2537.4 1646.4Z" fill="#371A45"/>
</g>
<path d="M2536.08 1789.9C2505.6 1789.9 2476.94 1787.62 2450.24 1783.06C2394.24 1773.5 2346.6 1753.94 2308.66 1724.91C2280.15 1703.1 2257.61 1676.42 2241.66 1645.6C2225.01 1613.42 2219.61 1584.46 2218.01 1565.83C2217.25 1556.98 2223.81 1549.19 2232.66 1548.43C2241.51 1547.67 2249.3 1554.23 2250.06 1563.08C2251.71 1582.29 2262.22 1648.89 2328.2 1699.36C2397.58 1752.43 2505.35 1769.57 2641.09 1749.4C2608.1 1727.26 2567.49 1697.2 2530.2 1661.81C2459.61 1594.82 2425.22 1531.7 2427.97 1474.21C2428.39 1465.34 2435.93 1458.5 2444.8 1458.91C2453.68 1459.34 2460.53 1466.88 2460.1 1475.75C2457.85 1522.79 2489.75 1579.06 2552.35 1638.47C2597.53 1681.36 2648.05 1716.24 2682.47 1737.95C2689.85 1742.61 2693.54 1751.15 2691.88 1759.73C2690.21 1768.31 2683.58 1774.85 2674.99 1776.41C2625.38 1785.4 2578.93 1789.9 2536.08 1789.9Z" fill="#371A45"/>
<path d="M2474.31 1077.92C2514.42 1237.5 2500.63 1404.14 2432.9 1557.61C2432.9 1557.61 2035.09 1841.23 1249.6 1784.92C327.469 1718.82 0.0351562 1231.82 0.0351562 1231.82C0.0351562 1231.82 284.515 824.62 1052.79 727.634C1117.48 719.434 1185.64 713.485 1257.3 710.155C1498.13 698.955 1702.1 718.695 1869.19 751.509C2247.71 825.816 2437.16 967.017 2437.16 967.017C2452.49 1003.42 2464.89 1040.46 2474.31 1077.92Z" fill="white"/>
<g opacity="0.3">
<path d="M1249.58 1784.91C2035.08 1841.23 2432.95 1557.62 2432.95 1557.62C2465.34 1484.17 2485.36 1407.68 2493.08 1330.38C2505.25 1208.35 2486.63 1084.31 2437.17 967.012C2437.17 967.012 2336.24 891.8 2134.55 822.247C2201.01 856.555 2326.2 921.138 2385.72 990.304C2455.11 1070.93 2445.46 1180.04 2290.2 1244.71C2289.49 1245 2238.84 1267.88 2239.3 1268.51C2348.24 1416.3 2197.73 1536.37 2027.95 1599.86C1720.52 1714.83 1362.8 1733.47 1061.62 1652.77C968.74 1627.88 771.592 1559.2 721.014 1436.93C613.919 1178.03 692.404 915.443 636.284 913.832C549.682 911.347 508.349 1601.25 444.301 1578.6C637.337 1674.82 900.956 1759.9 1249.58 1784.91Z" fill="#371A45"/>
</g>
<path d="M659.559 1668.55C591.325 1385.29 593.414 1093.25 665.69 811.694C320.95 921.81 127.667 1091.01 46.3734 1177.24C17.3104 1208.07 16.8684 1255.92 45.3224 1287.32C125.213 1375.46 316.083 1549.69 659.559 1668.55Z" fill="#6E6EC8"/>
<g opacity="0.5">
<path d="M76.3744 1212.24C154.313 1129.56 335.286 970.664 653.881 860.649C657.591 844.299 661.51 827.976 665.691 811.693C320.951 921.808 127.667 1091.01 46.3734 1177.24C17.3094 1208.07 16.8694 1255.92 45.3224 1287.32C51.3524 1293.97 58.0974 1301.17 65.4104 1308.74C47.5594 1278.28 51.2414 1238.9 76.3744 1212.24Z" fill="white"/>
</g>
<g opacity="0.3">
<path d="M659.587 1668.57C591.316 1385.29 593.397 1093.26 665.725 811.688C656.963 814.466 558.006 1094.34 578.823 1446.33C583.197 1520.29 417.62 1464.78 343.07 1426.96C202.652 1355.72 90.3465 1277.31 15.9075 1211.56C15.8005 1211.69 15.6934 1211.82 15.5874 1211.95C5.98945 1223.57 5.84745 1240.32 15.2395 1252.11C67.8135 1318.06 260.885 1530.59 659.587 1668.57Z" fill="#371A45"/>
</g>
<path d="M682.084 1693.36L654.3 1683.75C500.737 1630.61 361.46 1560.98 240.339 1476.8C137.746 1405.5 69.413 1338.32 30.155 1294.51C14.235 1276.75 5.55506 1254.55 5.71506 1232.01C5.87506 1209.44 14.888 1187.43 31.092 1170.03C70.98 1127.2 140.277 1061.71 243.891 992.964C366.214 911.805 506.481 845.661 660.797 796.37L688.504 787.52L681.272 815.693C609.176 1096.55 607.132 1382.22 675.198 1664.78L682.084 1693.36ZM643.082 836.031C318.391 945.205 135.642 1104.97 54.635 1191.95C32.323 1215.91 32.113 1248.5 54.112 1273.04C133.859 1362.02 314.249 1526.28 637.245 1643.57C607.473 1510.49 592.881 1374.66 593.849 1239.37C594.818 1103.99 611.373 968.449 643.082 836.031Z" fill="#371A45"/>
<path d="M1452.66 1808.38C1385.58 1808.38 1317.44 1805.91 1248.49 1800.97C1034.46 1785.62 834.544 1746.2 654.3 1683.81C648.818 1681.91 644.863 1677.25 643.777 1671.7C609.614 1529.66 592.816 1384.2 593.852 1239.37C594.89 1094.32 613.819 949.081 650.114 807.693C651.49 802.332 655.526 798.055 660.798 796.37C841.914 738.492 1042.36 704.084 1256.58 694.101C1436.94 685.692 1611.6 694.05 1775.72 718.941C1907.17 738.876 2032.2 769.403 2147.35 809.675C2344.11 878.493 2442.69 951.078 2446.79 954.134C2449.09 955.845 2450.88 958.138 2452 960.776C2493.08 1058.1 2513.53 1159.84 2512.79 1263.17C2512.05 1366.48 2490.14 1467.72 2447.67 1564.07C2446.5 1566.72 2444.65 1569 2442.29 1570.68C2438.15 1573.64 2338.52 1643.78 2140.78 1707.68C2025.07 1745.07 1899.61 1772.47 1767.9 1789.12C1666.37 1801.95 1560.9 1808.38 1452.66 1808.38ZM673.172 1656.27C848.587 1716.1 1042.86 1753.97 1250.79 1768.88C1653.93 1797.78 1951.9 1734.91 2130.88 1677.07C2303.63 1621.24 2400.83 1559.72 2420.07 1546.9C2459.55 1455.85 2479.92 1360.34 2480.62 1262.94C2481.32 1165.49 2462.31 1069.47 2424.11 977.472C2405.09 964.219 2307.8 899.688 2135.09 839.473C1957.22 777.457 1660.68 707.471 1258.08 726.237C1050.02 735.933 855.286 768.924 679.08 824.323C609.852 1099.58 607.86 1379.38 673.172 1656.27Z" fill="#371A45"/>
<path d="M2432.9 1573.7C2425.27 1573.7 2418.5 1568.25 2417.09 1560.47C2415.51 1551.73 2421.31 1543.36 2430.05 1541.78L2539.34 1522C2583.07 1514.08 2617.73 1486.69 2629.79 1450.5C2670.1 1329.55 2671.02 1201.16 2632.44 1079.21C2620.87 1042.65 2586.56 1014.33 2542.88 1005.31L2433.89 982.792C2425.19 980.995 2419.6 972.485 2421.39 963.785C2423.19 955.084 2431.7 949.487 2440.4 951.286L2549.38 973.799C2604.46 985.176 2648.04 1021.85 2663.11 1069.5C2703.75 1197.97 2702.78 1333.23 2660.31 1460.67C2644.53 1508.02 2600.37 1543.65 2545.07 1553.66L2435.78 1573.44C2434.82 1573.61 2433.85 1573.7 2432.9 1573.7Z" fill="#371A45"/>
<path d="M2443.56 1365.59C2560.71 1366.74 2676.99 1275.16 2676.99 1275.16C2676.99 1275.16 2676.56 1274.8 2675.75 1274.19C2663.08 1264.11 2555.46 1181.2 2445.46 1180.04C2339.89 1178.96 2254.3 1254.45 2239.3 1268.51C2237.76 1269.96 2236.97 1270.75 2236.97 1270.75C2236.97 1270.75 2327.21 1364.48 2443.56 1365.59Z" fill="#6E6EC8"/>
<g opacity="0.5">
<path d="M2676.98 1275.17C2676.98 1275.17 2672.04 1279.07 2663.18 1285.21C2612.1 1253.34 2529.56 1211.65 2445.85 1210.77C2363.06 1209.92 2290.88 1249.63 2247.31 1280.51C2240.59 1274.5 2236.97 1270.74 2236.97 1270.74C2236.97 1270.74 2237.76 1269.95 2239.29 1268.51C2254.3 1254.44 2339.89 1178.94 2445.45 1180.04C2555.45 1181.21 2663.1 1264.12 2675.76 1274.18C2676.54 1274.8 2676.98 1275.17 2676.98 1275.17Z" fill="white"/>
</g>
<g opacity="0.3">
<path d="M2443.56 1365.59C2560.71 1366.74 2676.99 1275.16 2676.99 1275.16C2676.99 1275.16 2676.56 1274.8 2675.75 1274.19L2239.3 1268.51C2237.76 1269.96 2236.97 1270.75 2236.97 1270.75C2236.97 1270.75 2327.21 1364.48 2443.56 1365.59Z" fill="#6B184E"/>
</g>
<path d="M2445.8 1381.7C2445 1381.7 2444.22 1381.7 2443.42 1381.69C2392.83 1381.2 2339.09 1363.78 2288.01 1331.33C2249.73 1307 2226.37 1282.91 2225.4 1281.9C2219.31 1275.58 2219.41 1265.56 2225.62 1259.36C2226.62 1258.37 2250.45 1234.76 2289.22 1211.2C2340.94 1179.78 2395.04 1163.46 2445.61 1163.97C2496.85 1164.5 2553.12 1181.31 2612.86 1213.95C2656.92 1238.02 2685.99 1261.73 2687.2 1262.73C2690.97 1265.82 2693.13 1270.45 2693.09 1275.33C2693.04 1280.2 2690.78 1284.79 2686.95 1287.8C2685.72 1288.77 2656.18 1311.9 2611.64 1335.08C2552.2 1366.02 2496.41 1381.7 2445.8 1381.7ZM2260.83 1270.99C2270.75 1279.66 2286.29 1292.18 2305.98 1304.62C2337.9 1324.8 2387.72 1348.97 2443.74 1349.52C2528.37 1350.38 2614.05 1299.12 2649.76 1274.9C2614.49 1249.98 2529.73 1197.01 2445.28 1196.14C2389.23 1195.54 2338.97 1218.73 2306.65 1238.26C2286.71 1250.31 2270.93 1262.52 2260.83 1270.99Z" fill="#371A45"/>
<path d="M719.715 887.833C719.669 885.255 719.701 882.64 719.774 880.026C734.389 350.433 1081.7 4.91478 1498.03 16.4048C1914.4 27.8948 2242.13 392.042 2227.52 921.635C2227.45 924.249 2227.3 926.861 2227.11 929.433L719.715 887.833Z" fill="#27BDFF"/>
<g opacity="0.5">
<path d="M1498.03 16.4039C1423.78 14.3549 1351.74 23.7198 1283.38 43.4008C1181.64 72.6888 1088.09 124.944 1007.63 196.948C839.006 347.86 727.904 585.44 719.774 880.024C719.702 882.639 719.669 885.253 719.715 887.832L750.797 888.69C764.903 600.74 878.387 369.404 1047.31 223.418C1085.82 231.035 1142.21 214.406 1193.87 176.633C1228.29 151.466 1254.39 121.447 1269.3 92.6749C1350.49 63.2729 1437.63 48.9078 1528.03 51.4028C1724.69 56.8298 1901.55 140.962 2031.93 284.008C1899.36 119.75 1710.23 22.2599 1498.03 16.4039Z" fill="white"/>
</g>
<g opacity="0.35">
<path d="M1872.56 181.954C1872.55 181.927 1872.53 181.898 1872.52 181.872C1886.52 212.178 1898.85 241.11 1909.63 268.592C1984.26 458.99 1846.82 665.787 1642.35 669.107C1325.54 674.252 874.623 712.548 719.793 880.037C718.018 881.957 719.671 885.265 719.711 887.839L2192.72 928.473C2198.3 599.109 2070.97 335.002 1872.56 181.954Z" fill="#371A45"/>
</g>
<path d="M2227.13 945.518C2226.73 945.518 2226.34 945.503 2225.94 945.475C2217.08 944.828 2210.42 937.12 2211.07 928.26C2211.26 925.614 2211.38 923.302 2211.44 921.193C2218.27 673.551 2147.46 447.623 2012.04 285.025C1881.02 127.711 1698.32 38.0228 1497.59 32.4838C1296.88 26.9438 1109.53 106.421 970.035 256.269C825.856 411.153 742.689 632.832 735.855 880.469C735.78 883.163 735.762 885.478 735.799 887.546C735.957 896.428 728.885 903.757 720.002 903.915C711.133 904.089 703.791 897 703.633 888.118C703.587 885.558 703.608 882.765 703.696 879.58C707.304 748.822 730.954 625.911 773.988 514.261C815.282 407.125 873.32 312.948 946.488 234.348C1092.37 77.6378 1288.4 -5.47525 1498.48 0.32375C1708.57 6.12175 1899.74 99.9178 2036.76 264.436C2105.48 346.951 2158.24 444.185 2193.56 553.437C2230.37 667.29 2247.21 791.319 2243.6 922.078C2243.53 924.678 2243.38 927.468 2243.15 930.604C2242.53 939.065 2235.48 945.517 2227.13 945.518Z" fill="#371A45"/>
<path d="M2227.11 929.431C2226.77 934.458 2226.09 939.477 2225.25 944.334C2197.01 1031.09 1868.23 1091.25 1468.68 1080.22C1069.16 1069.2 744.199 991.001 720.746 902.815C720.218 897.92 719.81 892.872 719.715 887.832C731.351 797.256 1067.34 733.397 1477.93 744.728C1888.57 756.061 2220.48 838.352 2227.11 929.431Z" fill="#371A45"/>
<path d="M1562.28 1097.6C1531.26 1097.6 1499.87 1097.16 1468.25 1096.29C1274.54 1090.94 1090.47 1069.57 949.957 1036.09C880.911 1019.65 825.128 1000.97 784.157 980.589C738.114 957.683 712.292 933.597 705.215 906.956L704.911 905.813L704.778 904.638C704.122 898.852 703.741 893.292 703.647 888.112C703.484 879.23 710.553 871.897 719.436 871.735C728.318 871.552 735.65 878.641 735.813 887.524C735.882 891.317 736.148 895.417 736.604 899.727C741.606 915.943 763.507 934.384 798.487 951.786C837.272 971.081 890.742 988.917 957.412 1004.8C1095.84 1037.77 1277.58 1058.85 1469.14 1064.13C1660.7 1069.42 1843.32 1058.4 1983.35 1033.11C2050.8 1020.93 2105.17 1006.07 2144.96 988.944C2180.85 973.497 2203.73 956.293 2209.62 940.377C2210.31 936.104 2210.8 932.025 2211.08 928.239C2211.73 919.379 2219.45 912.733 2228.31 913.376C2237.17 914.028 2243.82 921.739 2243.17 930.598C2242.79 935.771 2242.1 941.302 2241.13 947.039L2240.93 948.204L2240.56 949.328C2232.03 975.538 2204.91 998.163 2157.68 1018.49C2115.65 1036.59 2058.92 1052.16 1989.07 1064.77C1870.13 1086.25 1721.21 1097.6 1562.28 1097.6Z" fill="#181558"/>
<path d="M1562.47 1097.6C1548.28 1097.6 1534.04 1097.51 1519.75 1097.33C1502.8 1097.12 1485.47 1096.78 1468.25 1096.3C1377.5 1093.8 1288.76 1087.8 1204.51 1078.47C1068.89 1063.48 950.996 1040.54 863.569 1012.12C768.868 981.346 715.594 945.958 705.225 906.944L704.932 905.84L704.798 904.706C704.121 899 703.73 893.414 703.635 888.103C703.476 879.221 710.548 871.891 719.43 871.732C728.308 871.547 735.641 878.645 735.801 887.527C735.87 891.391 736.14 895.474 736.604 899.681C751.091 947.086 904.085 1012.9 1208.04 1046.49C1291.42 1055.72 1379.27 1061.66 1469.14 1064.14C1486.2 1064.61 1503.36 1064.96 1520.15 1065.16C1588.39 1066.03 1655.59 1064.8 1719.9 1061.53C1738.98 1060.53 1757.52 1059.4 1775 1058.15C1897.88 1049.36 2004.1 1032.96 2082.18 1010.72C2183.4 981.904 2205.06 952.557 2209.63 940.318C2210.28 936.377 2210.78 932.285 2211.11 928.137C2211.81 919.282 2219.55 912.671 2228.42 913.379C2237.27 914.084 2243.88 921.835 2243.18 930.691C2242.73 936.274 2242.04 941.795 2241.11 947.101L2240.91 948.225L2240.56 949.31C2234.26 968.641 2217.12 986.568 2189.62 1002.59C2165.14 1016.86 2131.95 1030 2090.99 1041.67C2010.82 1064.49 1902.34 1081.29 1777.29 1090.24C1759.61 1091.5 1740.86 1092.65 1721.55 1093.66C1670.03 1096.28 1616.69 1097.6 1562.47 1097.6Z" fill="#371A45"/>
<path d="M1253.17 973.698C1252.31 987.192 1247.8 996.72 1241.57 1007.32C1229.68 1028.3 1214.06 1046.02 1195.69 1060.96C1139.85 1054.59 1082.13 1046.17 1029.05 1036.14C1162.08 896.581 1204.12 828.348 1246.42 746.949C1251.28 819.265 1258.47 902.634 1253.17 973.698Z" fill="white"/>
<g opacity="0.35">
<path d="M1253.17 973.698C1252.31 987.192 1247.8 996.72 1241.57 1007.32C1236.44 1016.37 1230.9 1024.49 1224.63 1032.03L1224.63 1032.07C1215.91 1042.91 1206.26 1052.37 1195.69 1060.96C1171.08 1058.16 1147.07 1055.07 1123.81 1051.72C1207.49 980.807 1217.25 846.843 1246.42 747.075C1246.46 747.034 1246.46 746.993 1246.46 746.993C1246.46 746.993 1246.56 748.08 1246.71 750.169C1251.41 821.434 1258.43 903.743 1253.17 973.698Z" fill="#371A45"/>
</g>
<path d="M1195.69 1077.05C1195.08 1077.05 1194.47 1077.01 1193.86 1076.94C1135.21 1070.25 1077.19 1061.61 1026.07 1051.95C1020.28 1050.85 1015.55 1046.68 1013.74 1041.07C1011.94 1035.46 1013.35 1029.31 1017.41 1025.04C1152.86 882.941 1191.85 817.073 1232.15 739.533C1235.48 733.133 1242.65 729.731 1249.71 731.205C1256.77 732.681 1261.99 738.675 1262.47 745.871C1263.04 754.391 1263.65 763.064 1264.26 771.852C1268.81 837.074 1273.97 910.997 1269.22 974.815C1268.06 992.614 1261.54 1005.08 1255.5 1015.36C1243.12 1037.17 1226.41 1056.71 1205.83 1073.44C1202.95 1075.78 1199.37 1077.05 1195.69 1077.05ZM1061.14 1025.59C1101.85 1032.63 1145.98 1038.97 1190.64 1044.19C1205.8 1030.97 1218.21 1015.92 1227.58 999.387C1227.62 999.312 1227.66 999.238 1227.71 999.164C1233.32 989.61 1236.49 982.558 1237.12 972.669C1237.12 972.613 1237.13 972.557 1237.13 972.502C1241.04 920.116 1237.94 859.602 1234.17 803.172C1200.92 860.816 1155.94 924.132 1061.14 1025.59Z" fill="#371A45"/>
<path d="M1775.54 747.292L1766.51 1074.59C1675.13 1080.69 1584.13 1082.44 1491.51 1080.46C1491.51 1080.46 1491.51 1080.46 1491.46 1080.46C1491.29 1080.58 1491.12 1080.7 1490.91 1080.82C1490.91 1080.82 1436.39 1079.32 1436.38 1079.32C1436.67 1079.2 1436.93 1079.08 1437.22 1078.92C1372.63 1076.5 1310.5 1072.4 1247.24 1066.43L1256.44 732.966C1257.31 693.693 1290.99 661.207 1330.93 662.476C1349.22 666.476 1743.1 663.733 1743.2 685.027C1743.24 685.028 1743.24 685.028 1743.24 685.028C1763.32 698.397 1776.19 721.67 1775.54 747.292Z" fill="white"/>
<g opacity="0.35">
<path d="M1247.51 1056.6C1252.51 1061.15 1258.16 1064.98 1264.29 1067.98C1258.53 1067.49 1252.86 1066.95 1247.19 1066.43L1247.47 1056.55L1247.51 1056.6Z" fill="#371A45"/>
</g>
<g opacity="0.35">
<path d="M1775.54 747.292L1766.51 1074.59C1746.34 1075.9 1725.31 1077.15 1704.75 1078.05C1710.47 1074.75 1715.56 1070.3 1720.09 1064.59C1720.13 1064.59 1720.13 1064.55 1720.14 1064.51C1763.22 1001.36 1759.62 845.938 1775.53 746.291C1775.56 746.626 1775.55 746.959 1775.54 747.292Z" fill="#371A45"/>
</g>
<path d="M1563.8 1093.31C1541 1093.31 1517.95 1093.07 1494.59 1092.6L1494.07 1092.89H1490.91C1490.54 1092.89 1436.59 1091.39 1436.04 1091.38L1377.37 1089.75L1380.71 1088.42C1335.64 1086 1291.19 1082.7 1246.1 1078.44L1234.87 1077.38L1244.38 732.633C1244.88 710.323 1254.28 689.349 1270.86 673.637C1287.42 657.951 1308.91 649.703 1331.31 650.417L1332.42 650.452L1333.4 650.666C1339.36 651.635 1381.16 652.288 1425.41 652.979C1488.05 653.957 1566.01 655.175 1630.44 658.063C1666.19 659.666 1692.89 661.561 1712.06 663.856C1731.33 666.163 1747.03 668.772 1752.84 677.019C1775.06 693.24 1788.3 719.954 1787.61 747.596L1787.6 747.625L1778.27 1085.89L1767.32 1086.62C1700.29 1091.1 1633.15 1093.31 1563.8 1093.31ZM1487.7 1068.34L1491.75 1068.4C1582.82 1070.35 1668.98 1068.67 1754.76 1063.26L1763.48 746.959C1763.97 727.46 1754.76 708.612 1739.26 696.982L1731.23 696.751L1731.19 691.464C1722.41 689.092 1695.98 684.836 1616.72 681.629C1555.08 679.135 1482.97 678.009 1425.03 677.104C1362.74 676.131 1337.77 675.646 1329.81 674.514C1314.12 674.212 1299.12 680.102 1287.46 691.152C1275.59 702.401 1268.85 717.346 1268.5 733.233L1259.61 1055.46C1318.92 1060.86 1377.3 1064.6 1437.68 1066.87L1479.65 1068.44C1482.65 1068.53 1485.27 1068.6 1487.26 1068.65L1487.7 1068.34ZM1731.13 685.085C1731.13 685.111 1731.13 685.137 1731.13 685.162V685.085Z" fill="#371A45"/>
<path d="M2036.45 543.607C2032.75 631.642 1976.33 708.722 1910.44 767.609L1910.4 767.608C1848.36 822.812 1774.27 864.716 1697.5 896.528C1697.5 896.528 1697.5 896.57 1697.54 896.612C1697.54 896.654 1697.58 896.822 1697.7 897.033C1706.91 928.226 1713.56 961.064 1717.25 993.676L1717.29 993.719C1720.47 1021.36 1721.6 1049.57 1719.36 1077.37C1643.88 1081.15 1568.26 1082.11 1491.5 1080.46C1491.5 1080.46 1491.5 1080.46 1491.46 1080.46C1491.29 1080.58 1491.12 1080.7 1490.91 1080.82C1490.91 1080.82 1436.39 1079.32 1436.38 1079.32C1436.67 1079.2 1436.92 1079.08 1437.22 1078.92C1357.82 1075.86 1281.2 1070.58 1203.13 1061.79C1192.34 968.747 1204.4 869.586 1235.43 781.169C1235.47 781.128 1235.43 781.127 1235.43 781.127C1237.84 774.772 1240.12 768.59 1242.82 762.527C1260.74 722.321 1290.82 663.874 1343.05 672.106C1430.78 691.694 1520.95 711.958 1608.12 734.667C1615.84 737.261 1623 739.004 1630.85 735.795L1630.85 735.753C1635.18 734.712 1639.31 733.499 1643.66 732.271C1678.82 721.654 1704.42 691.944 1734.86 670.935C1734.9 670.936 1748.66 657.996 1748.66 657.996C1790.4 620.33 1806.03 601.845 1829.24 560.697C1822.46 531.989 1825.72 521.065 1828.97 491.185C1832.64 471.436 1854.9 460.861 1869.75 468.336C1881.42 474.139 1883.64 499.244 1888.72 513.93C1888.72 513.93 1889.04 512.855 1889.72 510.914C1924.34 400.995 2038.71 438.907 2036.45 543.607Z" fill="white"/>
<g opacity="0.35">
<path d="M1720.38 1058.76C1720.18 1064.99 1719.9 1071.17 1719.36 1077.37C1690.92 1078.77 1662.98 1079.82 1633.76 1080.47C1594.87 1052.92 1535.54 1071.89 1484.84 1054.51C1474.27 1042.54 1467.7 995.544 1502.54 981.372C1561.46 998.828 1649.06 1009.02 1708.71 963.254C1716.34 968.254 1715.77 984.723 1717.25 993.676L1717.29 993.719C1719.79 1015.19 1720.96 1037.09 1720.38 1058.76Z" fill="#371A45"/>
</g>
<g opacity="0.35">
<path d="M1654.8 936.922C1658.05 952.401 1661.14 969.235 1663.62 986.67C1679.55 981.578 1694.93 974.061 1708.71 963.255C1708.71 963.255 1711.09 965.453 1713.94 969.425C1710.06 944.886 1704.64 920.186 1697.54 896.6C1697.51 896.568 1697.51 896.538 1697.51 896.538C1774.66 864.52 1848.13 822.909 1910.42 767.62L1910.45 767.621C1975.26 712.142 2037.18 621.632 2036.46 540.571C1913.87 839.283 1623.27 798.03 1654.8 936.922Z" fill="#371A45"/>
</g>
<path d="M1719.34 1089.44C1719.01 1089.44 1718.69 1089.42 1718.36 1089.4C1711.72 1088.86 1706.76 1083.05 1707.3 1076.41C1710.36 1038.19 1707.36 996.645 1698.14 949.416C1697.32 945.718 1696.42 942.106 1695.55 938.612C1692.1 924.792 1688.84 911.739 1692.1 899.709C1697.03 881.492 1714.12 874.273 1726.99 870.468C1879.43 798.738 1970.13 714.456 2012.42 605.276L2012.73 604.532C2034.62 557.625 2024.21 508.509 2004.18 480.641C1991.04 462.353 1974.21 452.91 1958 454.735C1936.69 457.135 1916.41 478.711 1900.88 515.498C1898.83 520.529 1893.9 523.8 1888.42 523.645C1883 523.503 1878.24 520.075 1876.38 515.047C1873.97 508.849 1872.99 502.466 1872.13 496.827C1870.47 485.881 1869.38 481.528 1864.56 479.226L1864.33 479.113C1860.61 477.24 1857.39 476.946 1854.19 478.189C1848.78 480.292 1843.57 486.753 1840.25 495.473C1836.65 504.935 1834.5 530.564 1840.98 557.918L1842.07 562.513L1839.75 566.626C1816.44 607.952 1786.64 639.412 1743.06 679.787L1742.42 680.376L1741.71 680.868C1735.3 685.29 1728.93 689.839 1722.2 694.656C1686.98 719.833 1650.56 745.868 1608.84 752.631C1602.27 753.696 1596.07 749.23 1595 742.653C1593.93 736.076 1598.4 729.88 1604.98 728.814C1641.13 722.955 1675.21 698.59 1708.17 675.028C1714.45 670.535 1720.94 665.894 1727.29 661.502C1767.34 624.372 1795.1 595.242 1816.45 558.743C1810.42 529.568 1812.37 500.907 1817.7 486.9C1823.57 471.45 1833.43 460.369 1845.45 455.698C1855.03 451.979 1865.27 452.604 1875.07 457.505C1885.21 462.389 1890.09 470.196 1892.76 478.189C1914.14 443.084 1937.79 432.73 1955.3 430.758C1980.43 427.93 2005.39 440.978 2023.77 466.56C2037.11 485.119 2045.84 509.057 2048.36 533.963C2051.13 561.401 2046.44 589.193 2034.77 614.363C2010.69 676.363 1972.72 729.819 1918.71 777.766C1871.5 819.676 1811.86 857.274 1736.4 892.709L1735.53 893.117L1734.61 893.382C1717.48 898.313 1715.96 903.911 1715.39 906.019C1713.78 911.993 1716.18 921.625 1718.96 932.778C1719.88 936.465 1720.83 940.277 1721.73 944.323L1721.8 944.635C1731.47 994.117 1734.59 1037.85 1731.35 1078.34C1730.84 1084.65 1725.56 1089.44 1719.34 1089.44Z" fill="#371A45"/>
<path d="M1552.69 957.407C1532.76 997.275 1510.83 1040.99 1490.91 1080.82C1490.91 1080.82 1436.39 1079.32 1436.38 1079.32C1436.67 1079.2 1436.93 1079.08 1437.22 1078.92C1358.77 1075.91 1283.08 1070.68 1205.95 1062.12C1217.97 1034.7 1232.29 1001.65 1244.28 974.203C1346.21 968.628 1450.83 962.992 1552.69 957.407Z" fill="white"/>
<path d="M1199.66 1073.47C1193.5 1073.47 1188.24 1068.77 1187.67 1062.51C1180.02 979.554 1191.93 877.784 1218.85 792.809L1218.8 792.808L1220.06 789.04C1221.23 785.448 1222.42 781.889 1223.63 778.362L1223.99 777.299C1227.33 767.312 1231 757.223 1234.89 747.284L1235.47 745.774C1240.66 732.499 1246.46 718.935 1252.7 705.457C1255.5 699.411 1262.67 696.778 1268.71 699.577C1274.76 702.376 1277.39 709.547 1274.59 715.593C1268.87 727.961 1263.53 740.395 1258.72 752.587V752.599L1257.93 754.641C1254.5 763.31 1251.26 772.107 1248.26 780.849L1249.61 784.361L1245.87 787.896C1217.47 871.059 1204.07 977.61 1211.69 1060.29C1212.3 1066.93 1207.42 1072.8 1200.78 1073.41C1200.41 1073.45 1200.04 1073.47 1199.66 1073.47Z" fill="#371A45"/>
<g opacity="0.35">
<path d="M1221.57 825.381C1296.12 868.07 1367.1 882.676 1474.81 862.566C1585.08 834.043 1645.44 789.498 1694.95 712.633C1663.79 727.351 1636.56 734.708 1620.92 738.141C1534.76 714.344 1339.92 671.389 1339.92 671.389C1288.14 664.613 1245.82 734.445 1221.57 825.381Z" fill="#371A45"/>
</g>
<path d="M1199.15 892.474C1176.76 906.836 1173.89 970.027 1188.49 981.315C1188.49 981.315 1231.24 1022.18 1336.04 1004.99C1336.04 1004.99 1358.32 952.45 1328.93 920.467C1328.93 920.467 1247.57 938.872 1199.15 892.474Z" fill="white"/>
<g opacity="0.35">
<path d="M1188.47 981.314C1188.47 981.314 1231.26 1022.17 1336.05 1005.01C1336.05 1005.01 1340.58 994.319 1342.87 979.642C1217.25 991.728 1180 961.97 1190.67 902.699C1172.12 923.191 1180.74 979.928 1188.47 981.314Z" fill="#371A45"/>
</g>
<path d="M1287.18 1019.17C1257.32 1019.17 1234.95 1014.22 1219.77 1009.08C1198.96 1002.02 1186.92 993.262 1182.39 989.209L1182.37 989.226C1169.46 979.236 1169.14 953.524 1169.61 942.934C1170.56 921.351 1177.39 894.552 1193.74 884.059L1200.37 879.804L1206.06 885.255C1249.94 927.298 1325.97 910.882 1326.74 910.713L1332.37 909.451L1336.29 913.703C1369.65 950.01 1346.26 1006.51 1345.25 1008.9L1343.1 1013.97L1337.66 1014.86C1318.93 1017.93 1302.12 1019.17 1287.18 1019.17ZM1199.84 977.446C1204.79 980.825 1213.92 986.135 1227.69 990.634C1247.36 997.062 1280.6 1003.05 1328.66 996.023C1332.58 983.964 1340.32 952.978 1324.95 931.399C1305.25 934.682 1243.6 941.329 1199.54 906.094C1194.21 913.93 1190.37 927.853 1189.61 943.277C1188.74 961.094 1192.44 971.692 1194.61 973.405L1199.84 977.446Z" fill="#371A45"/>
<path d="M1921.88 764.683C1921.4 764.683 1920.91 764.637 1920.42 764.541C1884.54 757.495 1850.27 730.82 1818.56 685.258C1795.33 651.884 1782.48 620.965 1781.94 619.665C1780.36 615.835 1782.19 611.451 1786.02 609.873C1789.85 608.296 1794.23 610.119 1795.81 613.947C1796.31 615.153 1846.5 734.738 1923.31 749.823C1927.38 750.621 1930.02 754.563 1929.23 758.628C1928.52 762.203 1925.39 764.683 1921.88 764.683Z" fill="#371A45"/>
<path d="M1740.7 551.488C1737.04 552.084 1733.59 549.598 1732.99 545.936L1701.9 354.911C1701.3 351.248 1703.79 347.796 1707.45 347.2C1745.88 340.946 1782.1 367.025 1788.35 405.45C1799.06 462.207 1817.81 535.268 1740.7 551.488Z" fill="#6E6EC8"/>
<path d="M1739.62 554.466C1734.99 554.466 1730.91 551.109 1730.14 546.4L1699.05 355.375C1698.63 352.842 1699.23 350.3 1700.73 348.217C1702.23 346.134 1704.45 344.76 1706.99 344.348C1726.33 341.199 1745.75 345.773 1761.65 357.225C1777.56 368.678 1788.05 385.64 1791.2 404.986C1791.77 407.993 1792.38 411.12 1792.99 414.283C1803.68 469.577 1817 538.392 1741.3 554.316L1741.17 554.34C1740.65 554.425 1740.13 554.466 1739.62 554.466ZM1718.92 349.158C1715.27 349.158 1711.59 349.454 1707.92 350.052C1705.83 350.391 1704.41 352.363 1704.75 354.447L1735.84 545.472C1736.01 546.482 1736.56 547.367 1737.39 547.964C1738.2 548.55 1739.19 548.791 1740.18 548.645C1810.23 533.861 1798.06 470.917 1787.31 415.381C1786.7 412.209 1786.09 409.074 1785.51 405.986C1782.6 388.092 1772.93 372.466 1758.28 361.915C1746.65 353.54 1732.98 349.158 1718.92 349.158Z" fill="#371A45"/>
<g opacity="0.35">
<path d="M1793.98 440.044C1807.8 487.623 1796.3 541.804 1740.7 551.502C1737.04 552.102 1733.59 549.597 1732.99 545.936L1724.71 495.157C1754.58 506.235 1790.62 468.167 1793.98 440.044Z" fill="#371A45"/>
</g>
<path d="M1739.61 563.641C1730.57 563.641 1722.58 557.079 1721.09 547.874L1689.99 356.849C1688.33 346.627 1695.29 336.956 1705.51 335.292C1727.28 331.749 1749.12 336.895 1767.02 349.78C1784.87 362.634 1796.66 381.656 1800.23 403.354C1800.8 406.374 1801.4 409.44 1802 412.541C1807.45 440.72 1813.62 472.659 1808.64 500.233C1802.5 534.233 1780.48 555.45 1743.19 563.295L1742.64 563.397C1741.63 563.561 1740.61 563.641 1739.61 563.641ZM1714.71 358.485L1743.98 538.311C1768.1 531.84 1780.81 518.591 1784.9 495.942C1789.08 472.809 1783.36 443.224 1778.31 417.123C1777.69 413.937 1777.08 410.788 1776.5 407.687L1776.44 407.387C1773.94 391.984 1765.58 378.479 1752.92 369.36C1741.71 361.29 1728.32 357.509 1714.71 358.485Z" fill="#371A45"/>
<path d="M1076.92 449.828C1080.59 449.232 1084.04 451.718 1084.63 455.38L1115.73 646.405C1116.32 650.068 1113.84 653.52 1110.17 654.116C1071.75 660.37 1035.53 634.291 1029.27 595.866C1018.56 539.109 999.82 466.048 1076.92 449.828Z" fill="#6E6EC8"/>
<path d="M1098.69 657.939C1083.44 657.939 1068.6 653.183 1055.97 644.091C1040.07 632.638 1029.57 615.676 1026.42 596.331C1025.86 593.324 1025.25 590.197 1024.64 587.033C1013.94 531.739 1000.63 462.924 1076.33 447L1076.46 446.976C1081.69 446.123 1086.64 449.687 1087.49 454.916L1118.58 645.941C1118.99 648.474 1118.39 651.017 1116.89 653.1C1115.39 655.183 1113.17 656.557 1110.64 656.969C1106.65 657.618 1102.66 657.939 1098.69 657.939ZM1077.45 452.671C1007.4 467.455 1019.57 530.399 1030.31 585.935C1030.93 589.107 1031.53 592.242 1032.12 595.33C1035.03 613.224 1044.7 628.85 1059.35 639.401C1074 649.952 1091.89 654.165 1109.71 651.264C1110.72 651.1 1111.61 650.552 1112.2 649.722C1112.8 648.892 1113.04 647.879 1112.87 646.869L1081.78 455.844C1081.45 453.779 1079.5 452.365 1077.45 452.671Z" fill="#371A45"/>
<g opacity="0.35">
<path d="M1107.12 593.408L1115.74 646.403C1116.34 650.064 1113.83 653.518 1110.17 654.118C1057.75 663.259 1025.71 615.774 1024.82 568.429C1039.93 592.419 1081.45 611.353 1107.12 593.408Z" fill="#371A45"/>
</g>
<path d="M1098.67 667.115C1081.51 667.115 1064.82 661.764 1050.61 651.536C1032.76 638.682 1020.97 619.66 1017.39 597.962C1016.82 594.942 1016.23 591.877 1015.63 588.775C1010.18 560.596 1004 528.657 1008.98 501.083C1015.13 467.083 1037.15 445.866 1074.44 438.021L1074.99 437.919C1085.21 436.252 1094.88 443.218 1096.54 453.441L1127.63 644.466C1128.44 649.418 1127.27 654.388 1124.34 658.459C1121.41 662.531 1117.06 665.217 1112.11 666.023C1107.63 666.754 1103.13 667.115 1098.67 667.115ZM1073.65 463.004C1049.53 469.475 1036.82 482.725 1032.73 505.374C1028.55 528.507 1034.27 558.092 1039.32 584.193C1039.94 587.379 1040.55 590.528 1041.13 593.629L1041.18 593.929C1043.69 609.332 1052.05 622.837 1064.71 631.956C1075.92 640.026 1089.32 643.805 1102.92 642.831L1073.65 463.004Z" fill="#371A45"/>
<path d="M1737.31 470.89C1769.06 903.319 1126.82 961.443 1080.39 530.398C1048.65 97.9826 1690.89 39.8587 1737.31 470.89Z" fill="#6E6EC8"/>
<path d="M1404.81 828.852C1374.74 828.852 1345.1 825.161 1316.3 817.812C1275.37 807.364 1238.05 789.962 1205.38 766.09C1132.59 712.894 1088.38 631.5 1077.52 530.708C1070.09 429.498 1098.96 341.479 1161.02 276.072C1188.87 246.719 1222.46 222.896 1260.85 205.266C1297.87 188.265 1337.72 177.737 1379.28 173.974C1420.84 170.211 1461.93 173.412 1501.4 183.486C1542.34 193.933 1579.66 211.334 1612.33 235.206C1685.12 288.4 1729.33 369.792 1740.19 470.58L1740.2 470.678C1747.62 571.794 1718.74 659.815 1656.69 725.225C1628.84 754.579 1595.25 778.402 1556.86 796.033C1519.83 813.034 1479.99 823.563 1438.42 827.325C1427.18 828.344 1415.96 828.852 1404.81 828.852ZM1412.21 178.269C1401.33 178.269 1390.52 178.759 1379.8 179.73C1225.62 193.689 1067.06 309.313 1083.27 530.187C1106.98 750.269 1283.72 835.528 1437.9 821.569C1592.08 807.611 1750.63 692.005 1734.43 471.15C1712.35 266.313 1557.79 178.269 1412.21 178.269Z" fill="#371A45"/>
<g opacity="0.35">
<path d="M1730.05 425.708C1823.67 890.634 1113.98 987.584 1079.34 514.803C1165.11 897.325 1749.68 819.075 1730.05 425.708Z" fill="#371A45"/>
</g>
<path d="M1404.81 838.027C1373.98 838.027 1343.57 834.24 1314.03 826.702C1271.96 815.964 1233.58 798.063 1199.97 773.497C1125.03 718.735 1079.54 635.12 1068.4 531.69L1068.36 531.281C1060.74 427.522 1090.48 337.089 1154.36 269.756C1183.02 239.551 1217.56 215.048 1257.02 196.927C1295 179.489 1335.85 168.692 1378.45 164.835C1421.06 160.978 1463.19 164.262 1503.67 174.595C1545.75 185.333 1584.12 203.232 1617.74 227.798C1692.67 282.558 1738.17 366.171 1749.31 469.597L1749.35 470.006C1756.96 573.768 1727.22 664.204 1663.34 731.539C1634.69 761.745 1600.15 786.249 1560.69 804.37C1522.71 821.808 1481.86 832.605 1439.25 836.462C1427.73 837.506 1416.24 838.027 1404.81 838.027ZM1092.41 529.311C1115.54 743.184 1287.27 825.994 1437.08 812.432C1586.89 798.869 1740.95 686.551 1725.3 471.978C1702.16 258.112 1530.43 175.304 1380.63 188.866C1230.82 202.43 1076.76 314.745 1092.41 529.311Z" fill="#371A45"/>
<path d="M1737.03 479.422C1782.8 775.177 1339.39 875.453 1159.94 715.511C814.517 289.504 1686.76 78.9278 1737.03 479.422Z" fill="#371A45"/>
<g opacity="0.5">
<path d="M1586.48 474.445C1581.2 550.669 1664.86 556.849 1670.83 480.678C1676.11 404.457 1592.46 398.277 1586.48 474.445Z" fill="white"/>
</g>
<g opacity="0.5">
<path d="M1566.83 593.144C1559.09 627.047 1604.86 636.918 1611.78 602.835C1619.52 568.934 1573.75 559.063 1566.83 593.144Z" fill="white"/>
</g>
<path d="M1094.38 411.008C1092.91 411.008 1091.41 410.683 1090 409.996C1085.04 407.577 1082.97 401.592 1085.39 396.627C1107.07 352.126 1146.78 313.104 1200.22 283.779C1249.34 256.822 1308.63 238.548 1371.67 230.933C1436.58 223.092 1500.87 227.01 1557.6 242.264C1618.94 258.759 1668.5 288.081 1700.92 327.06C1704.45 331.306 1703.87 337.612 1699.63 341.143C1695.38 344.674 1689.07 344.095 1685.54 339.849C1627.38 269.916 1505.12 234.958 1374.06 250.79C1246.01 266.259 1142.29 325.497 1103.37 405.387C1101.64 408.94 1098.08 411.008 1094.38 411.008Z" fill="#371A45"/>
<g opacity="0.5">
<path d="M1169.05 651.715C1079.3 447.986 1214.59 337.496 1392.95 332.257C1269.91 371.592 1183.35 499.591 1169.05 651.715Z" fill="white"/>
</g>
<path d="M1282.19 1055.62L1456.06 1070.79C1476.64 1072.59 1494.96 1057.22 1496.77 1036.61L1504.83 944.086C1506.4 926.047 1494.81 909.77 1478.07 904.794C1475.7 904.072 1473.22 903.611 1470.65 903.382L1296.81 888.218C1276.2 886.416 1257.88 901.788 1256.1 922.394L1249.7 995.677L1248.01 1014.92C1246.21 1035.52 1261.61 1053.82 1282.19 1055.62Z" fill="white"/>
<g opacity="0.35">
<path d="M1282.19 1055.62L1456.06 1070.79C1476.64 1072.59 1494.96 1057.22 1496.76 1036.61L1504.83 944.086C1506.4 926.047 1494.81 909.77 1478.07 904.794C1467.62 910.49 1460.99 914.138 1460.99 914.138C1446.04 987.671 1421.66 1022.86 1329.3 1016.32C1289.44 1013.49 1264.84 1005.23 1249.69 995.677L1248.01 1014.92C1246.21 1035.52 1261.61 1053.82 1282.19 1055.62Z" fill="#371A45"/>
</g>
<path d="M1459.37 1080.94C1457.98 1080.94 1456.58 1080.88 1455.18 1080.76L1281.32 1065.59C1255.18 1063.31 1235.77 1040.19 1238.05 1014.05L1246.13 921.513C1247.23 908.893 1253.21 897.432 1262.96 889.241C1272.72 881.05 1285.05 877.146 1297.66 878.246L1471.53 893.414C1497.66 895.695 1517.07 918.814 1514.79 944.952L1506.72 1037.49C1505.62 1050.11 1499.64 1061.57 1489.88 1069.76C1481.21 1077.05 1470.5 1080.94 1459.37 1080.94ZM1293.51 898.065C1279.37 898.065 1267.3 908.911 1266.05 923.252L1257.98 1015.79C1256.66 1030.94 1267.91 1044.35 1283.06 1045.67L1456.92 1060.83C1464.22 1061.48 1471.36 1059.2 1477.02 1054.45C1482.69 1049.69 1486.16 1043.05 1486.79 1035.75L1494.87 943.214C1496.19 928.063 1484.94 914.661 1469.79 913.339L1295.93 898.171C1295.12 898.1 1294.31 898.065 1293.51 898.065Z" fill="#371A45"/>
<path d="M1275.27 1054.33C1277.48 1055 1279.78 1055.43 1282.19 1055.62L1456.06 1070.79C1471.14 1072.1 1485.01 1064.21 1492.04 1051.76C1494.61 1047.23 1496.27 1042.11 1496.74 1036.61L1500.34 995.507L1501.53 981.945L1504.83 944.086C1506.63 923.481 1491.23 905.183 1470.65 903.382L1433.08 900.114C1450.12 904.888 1461.97 921.304 1460.39 939.527L1456.05 989.509L1452.33 1032.08C1450.53 1052.66 1432.2 1068.06 1411.62 1066.26L1275.27 1054.33Z" fill="white"/>
<g opacity="0.35">
<path d="M1275.27 1054.33C1277.48 1055 1279.78 1055.43 1282.19 1055.62L1456.06 1070.79C1476.64 1072.59 1494.96 1057.22 1496.74 1036.61L1501.53 981.945C1496.31 991.223 1487.42 1002.39 1474.74 1002.54C1467.78 1002.64 1461.43 997.084 1456.05 989.508L1452.33 1032.08C1450.53 1052.66 1432.2 1068.06 1411.62 1066.26L1275.27 1054.33Z" fill="#371A45"/>
</g>
<path d="M1459.39 1080.94C1457.99 1080.94 1456.59 1080.88 1455.19 1080.76L1281.32 1065.58C1278.36 1065.34 1275.36 1064.79 1272.45 1063.94L1276.13 1044.38L1412.5 1056.29C1419.79 1056.93 1426.92 1054.66 1432.59 1049.9C1438.25 1045.14 1441.72 1038.51 1442.35 1031.21L1450.43 938.667C1451.58 925.486 1443.15 913.315 1430.39 909.728L1433.96 890.139L1471.52 893.408C1484.14 894.517 1495.6 900.498 1503.79 910.252C1511.99 920.011 1515.89 932.337 1514.78 944.958L1506.71 1037.49C1505.62 1050.11 1499.64 1061.57 1489.88 1069.77C1481.21 1077.05 1470.51 1080.94 1459.39 1080.94ZM1450.53 1060.27L1456.93 1060.83C1464.23 1061.47 1471.35 1059.21 1477.02 1054.45C1482.69 1049.69 1486.16 1043.05 1486.79 1035.76V1035.75L1494.86 943.214C1495.5 935.914 1493.23 928.777 1488.48 923.112C1483.72 917.446 1477.08 913.973 1469.77 913.332L1464.35 912.86C1468.96 921.002 1471.21 930.54 1470.35 940.406L1462.28 1032.94C1461.39 1043.19 1457.28 1052.68 1450.53 1060.27Z" fill="#371A45"/>
<path d="M1387.73 980.574C1387.46 983.997 1390.02 1012.02 1390.02 1012.02C1390.02 1012.02 1398.77 1012.74 1409.52 1013.61C1422.95 1014.71 1434.97 1001.69 1436.37 984.536C1437.77 967.383 1428.01 952.59 1414.58 951.496C1405.52 950.758 1395.08 949.907 1395.08 949.907C1395.08 949.907 1388.19 974.997 1387.73 980.574Z" fill="#22A7F0"/>
<g opacity="0.35">
<path d="M1387.73 980.574C1387.46 983.997 1390.02 1012.02 1390.02 1012.02C1390.02 1012.02 1398.77 1012.74 1409.52 1013.61C1422.95 1014.71 1434.97 1001.69 1436.37 984.536C1437.77 967.383 1428.01 952.59 1414.58 951.496C1405.52 950.758 1395.08 949.907 1395.08 949.907C1395.08 949.907 1388.19 974.997 1387.73 980.574Z" fill="#371A45"/>
</g>
<path d="M1411.08 1018.68C1410.43 1018.68 1409.77 1018.65 1409.12 1018.6L1389.61 1017.01C1387.19 1016.81 1385.26 1014.9 1385.04 1012.48C1384.43 1005.8 1382.46 983.745 1382.75 980.168C1383.23 974.294 1389.54 951.197 1390.26 948.583C1390.89 946.266 1393.08 944.724 1395.48 944.923L1414.99 946.512C1423.05 947.168 1430.23 951.689 1435.21 959.24C1439.94 966.409 1442.12 975.536 1441.35 984.941C1439.8 1004.01 1426.43 1018.68 1411.08 1018.68ZM1394.62 1007.38L1409.93 1008.63C1420.59 1009.5 1430.22 998.508 1431.39 984.13C1431.97 976.942 1430.37 970.058 1426.86 964.746C1423.61 959.817 1419.11 956.881 1414.18 956.479L1398.82 955.228C1396.25 964.798 1392.99 977.717 1392.72 980.971C1392.6 982.88 1393.54 995.212 1394.62 1007.38Z" fill="#371A45"/>
<path d="M1416.9 982.979C1418.29 965.825 1408.54 951.033 1395.11 949.938C1381.68 948.844 1369.66 961.863 1368.26 979.017C1366.86 996.17 1376.62 1010.96 1390.05 1012.06C1403.48 1013.15 1415.5 1000.13 1416.9 982.979Z" fill="#22A7F0"/>
<path d="M1371.63 983.104C1372.88 970.59 1382.58 960.985 1393.08 959.224C1405.46 957.147 1415.45 966.933 1419.37 982.107C1419.72 978.774 1419.63 975.246 1419.02 971.673C1416.15 954.705 1401.37 946.996 1388.08 949.224C1374.79 951.477 1368.04 962.802 1370.91 979.796C1371.11 980.908 1371.33 982.015 1371.63 983.104Z" fill="white"/>
<g opacity="0.35">
<path d="M1390.03 1012.04C1403.46 1013.12 1415.47 1000.09 1416.87 982.938C1417.18 979.22 1416.94 975.618 1416.27 972.24C1411.88 983.851 1402.24 991.615 1391.74 990.774C1381.24 989.907 1372.99 980.704 1370.58 968.512C1369.33 971.732 1368.55 975.28 1368.24 978.998C1366.84 996.15 1376.59 1010.93 1390.03 1012.04Z" fill="#371A45"/>
</g>
<path d="M1391.63 1017.09C1390.96 1017.09 1390.28 1017.06 1389.61 1017.01C1381.55 1016.35 1374.37 1011.83 1369.39 1004.28C1364.66 997.111 1362.48 987.983 1363.25 978.579C1364.86 958.705 1379.32 943.606 1395.48 944.923C1403.54 945.579 1410.72 950.1 1415.7 957.651C1420.43 964.82 1422.61 973.947 1421.85 983.352C1421.08 992.757 1417.45 1001.41 1411.63 1007.72C1406 1013.81 1398.97 1017.09 1391.63 1017.09ZM1373.21 979.391C1372.63 986.579 1374.23 993.463 1377.74 998.775C1380.99 1003.7 1385.49 1006.64 1390.42 1007.04C1395.36 1007.44 1400.27 1005.28 1404.28 1000.94C1408.59 996.263 1411.29 989.73 1411.88 982.542C1412.47 975.354 1410.86 968.47 1407.36 963.158C1404.11 958.229 1399.6 955.293 1394.67 954.891C1384 954.021 1374.38 965.014 1373.21 979.391Z" fill="#371A45"/>
<path d="M1336.3 1067.17C1336.14 1067.17 1335.98 1067.17 1335.82 1067.15C1331.69 1066.89 1328.55 1063.33 1328.81 1059.19L1331.79 1012.29C1332.32 1003.91 1328.64 995.882 1321.95 990.811C1310.97 982.496 1305.1 969.339 1306.25 955.617L1311.78 889.604C1312.12 885.477 1315.75 882.408 1319.88 882.756C1324.01 883.102 1327.07 886.728 1326.73 890.856L1321.2 956.869C1320.48 965.441 1324.15 973.66 1331 978.854C1341.72 986.972 1347.61 999.828 1346.76 1013.24L1343.78 1060.14C1343.53 1064.12 1340.23 1067.17 1336.3 1067.17Z" fill="#371A45"/>
<path d="M1563.19 1097.62C1548.81 1097.62 1534.32 1097.53 1519.76 1097.34L1519.56 1097.34C1510.28 1097.21 1500.68 1097.07 1491.12 1096.85L1490.64 1096.83C1483.28 1096.67 1475.79 1096.51 1468.26 1096.3L1466.89 1096.26C1456.81 1095.98 1446.63 1095.66 1436.64 1095.3C1399.27 1093.89 1362.69 1091.94 1327.89 1089.49C1305.92 1087.97 1284.03 1086.22 1262.83 1084.3C1257.24 1083.82 1251.67 1083.3 1246.28 1082.8L1246.17 1082.79L1245.46 1082.72C1242.45 1082.4 1239.48 1082.11 1236.51 1081.83L1236.39 1081.82C1226.57 1080.85 1216.26 1079.77 1204.85 1078.5C1204.41 1078.46 1203.98 1078.41 1203.55 1078.34L1203.39 1078.33C1202.76 1078.26 1202 1078.18 1201.13 1078.06C1200.11 1077.96 1198.99 1077.84 1197.84 1077.69C1196.4 1077.55 1195.01 1077.39 1193.77 1077.23C1168.95 1074.4 1144.64 1071.28 1121.51 1067.95C1088.47 1063.25 1056.34 1057.97 1026.06 1052.25C937.051 1035.44 861.525 1014.39 807.648 991.386C746.949 965.467 713.451 937.846 705.238 906.946L704.96 905.898L704.824 904.822C704.149 899.457 703.742 893.857 703.615 888.177C703.416 879.295 710.454 871.934 719.336 871.735C728.218 871.529 735.579 878.574 735.778 887.456C735.871 891.621 736.149 895.711 736.602 899.633C740.222 911.433 756.116 934.401 820.282 961.8C872.052 983.906 945.274 1004.25 1032.03 1020.64C1061.84 1026.27 1093.47 1031.47 1126.07 1036.1C1148.94 1039.39 1172.96 1042.48 1197.5 1045.28L1197.63 1045.3C1198.79 1045.44 1199.95 1045.58 1201.11 1045.69L1201.88 1045.77C1202.69 1045.89 1203.67 1045.98 1204.71 1046.09L1205.64 1046.21C1205.98 1046.26 1206.31 1046.29 1206.65 1046.32C1207.02 1046.36 1207.4 1046.4 1207.78 1046.44L1209.68 1046.67C1220.45 1047.86 1230.22 1048.89 1239.48 1049.8L1239.56 1049.81C1242.57 1050.09 1245.57 1050.38 1248.62 1050.71L1248.73 1050.72C1254.23 1051.23 1259.92 1051.77 1265.65 1052.26C1286.71 1054.16 1308.37 1055.89 1330.13 1057.4C1364.6 1059.82 1400.83 1061.76 1437.82 1063.15C1447.7 1063.51 1457.79 1063.83 1467.78 1064.11L1469.15 1064.14C1476.62 1064.35 1484.05 1064.51 1491.43 1064.67L1491.98 1064.69C1501.36 1064.91 1510.85 1065.04 1520.03 1065.18L1520.19 1065.18C1558.69 1065.66 1596.79 1065.5 1633.4 1064.69C1657.27 1064.15 1681.03 1063.34 1704 1062.29C1708.9 1062.09 1713.79 1061.84 1718.51 1061.61L1719.88 1061.52C1737.88 1060.57 1752.34 1059.72 1765.37 1058.84C1766.98 1058.72 1768.6 1058.61 1770.21 1058.5C1771.78 1058.39 1773.36 1058.28 1774.93 1058.16C1897.89 1049.35 2004.11 1032.95 2082.18 1010.72C2183.37 981.913 2205.06 952.574 2209.64 940.327C2210.3 936.301 2210.79 932.218 2211.11 928.17C2211.79 919.313 2219.53 912.694 2228.39 913.378C2237.25 914.066 2243.87 921.804 2243.18 930.661C2242.76 936.135 2242.06 941.66 2241.12 947.084L2240.93 948.221L2240.57 949.318C2234.27 968.647 2217.13 986.571 2189.62 1002.59C2165.14 1016.86 2131.95 1030 2090.99 1041.66C2010.83 1064.48 1902.36 1081.28 1777.3 1090.24C1775.73 1090.36 1774.09 1090.48 1772.44 1090.59C1770.87 1090.7 1769.3 1090.81 1767.72 1090.93L1767.58 1090.94C1754.4 1091.82 1739.81 1092.68 1721.66 1093.65L1719.67 1093.77L1719.53 1093.77C1714.91 1094 1710.15 1094.23 1705.4 1094.43C1682.26 1095.49 1658.24 1096.31 1634.12 1096.86C1610.97 1097.36 1587.24 1097.62 1563.19 1097.62Z" fill="#371A45"/>
<path d="M1709.57 932.368C1763.8 1014.01 1660.99 1056.64 1485.68 1023.64C1485.68 1023.64 1455.97 976.228 1503.4 950.491C1503.4 950.491 1631.66 993.37 1709.57 932.368Z" fill="white"/>
<g opacity="0.35">
<path d="M1485.69 1023.63C1650.75 1050.78 1707.47 1025.22 1722.48 980.414C1716.67 987.145 1711.27 990.117 1711.27 990.117C1711.27 990.117 1648.65 1026.37 1521.57 1004.77C1500.74 1001.31 1485.56 981.624 1489.28 960.783C1462.81 987.123 1485.69 1023.63 1485.69 1023.63Z" fill="#371A45"/>
</g>
<path d="M1594.43 1044.84C1564.76 1044.84 1531.36 1041.77 1495.21 1035.52C1483.9 1033.57 1474.52 1025.71 1470.75 1015.03C1461.37 988.444 1467.34 964.984 1487.54 948.967C1495.16 942.923 1505.46 940.887 1515.1 943.522C1539.55 950.207 1624.14 969.417 1685.98 935.889C1694.48 931.285 1704.45 930.742 1713.36 934.396C1721.96 937.928 1728.44 945.013 1731.12 953.834C1737.38 974.42 1733.68 993.231 1720.43 1008.23C1699.17 1032.3 1654.44 1044.84 1594.43 1044.84ZM1506.66 962.387C1504.19 962.387 1501.82 963.163 1499.96 964.639C1486.6 975.237 1483.12 989.951 1489.61 1008.37C1490.98 1012.24 1494.43 1015.09 1498.62 1015.82C1550.14 1024.72 1596.97 1027.09 1634.04 1022.68C1668.37 1018.59 1693.06 1009.01 1705.44 994.993C1714.09 985.195 1716.23 973.634 1711.98 959.65C1710.71 955.476 1707.54 953.629 1705.77 952.9C1702.44 951.535 1698.71 951.744 1695.52 953.472C1666.2 969.367 1629.82 976.576 1587.4 974.897C1553.44 973.553 1524.22 966.75 1509.82 962.814C1508.77 962.527 1507.71 962.387 1506.66 962.387Z" fill="#371A45"/>
<g opacity="0.35">
<path d="M1089.31 1461.31C1165.23 1385.38 1165.23 1262.28 1089.31 1186.36C1013.38 1110.43 890.282 1110.43 814.355 1186.36C738.429 1262.28 738.429 1385.38 814.355 1461.31C890.281 1537.24 1013.38 1537.24 1089.31 1461.31Z" fill="#371A45"/>
</g>
<path d="M942.925 1475.96C1039.48 1475.96 1117.76 1397.68 1117.76 1301.12C1117.76 1204.57 1039.48 1126.29 942.925 1126.29C846.366 1126.29 768.09 1204.57 768.09 1301.12C768.09 1397.68 846.366 1475.96 942.925 1475.96Z" fill="#6E6EC8"/>
<g opacity="0.3">
<path d="M785.536 1293.15C802.691 1198.13 893.628 1135 988.651 1152.16C1033.82 1160.31 1071.76 1185.16 1097.32 1219.18C1073.03 1173.5 1028.85 1138.97 973.986 1129.07C878.964 1111.92 788.025 1175.04 770.871 1270.06C761.872 1319.91 774.993 1368.62 803.198 1406.16C785.419 1372.72 778.286 1333.31 785.536 1293.15Z" fill="white"/>
</g>
<g opacity="0.35">
<path d="M911.879 1473.17C1006.87 1490.31 1097.83 1427.23 1114.99 1332.2C1120.37 1302.31 1117.82 1272.83 1108.82 1245.92C1109.41 1258.83 1108.59 1271.98 1106.21 1285.25C1089.05 1380.28 998.122 1443.41 903.09 1426.26C837.941 1414.49 787.788 1368 768.268 1309.35C771.923 1388.97 830.086 1458.39 911.879 1473.17Z" fill="#371A45"/>
</g>
<path d="M943.321 1488.51C932.139 1488.51 920.88 1487.51 909.642 1485.48C860.399 1476.59 817.565 1449.06 789.032 1407.95C760.498 1366.84 749.68 1317.08 758.57 1267.84C767.46 1218.6 794.994 1175.77 836.101 1147.23C877.206 1118.7 926.965 1107.88 976.207 1116.77C1025.45 1125.66 1068.28 1153.19 1096.82 1194.3C1125.35 1235.41 1136.17 1285.16 1127.28 1334.41C1118.39 1383.65 1090.86 1426.48 1049.75 1455.02C1018.02 1477.04 981.139 1488.51 943.321 1488.51ZM942.581 1138.75C909.807 1138.75 877.85 1148.68 850.356 1167.77C814.735 1192.49 790.876 1229.61 783.172 1272.28C775.468 1314.96 784.843 1358.07 809.569 1393.69C834.295 1429.31 871.412 1453.17 914.084 1460.88C956.755 1468.58 999.873 1459.21 1035.49 1434.48C1071.11 1409.75 1094.97 1372.64 1102.68 1329.96C1110.38 1287.29 1101.01 1244.18 1076.28 1208.55C1051.55 1172.93 1014.44 1149.07 971.765 1141.37C962.03 1139.61 952.268 1138.75 942.581 1138.75Z" fill="#371A45"/>
<path d="M1019.87 1377.35C1063.31 1333.91 1063.31 1263.49 1019.87 1220.05C976.435 1176.62 906.011 1176.62 862.574 1220.05C819.138 1263.49 819.138 1333.91 862.574 1377.35C906.011 1420.79 976.435 1420.79 1019.87 1377.35Z" fill="#22A7F0"/>
<g opacity="0.3">
<path d="M921.492 1408.18C981.95 1419.1 1039.79 1378.93 1050.7 1318.47C1053.08 1305.38 1053.05 1292.39 1050.9 1280C1050.73 1281.22 1050.53 1282.43 1050.31 1283.68C1039.4 1344.14 981.561 1384.31 921.103 1373.4C873.731 1364.86 838.837 1327.5 831.192 1282.66C822.52 1341.75 862.283 1397.48 921.492 1408.18Z" fill="white"/>
</g>
<g opacity="0.35">
<path d="M832.128 1326.41C832.396 1324.52 832.663 1322.63 833.012 1320.73C843.926 1260.27 901.764 1220.1 962.222 1231.02C1007.72 1239.22 1041.75 1274.04 1051.09 1316.53C1058.57 1258.16 1019.05 1203.56 960.496 1193C900.074 1182.09 842.21 1222.22 831.295 1282.67C828.617 1297.64 829.011 1312.45 832.128 1326.41Z" fill="#371A45"/>
</g>
<path d="M941.51 1422.47C934.124 1422.47 926.688 1421.81 919.266 1420.47C852.128 1408.35 807.368 1343.86 819.489 1276.73C825.361 1244.2 843.546 1215.91 870.695 1197.07C897.844 1178.22 930.707 1171.08 963.23 1176.95C995.753 1182.82 1024.04 1201.01 1042.89 1228.15C1061.73 1255.3 1068.88 1288.17 1063.01 1320.69C1057.14 1353.21 1038.95 1381.5 1011.8 1400.35C990.848 1414.89 966.487 1422.47 941.51 1422.47ZM923.708 1395.86C949.66 1400.55 975.882 1394.85 997.545 1379.81C1019.21 1364.77 1033.72 1342.2 1038.4 1316.25C1043.09 1290.3 1037.39 1264.07 1022.35 1242.41C1007.31 1220.75 984.739 1206.24 958.787 1201.55C932.835 1196.87 906.613 1202.57 884.95 1217.6C863.287 1232.64 848.776 1255.22 844.091 1281.17C834.42 1334.74 870.136 1386.19 923.708 1395.86Z" fill="#371A45"/>
<g opacity="0.35">
<path d="M1955.81 1518.26C2063.19 1518.26 2150.23 1431.22 2150.23 1323.84C2150.23 1216.46 2063.19 1129.42 1955.81 1129.42C1848.43 1129.42 1761.39 1216.46 1761.39 1323.84C1761.39 1431.22 1848.43 1518.26 1955.81 1518.26Z" fill="#371A45"/>
</g>
<path d="M1946.88 1475.96C2043.44 1475.96 2121.71 1397.68 2121.71 1301.12C2121.71 1204.57 2043.44 1126.29 1946.88 1126.29C1850.32 1126.29 1772.04 1204.57 1772.04 1301.12C1772.04 1397.68 1850.32 1475.96 1946.88 1475.96Z" fill="#6E6EC8"/>
<g opacity="0.3">
<path d="M1789.49 1293.15C1806.65 1198.13 1897.58 1135 1992.61 1152.16C2037.78 1160.31 2075.71 1185.16 2101.27 1219.18C2076.99 1173.5 2032.8 1138.97 1977.94 1129.07C1882.92 1111.92 1791.98 1175.04 1774.83 1270.06C1765.83 1319.91 1778.95 1368.62 1807.15 1406.16C1789.37 1372.72 1782.24 1333.31 1789.49 1293.15Z" fill="white"/>
</g>
<g opacity="0.35">
<path d="M1915.83 1473.17C2010.83 1490.31 2101.79 1427.23 2118.94 1332.2C2124.33 1302.31 2121.77 1272.83 2112.78 1245.92C2113.37 1258.83 2112.55 1271.98 2110.16 1285.25C2093.01 1380.28 2002.07 1443.41 1907.04 1426.26C1841.89 1414.49 1791.74 1368 1772.22 1309.35C1775.88 1388.97 1834.04 1458.39 1915.83 1473.17Z" fill="#371A45"/>
</g>
<path d="M1947.28 1488.51C1936.09 1488.51 1924.83 1487.51 1913.6 1485.48C1864.35 1476.59 1821.52 1449.06 1792.98 1407.95C1764.45 1366.84 1753.63 1317.08 1762.52 1267.84C1771.41 1218.6 1798.95 1175.77 1840.05 1147.23C1881.16 1118.7 1930.92 1107.88 1980.16 1116.77C2029.4 1125.66 2072.24 1153.19 2100.77 1194.3C2129.3 1235.41 2140.12 1285.16 2131.23 1334.41C2122.34 1383.65 2094.81 1426.48 2053.7 1455.02C2021.98 1477.04 1985.09 1488.51 1947.28 1488.51ZM1946.54 1138.75C1913.76 1138.75 1881.8 1148.68 1854.31 1167.77C1818.69 1192.49 1794.83 1229.61 1787.13 1272.28C1779.42 1314.96 1788.8 1358.07 1813.52 1393.69C1838.25 1429.31 1875.37 1453.17 1918.04 1460.88C1960.71 1468.58 2003.83 1459.21 2039.45 1434.48C2075.07 1409.75 2098.93 1372.64 2106.63 1329.97C2114.33 1287.29 2104.96 1244.18 2080.23 1208.56C2055.51 1172.94 2018.39 1149.08 1975.72 1141.37C1965.98 1139.61 1956.22 1138.75 1946.54 1138.75Z" fill="#371A45"/>
<path d="M2023.82 1377.36C2067.25 1333.92 2067.25 1263.5 2023.82 1220.06C1980.38 1176.62 1909.96 1176.62 1866.52 1220.06C1823.08 1263.5 1823.08 1333.92 1866.52 1377.36C1909.96 1420.79 1980.38 1420.79 2023.82 1377.36Z" fill="#22A7F0"/>
<g opacity="0.3">
<path d="M1925.45 1408.18C1985.9 1419.1 2043.74 1378.93 2054.66 1318.47C2057.03 1305.38 2057 1292.39 2054.85 1280C2054.69 1281.22 2054.48 1282.43 2054.27 1283.68C2043.35 1344.14 1985.51 1384.31 1925.06 1373.4C1877.68 1364.86 1842.79 1327.5 1835.15 1282.66C1826.47 1341.75 1866.24 1397.48 1925.45 1408.18Z" fill="white"/>
</g>
<g opacity="0.35">
<path d="M1836.08 1326.41C1836.35 1324.52 1836.62 1322.63 1836.97 1320.73C1847.88 1260.27 1905.72 1220.1 1966.18 1231.02C2011.68 1239.22 2045.7 1274.04 2055.05 1316.53C2062.53 1258.16 2023 1203.56 1964.45 1193C1904.03 1182.09 1846.16 1222.22 1835.25 1282.67C1832.57 1297.64 1832.97 1312.45 1836.08 1326.41Z" fill="#371A45"/>
</g>
<path d="M1945.46 1422.47C1938.08 1422.47 1930.64 1421.81 1923.22 1420.47C1856.08 1408.35 1811.32 1343.86 1823.44 1276.73C1829.31 1244.2 1847.5 1215.91 1874.65 1197.07C1901.8 1178.22 1934.66 1171.08 1967.18 1176.95C2034.32 1189.07 2079.08 1253.55 2066.96 1320.69C2061.09 1353.21 2042.9 1381.5 2015.75 1400.35C1994.8 1414.89 1970.44 1422.47 1945.46 1422.47ZM1927.66 1395.86C1953.61 1400.55 1979.84 1394.85 2001.5 1379.81C2023.16 1364.77 2037.67 1342.2 2042.36 1316.25C2052.03 1262.68 2016.31 1211.22 1962.74 1201.55C1936.79 1196.87 1910.57 1202.57 1888.9 1217.6C1867.24 1232.64 1852.73 1255.22 1848.05 1281.17C1838.37 1334.74 1874.09 1386.19 1927.66 1395.86Z" fill="#371A45"/>
<g opacity="0.35">
<path d="M1591.28 1533.23C1667.21 1457.3 1667.21 1334.2 1591.28 1258.28C1515.35 1182.35 1392.25 1182.35 1316.33 1258.28C1240.4 1334.2 1240.4 1457.3 1316.33 1533.23C1392.25 1609.16 1515.35 1609.16 1591.28 1533.23Z" fill="#371A45"/>
</g>
<path d="M1568.5 1496.66C1636.78 1428.39 1636.78 1317.69 1568.5 1249.41C1500.22 1181.13 1389.52 1181.13 1321.25 1249.41C1252.97 1317.69 1252.97 1428.39 1321.25 1496.66C1389.52 1564.94 1500.22 1564.94 1568.5 1496.66Z" fill="#6E6EC8"/>
<g opacity="0.3">
<path d="M1287.51 1365.07C1304.67 1270.04 1395.6 1206.92 1490.63 1224.08C1535.8 1232.23 1573.74 1257.08 1599.29 1291.09C1575.01 1245.42 1530.82 1210.89 1475.96 1200.99C1380.94 1183.83 1290 1246.96 1272.85 1341.98C1263.85 1391.83 1276.97 1440.54 1305.17 1478.07C1287.4 1444.64 1280.26 1405.23 1287.51 1365.07Z" fill="white"/>
</g>
<g opacity="0.35">
<path d="M1413.85 1545.09C1508.85 1562.23 1599.81 1499.15 1616.96 1404.12C1622.35 1374.23 1619.79 1344.75 1610.8 1317.84C1611.39 1330.74 1610.57 1343.89 1608.18 1357.17C1591.03 1452.2 1500.1 1515.33 1405.06 1498.17C1339.92 1486.41 1289.76 1439.92 1270.24 1381.26C1273.9 1460.89 1332.06 1530.31 1413.85 1545.09Z" fill="#371A45"/>
</g>
<path d="M1445.3 1560.43C1434.12 1560.43 1422.86 1559.43 1411.62 1557.4C1309.97 1539.04 1242.2 1441.41 1260.55 1339.76C1278.9 1238.11 1376.53 1170.34 1478.18 1188.69C1579.84 1207.04 1647.61 1304.67 1629.26 1406.32C1620.37 1455.57 1592.83 1498.4 1551.73 1526.93C1520 1548.96 1483.12 1560.43 1445.3 1560.43ZM1416.06 1532.79C1458.73 1540.5 1501.85 1531.12 1537.47 1506.4C1573.09 1481.67 1596.95 1444.55 1604.65 1401.88C1620.56 1313.79 1561.83 1229.19 1473.74 1213.29C1431.07 1205.59 1387.95 1214.96 1352.33 1239.69C1316.71 1264.41 1292.85 1301.53 1285.15 1344.2C1269.25 1432.29 1327.97 1516.89 1416.06 1532.79Z" fill="#371A45"/>
<path d="M1521.84 1449.27C1565.28 1405.83 1565.28 1335.41 1521.84 1291.97C1478.41 1248.54 1407.98 1248.54 1364.55 1291.97C1321.11 1335.41 1321.11 1405.83 1364.55 1449.27C1407.98 1492.71 1478.41 1492.71 1521.84 1449.27Z" fill="#22A7F0"/>
<g opacity="0.3">
<path d="M1423.47 1480.1C1483.93 1491.01 1541.76 1450.84 1552.68 1390.39C1555.05 1377.3 1555.02 1364.31 1552.88 1351.92C1552.71 1353.14 1552.5 1354.35 1552.29 1355.6C1541.38 1416.06 1483.54 1456.23 1423.08 1445.31C1375.71 1436.77 1340.81 1399.42 1333.17 1354.57C1324.5 1413.66 1364.26 1469.4 1423.47 1480.1Z" fill="white"/>
</g>
<g opacity="0.35">
<path d="M1334.11 1398.33C1334.37 1396.44 1334.64 1394.55 1334.99 1392.65C1345.9 1332.19 1403.74 1292.02 1464.2 1302.94C1509.7 1311.13 1543.73 1345.96 1553.07 1388.44C1560.55 1330.08 1521.03 1275.48 1462.47 1264.92C1402.05 1254.01 1344.19 1294.14 1333.27 1354.59C1330.6 1369.56 1330.99 1384.37 1334.11 1398.33Z" fill="#371A45"/>
</g>
<path d="M1443.28 1494.36C1436.01 1494.36 1428.65 1493.72 1421.24 1492.38C1388.72 1486.51 1360.43 1468.33 1341.58 1441.18C1322.74 1414.03 1315.59 1381.17 1321.46 1348.64C1333.59 1281.5 1398.06 1236.75 1465.21 1248.87C1497.73 1254.74 1526.02 1272.92 1544.86 1300.07C1563.71 1327.22 1570.85 1360.08 1564.98 1392.61C1554.2 1452.34 1501.96 1494.36 1443.28 1494.36ZM1443.18 1271.89C1396.36 1271.89 1354.67 1305.42 1346.07 1353.08C1341.38 1379.04 1347.08 1405.26 1362.12 1426.92C1377.16 1448.59 1399.73 1463.1 1425.69 1467.78C1479.26 1477.46 1530.71 1441.74 1540.38 1388.17C1545.07 1362.21 1539.37 1335.99 1524.33 1314.33C1509.29 1292.66 1486.72 1278.15 1460.77 1273.47C1454.86 1272.4 1448.98 1271.89 1443.18 1271.89Z" fill="#371A45"/>
<rect x="1249.66" y="1179.08" width="422.7" height="422.7" rx="65" fill="white"/>
<path d="M1455.93 1602.65C1564.45 1602.65 1652.42 1514.67 1652.42 1406.16C1652.42 1297.64 1564.45 1209.67 1455.93 1209.67C1347.42 1209.67 1259.45 1297.64 1259.45 1406.16C1259.45 1514.67 1347.42 1602.65 1455.93 1602.65Z" fill="#627EEA"/>
<path d="M1462.05 1258.79V1367.72L1554.12 1408.86L1462.05 1258.79Z" fill="white" fill-opacity="0.602"/>
<path d="M1462.05 1258.79L1369.97 1408.86L1462.05 1367.72V1258.79Z" fill="white"/>
<path d="M1462.05 1479.45V1553.46L1554.18 1426L1462.05 1479.45Z" fill="white" fill-opacity="0.602"/>
<path d="M1462.05 1553.46V1479.44L1369.97 1426L1462.05 1553.46Z" fill="white"/>
<path d="M1462.05 1462.32L1554.12 1408.86L1462.05 1367.74V1462.32Z" fill="white" fill-opacity="0.2"/>
<path d="M1369.97 1408.86L1462.05 1462.32V1367.74L1369.97 1408.86Z" fill="white" fill-opacity="0.602"/>
</svg>
