<svg width="438" height="309" viewBox="0 0 438 309" fill="none" xmlns="http://www.w3.org/2000/svg">
<path d="M155 0C206.15 0 257.3 0 310 0C310 8.25 310 16.5 310 25C318.182 24.9604 318.182 24.9604 326.365 24.9099C327.378 24.9074 328.39 24.9049 329.433 24.9023C330.476 24.8971 331.518 24.8919 332.591 24.8865C335 25 335 25 336 26C336.158 27.7787 336.251 29.5632 336.316 31.3477C336.358 32.4272 336.4 33.5068 336.443 34.6191C336.483 35.7554 336.522 36.8918 336.562 38.0625C336.606 39.2027 336.649 40.3429 336.693 41.5176C336.8 44.3449 336.902 47.1724 337 50C337.686 49.9948 338.372 49.9895 339.079 49.9841C342.178 49.9634 345.276 49.9503 348.375 49.9375C349.455 49.9291 350.535 49.9207 351.648 49.9121C352.68 49.9089 353.711 49.9057 354.773 49.9023C355.726 49.8971 356.68 49.8919 357.661 49.8865C360 50 360 50 362 51C362 59.58 362 68.16 362 77C370.25 77 378.5 77 387 77C387 102.08 387 127.16 387 153C395.25 153 403.5 153 412 153C412 161.58 412 170.16 412 179C420.58 179 429.16 179 438 179C438 187.91 438 196.82 438 206C425.625 206.495 425.625 206.495 413 207C412.67 223.5 412.34 240 412 257C403.75 257 395.5 257 387 257C387 265.58 387 274.16 387 283C344.76 283 302.52 283 259 283C259 291.58 259 300.16 259 309C216.1 309 173.2 309 129 309C129 300.42 129 291.84 129 283C112.17 283 95.3399 283 77.9999 283C77.9999 274.42 77.9999 265.84 77.9999 257C69.4199 257 60.8399 257 51.9999 257C51.9999 240.17 51.9999 223.34 51.9999 206C43.7499 206 35.4999 206 26.9999 206C26.9999 197.75 26.9999 189.5 26.9999 181C18.8174 181.04 18.8173 181.04 10.6349 181.09C9.11593 181.094 9.11593 181.094 7.56628 181.098C6.00309 181.106 6.00309 181.106 4.40832 181.114C1.99988 181 1.99988 181 0.999878 180C0.8996 177.602 0.863691 175.233 0.870483 172.834C0.868731 172.084 0.866979 171.335 0.865173 170.563C0.860755 168.073 0.863692 165.583 0.867065 163.094C0.866391 161.371 0.865422 159.649 0.864166 157.926C0.862689 154.311 0.864844 150.696 0.869507 147.082C0.875204 142.437 0.871927 137.793 0.865936 133.149C0.862331 129.591 0.863463 126.032 0.866058 122.474C0.866728 120.761 0.865906 119.048 0.863586 117.335C0.861059 114.945 0.864897 112.556 0.870483 110.166C0.868459 109.451 0.866435 108.736 0.864349 108C0.885615 103.114 0.885615 103.114 1.99988 102C3.78059 101.913 5.56471 101.893 7.34753 101.902C8.31957 101.905 9.2916 101.907 10.2931 101.91C12.1589 101.924 12.1589 101.924 14.0624 101.938C18.0018 101.958 21.9411 101.979 25.9999 102C26.3299 93.75 26.6599 85.5 26.9999 77C43.8299 77 60.6599 77 77.9999 77C77.9999 68.42 77.9999 59.84 77.9999 51C86.2499 51 94.4999 51 103 51C103 42.75 103 34.5 103 26C120.16 26 137.32 26 155 26C155 17.42 155 8.84 155 0Z" fill="#605B53"/>
<path d="M103 26C120.16 26 137.32 26 155 26C155 34.58 155 43.16 155 52C138.17 52 121.34 52 104 52C104 60.58 104 69.16 104 78C112.58 78 121.16 78 130 78C130 86.25 130 94.5 130 103C138.58 103 147.16 103 156 103C156 111.58 156 120.16 156 129C164.25 129 172.5 129 181 129C181 145.83 181 162.66 181 180C172.75 180 164.5 180 156 180C156 188.58 156 197.16 156 206C147.42 206 138.84 206 130 206C130 214.25 130 222.5 130 231C113.17 231 96.3399 231 78.9999 231C78.9999 239.58 78.9999 248.16 78.9999 257C95.8299 257 112.66 257 130 257C130 265.25 130 273.5 130 282C172.24 282 214.48 282 258 282C258 273.75 258 265.5 258 257C300.24 257 342.48 257 386 257C386 248.42 386 239.84 386 231C343.76 231 301.52 231 258 231C258 222.75 258 214.5 258 206C308.82 206 359.64 206 412 206C412 222.83 412 239.66 412 257C403.75 257 395.5 257 387 257C387 265.58 387 274.16 387 283C344.76 283 302.52 283 259 283C259 291.58 259 300.16 259 309C216.1 309 173.2 309 129 309C129 300.42 129 291.84 129 283C112.17 283 95.3399 283 77.9999 283C77.9999 274.42 77.9999 265.84 77.9999 257C69.4199 257 60.8399 257 51.9999 257C51.9999 240.17 51.9999 223.34 51.9999 206C43.7499 206 35.4999 206 26.9999 206C26.9999 197.75 26.9999 189.5 26.9999 181C18.8174 181.04 18.8173 181.04 10.6349 181.09C9.11593 181.094 9.11593 181.094 7.56628 181.098C6.00309 181.106 6.00309 181.106 4.40832 181.114C1.99988 181 1.99988 181 0.999878 180C0.8996 177.602 0.863691 175.233 0.870483 172.834C0.868731 172.084 0.866979 171.335 0.865173 170.563C0.860755 168.073 0.863692 165.583 0.867065 163.094C0.866391 161.371 0.865422 159.649 0.864166 157.926C0.862689 154.311 0.864844 150.696 0.869507 147.082C0.875204 142.437 0.871927 137.793 0.865936 133.149C0.862331 129.591 0.863463 126.032 0.866058 122.474C0.866728 120.761 0.865906 119.048 0.863586 117.335C0.861059 114.945 0.864897 112.556 0.870483 110.166C0.868459 109.451 0.866435 108.736 0.864349 108C0.885615 103.114 0.885615 103.114 1.99988 102C3.78059 101.913 5.56471 101.893 7.34753 101.902C8.31957 101.905 9.2916 101.907 10.2931 101.91C12.1589 101.924 12.1589 101.924 14.0624 101.938C18.0018 101.958 21.9411 101.979 25.9999 102C26.3299 93.75 26.6599 85.5 26.9999 77C43.8299 77 60.6599 77 77.9999 77C77.9999 68.42 77.9999 59.84 77.9999 51C86.2499 51 94.4999 51 103 51C103 42.75 103 34.5 103 26Z" fill="#0F110E"/>
<path d="M156 27C181.08 27 206.16 27 232 27C232 35.25 232 43.5 232 52C223.75 52 215.5 52 207 52C207 77.41 207 102.82 207 129C215.25 129 223.5 129 232 129C232 137.58 232 146.16 232 155C240.58 155 249.16 155 258 155C258 163.25 258 171.5 258 180C249.42 180 240.84 180 232 180C232 188.25 232 196.5 232 205C223.75 205 215.5 205 207 205C207 213.58 207 222.16 207 231C215.25 231 223.5 231 232 231C232 239.58 232 248.16 232 257C240.58 257 249.16 257 258 257C258 265.25 258 273.5 258 282C215.76 282 173.52 282 130 282C130 273.75 130 265.5 130 257C113.17 257 96.34 257 79 257C79 248.42 79 239.84 79 231C95.83 231 112.66 231 130 231C130 222.75 130 214.5 130 206C138.58 206 147.16 206 156 206C156 197.42 156 188.84 156 180C164.25 180 172.5 180 181 180C181 163.17 181 146.34 181 129C172.75 129 164.5 129 156 129C156 120.42 156 111.84 156 103C147.42 103 138.84 103 130 103C130 94.75 130 86.5 130 78C121.42 78 112.84 78 104 78C104 69.42 104 60.84 104 52C121.16 52 138.32 52 156 52C156 43.75 156 35.5 156 27Z" fill="#6BFFDF"/>
<path d="M335 26C335.33 26 335.66 26 336 26C336.495 37.88 336.495 37.88 337 50C344.479 49.9605 344.479 49.9605 351.958 49.9099C353.352 49.9062 353.352 49.9062 354.773 49.9023C355.727 49.8971 356.68 49.8919 357.662 49.8865C360 50 360 50 362 51C362 59.58 362 68.16 362 77C370.25 77 378.5 77 387 77C387 102.08 387 127.16 387 153C395.25 153 403.5 153 412 153C412 153.33 412 153.66 412 154C403.42 154 394.84 154 386 154C386 128.92 386 103.84 386 78C377.75 78 369.5 78 361 78C361 103.08 361 128.16 361 154C327.01 154 293.02 154 258 154C258 145.42 258 136.84 258 128C249.75 128 241.5 128 233 128C233 102.92 233 77.84 233 52C241.25 52 249.5 52 258 52C258 43.75 258 35.5 258 27C274.83 27 291.66 27 309 27C309 35.25 309 43.5 309 52C317.58 52 326.16 52 335 52C335 43.42 335 34.84 335 26Z" fill="#F9F9F9"/>
<path d="M28 104C61.33 104 94.66 104 129 104C129 112.25 129 120.5 129 129C137.58 129 146.16 129 155 129C155 145.83 155 162.66 155 180C146.42 180 137.84 180 129 180C129 188.25 129 196.5 129 205C103.92 205 78.84 205 53 205C53 196.42 53 187.84 53 179C44.75 179 36.5 179 28 179C28 154.25 28 129.5 28 104Z" fill="#FEFEFC"/>
<path d="M361 78C369.25 78 377.5 78 386 78C386 103.08 386 128.16 386 154C394.58 154 403.16 154 412 154C412 162.25 412 170.5 412 179C361.51 179 311.02 179 259 179C259 171.08 259 163.16 259 155C292.33 154.67 325.66 154.34 360 154C360.33 128.92 360.66 103.84 361 78Z" fill="#000001"/>
<path d="M156 1C206.49 1 256.98 1 309 1C309 9.25 309 17.5 309 26C292.17 26 275.34 26 258 26C258 34.58 258 43.16 258 52C249.75 52 241.5 52 233 52C233 43.42 233 34.84 233 26C207.59 26 182.18 26 156 26C156 17.75 156 9.5 156 1Z" fill="#000102"/>
<path d="M258 180C308.82 180 359.64 180 412 180C412 188.25 412 196.5 412 205C361.18 205 310.36 205 258 205C258 196.75 258 188.5 258 180Z" fill="#FF2B70"/>
<path d="M258 231C300.24 231 342.48 231 386 231C386 239.58 386 248.16 386 257C343.76 257 301.52 257 258 257C258 248.42 258 239.84 258 231Z" fill="#FF2B70"/>
<path d="M79 52C87.25 52 95.5 52 104 52C104 60.58 104 69.16 104 78C112.58 78 121.16 78 130 78C130 86.25 130 94.5 130 103C96.34 103 62.68 103 28 103C28 94.75 28 86.5 28 78C44.83 78 61.66 78 79 78C79 69.42 79 60.84 79 52Z" fill="#010101"/>
<path d="M53 206C78.41 206 103.82 206 130 206C130 214.25 130 222.5 130 231C113.17 231 96.34 231 79 231C79 239.58 79 248.16 79 257C70.42 257 61.84 257 53 257C53 240.17 53 223.34 53 206Z" fill="#020201"/>
<path d="M207 52C215.25 52 223.5 52 232 52C232 77.41 232 102.82 232 129C223.75 129 215.5 129 207 129C207 103.59 207 78.18 207 52Z" fill="#010100"/>
<path d="M53 180C78.08 180 103.16 180 129 180C129 188.25 129 196.5 129 205C103.92 205 78.84 205 53 205C53 196.75 53 188.5 53 180Z" fill="#6BFFDF"/>
<path d="M2 104C10.25 104 18.5 104 27 104C27 129.08 27 154.16 27 180C18.75 180 10.5 180 2 180C2 154.92 2 129.84 2 104Z" fill="#000102"/>
<path d="M156 27C181.08 27 206.16 27 232 27C232 35.25 232 43.5 232 52C206.92 52 181.84 52 156 52C156 43.75 156 35.5 156 27Z" fill="#FDFDFB"/>
<path d="M309 78C317.58 78 326.16 78 335 78C335 94.83 335 111.66 335 129C326.42 129 317.84 129 309 129C309 112.17 309 95.34 309 78Z" fill="#070707"/>
<path d="M104 26C120.83 26 137.66 26 155 26C155 34.58 155 43.16 155 52C138.17 52 121.34 52 104 52C104 43.42 104 34.84 104 26Z" fill="#030506"/>
<path d="M79 257C95.83 257 112.66 257 130 257C130 265.25 130 273.5 130 282C113.17 282 96.34 282 79 282C79 273.75 79 265.5 79 257Z" fill="#020202"/>
<path d="M156 129C164.25 129 172.5 129 181 129C181 145.83 181 162.66 181 180C172.75 180 164.5 180 156 180C156 163.17 156 146.34 156 129Z" fill="#030301"/>
<path d="M105 52C121.5 52 138 52 155 52C155 60.25 155 68.5 155 77C138.5 77 122 77 105 77C105 68.75 105 60.5 105 52Z" fill="#F7FAE6"/>
<path d="M310 26C318.25 26 326.5 26 335 26C335 34.58 335 43.16 335 52C326.75 52 318.5 52 310 52C310 43.42 310 34.84 310 26Z" fill="#020505"/>
<path d="M233 231C241.25 231 249.5 231 258 231C258 239.25 258 247.5 258 256C249.75 256 241.5 256 233 256C233 247.75 233 239.5 233 231Z" fill="#050000"/>
<path d="M233 206C241.25 206 249.5 206 258 206C258 214.25 258 222.5 258 231C249.75 231 241.5 231 233 231C233 222.75 233 214.5 233 206Z" fill="#FF2B70"/>
<path d="M207 206C215.25 206 223.5 206 232 206C232 214.25 232 222.5 232 231C223.75 231 215.5 231 207 231C207 222.75 207 214.5 207 206Z" fill="#030000"/>
<path d="M412 180C420.25 180 428.5 180 437 180C437 188.25 437 196.5 437 205C428.75 205 420.5 205 412 205C412 196.75 412 188.5 412 180Z" fill="#020203"/>
<path d="M233 180C241.25 180 249.5 180 258 180C258 188.25 258 196.5 258 205C249.75 205 241.5 205 233 205C233 196.75 233 188.5 233 180Z" fill="#050201"/>
<path d="M130 180C138.25 180 146.5 180 155 180C155 188.25 155 196.5 155 205C146.75 205 138.5 205 130 205C130 196.75 130 188.5 130 180Z" fill="#050300"/>
<path d="M28 180C36.25 180 44.5 180 53 180C53 188.25 53 196.5 53 205C44.75 205 36.5 205 28 205C28 196.75 28 188.5 28 180Z" fill="#030301"/>
<path d="M233 129C241.25 129 249.5 129 258 129C258 137.25 258 145.5 258 154C249.75 154 241.5 154 233 154C233 145.75 233 137.5 233 129Z" fill="#020202"/>
<path d="M130 103C138.25 103 146.5 103 155 103C155 111.25 155 119.5 155 128C146.75 128 138.5 128 130 128C130 119.75 130 111.5 130 103Z" fill="#040401"/>
<path d="M335 52C343.25 52 351.5 52 360 52C360 60.25 360 68.5 360 77C351.75 77 343.5 77 335 77C335 68.75 335 60.5 335 52Z" fill="#010203"/>
<path d="M131 155C134.812 154.971 138.625 154.953 142.438 154.938C143.526 154.929 144.615 154.921 145.736 154.912C146.771 154.909 147.805 154.906 148.871 154.903C149.829 154.897 150.788 154.892 151.775 154.887C154 155 154 155 155 156C155.087 157.781 155.107 159.565 155.098 161.348C155.095 162.32 155.093 163.292 155.09 164.293C155.081 165.537 155.072 166.781 155.062 168.063C155.042 172.002 155.021 175.941 155 180C146.75 180 138.5 180 130 180C130.33 179.34 130.66 178.68 131 178C131.084 176.26 131.107 174.516 131.098 172.774C131.094 171.742 131.091 170.711 131.088 169.649C131.08 168.568 131.071 167.488 131.062 166.375C131.058 165.287 131.053 164.199 131.049 163.078C131.037 160.386 131.021 157.693 131 155Z" fill="#6BFFDF"/>
<path d="M28 155C31.5887 154.98 35.1775 154.959 38.875 154.938C40.0053 154.929 41.1357 154.92 42.3003 154.91C43.1886 154.908 44.0769 154.905 44.9922 154.903C46.359 154.895 46.359 154.895 47.7534 154.887C50 155 50 155 52 156C52 163.59 52 171.18 52 179C44.08 179 36.16 179 28 179C28 171.08 28 163.16 28 155Z" fill="#6BFFDF"/>
<path d="M335 26C335.33 26 335.66 26 336 26C336.33 33.92 336.66 41.84 337 50C344.479 49.9605 344.479 49.9605 351.958 49.9099C353.352 49.9062 353.352 49.9062 354.773 49.9023C355.727 49.8971 356.68 49.8919 357.662 49.8865C360 50 360 50 362 51C362 59.58 362 68.16 362 77C370.25 77 378.5 77 387 77C387 102.08 387 127.16 387 153C395.25 153 403.5 153 412 153C412 153.33 412 153.66 412 154C403.42 154 394.84 154 386 154C386 128.92 386 103.84 386 78C377.75 78 369.5 78 361 78C361 103.08 361 128.16 361 154C360.67 154 360.34 154 360 154C360 128.92 360 103.84 360 78C351.75 78 343.5 78 335 78C335 77.67 335 77.34 335 77C343.25 77 351.5 77 360 77C360 68.75 360 60.5 360 52C351.75 52 343.5 52 335 52C335 43.42 335 34.84 335 26Z" fill="#6B8A91"/>
<path d="M104 52C104.33 52 104.66 52 105 52C105 60.25 105 68.5 105 77C121.5 77 138 77 155 77C155 68.75 155 60.5 155 52C171.83 52 188.66 52 206 52C206 77.41 206 102.82 206 129C205.67 129 205.34 129 205 129C205 103.92 205 78.84 205 53C204.01 53.33 203.02 53.66 202 54C200.573 54.0861 199.142 54.1177 197.712 54.1135C196.851 54.1134 195.991 54.1134 195.104 54.1133C194.179 54.1081 193.254 54.103 192.301 54.0977C191.351 54.0962 190.4 54.0948 189.421 54.0934C186.385 54.0878 183.349 54.0752 180.312 54.0625C178.255 54.0575 176.197 54.0529 174.139 54.0488C169.092 54.0378 164.046 54.0205 159 54C157.542 57.3072 156.733 60.0358 156.586 63.6445C156.547 64.4856 156.509 65.3268 156.469 66.1934C156.422 67.4898 156.422 67.4898 156.375 68.8125C156.336 69.6962 156.298 70.5798 156.258 71.4902C156.164 73.6598 156.081 75.8299 156 78C153.518 79.2409 151.956 79.0844 149.183 79.0217C148.182 79.0016 147.181 78.9815 146.15 78.9608C145.067 78.9338 143.983 78.9068 142.867 78.8789C141.76 78.8553 140.653 78.8317 139.513 78.8074C135.967 78.7306 132.421 78.6466 128.875 78.5625C126.475 78.5093 124.076 78.4566 121.676 78.4043C115.784 78.2759 109.892 78.1377 104 78C104 69.42 104 60.84 104 52Z" fill="#6BFFDF"/>
<path d="M28 154C32.1458 153.971 36.2916 153.953 40.4375 153.938C42.2135 153.925 42.2135 153.925 44.0254 153.912C45.1501 153.909 46.2748 153.906 47.4336 153.903C48.4757 153.897 49.5178 153.892 50.5916 153.887C53 154 53 154 54 155C54.33 162.92 54.66 170.84 55 179C79.42 179 103.84 179 129 179C129 170.75 129 162.5 129 154C137.58 154 146.16 154 155 154C154.67 154.66 154.34 155.32 154 156C146.41 155.67 138.82 155.34 131 155C131 162.59 131 170.18 131 178C131.66 178.33 132.32 178.66 133 179C129.467 180.178 126.282 180.14 122.607 180.13C121.857 180.131 121.107 180.133 120.335 180.135C117.856 180.139 115.377 180.136 112.898 180.133C111.179 180.134 109.459 180.135 107.739 180.136C104.136 180.137 100.534 180.135 96.9307 180.131C92.3022 180.125 87.6738 180.128 83.0454 180.134C79.4956 180.138 75.9458 180.137 72.3961 180.134C70.6888 180.133 68.9814 180.134 67.2741 180.137C64.8941 180.139 62.5143 180.135 60.1343 180.13C59.4226 180.132 58.7109 180.134 57.9776 180.136C53.1143 180.115 53.1143 180.115 52 179C51.9129 177.293 51.893 175.581 51.9023 173.871C51.9048 172.94 51.9073 172.008 51.9099 171.049C51.919 169.857 51.9281 168.666 51.9375 167.438C51.9581 163.663 51.9787 159.889 52 156C44.08 155.67 36.16 155.34 28 155C28 154.67 28 154.34 28 154Z" fill="#F9F798"/>
<path d="M232 180C232.33 180 232.66 180 233 180C234.636 205.326 233.642 230.653 233 256C241.25 256 249.5 256 258 256C258 256.33 258 256.66 258 257C249.42 257 240.84 257 232 257C232 240.17 232 223.34 232 206C223.75 206 215.5 206 207 206C207 205.67 207 205.34 207 205C215.25 205 223.5 205 232 205C232 196.75 232 188.5 232 180Z" fill="#6B4E0B"/>
<path d="M158.98 51.8799C159.849 51.8821 160.717 51.8843 161.612 51.8866C162.593 51.8867 163.573 51.8868 164.584 51.8868C165.651 51.892 166.717 51.8972 167.816 51.9025C168.903 51.9039 169.989 51.9053 171.108 51.9068C174.593 51.9124 178.078 51.9249 181.563 51.9376C183.919 51.9426 186.275 51.9472 188.631 51.9513C194.421 51.9624 200.21 51.9791 206 52.0001C205.67 52.6601 205.34 53.3201 205 54.0001C189.82 54.0001 174.64 54.0001 159 54.0001C158.34 55.6501 157.68 57.3001 157 59.0001C156.67 59.0001 156.34 59.0001 156 59.0001C155.957 57.0006 155.959 54.9997 156 53.0001C157 52.0001 157 52.0001 158.98 51.8799Z" fill="#6BFFDF"/>
</svg>
