<svg width="440" height="313" viewBox="0 0 440 313" fill="none" xmlns="http://www.w3.org/2000/svg">
<path d="M161.96 0.918653C163.904 0.914423 163.904 0.914423 165.886 0.910108C167.336 0.912053 168.785 0.914101 170.234 0.916242C171.75 0.914888 173.266 0.913108 174.782 0.910932C178.91 0.906357 183.038 0.908147 187.166 0.911311C191.476 0.913835 195.786 0.911497 200.097 0.909925C207.337 0.908103 214.576 0.91051 221.816 0.915266C230.199 0.920708 238.581 0.918946 246.964 0.913439C254.148 0.908908 261.332 0.908257 268.516 0.910878C272.812 0.912441 277.108 0.912634 281.405 0.909341C285.443 0.906463 289.481 0.908438 293.519 0.914236C295.006 0.915563 296.492 0.915169 297.978 0.912973C299.999 0.910262 302.02 0.914256 304.04 0.918653C305.74 0.919219 305.74 0.919219 307.475 0.919796C310 1.04564 310 1.04564 311 2.04564C311.087 3.89933 311.107 5.75631 311.098 7.61204C311.095 8.62468 311.093 9.63732 311.09 10.6806C311.076 12.6248 311.076 12.6248 311.062 14.6081C311.042 18.7125 311.021 22.8169 311 27.0456C319.58 27.0456 328.16 27.0456 337 27.0456C337.33 35.2956 337.66 43.5456 338 52.0456C346.25 52.3756 354.5 52.7056 363 53.0456C363 61.6256 363 70.2056 363 79.0456C371.25 79.0456 379.5 79.0456 388 79.0456C388 104.456 388 129.866 388 156.046C396.58 156.046 405.16 156.046 414 156.046C414 164.626 414 173.206 414 182.046C422.58 182.046 431.16 182.046 440 182.046C440 190.956 440 199.866 440 209.046C431.42 209.046 422.84 209.046 414 209.046C414 225.876 414 242.706 414 260.046C405.75 260.376 397.5 260.706 389 261.046C388.67 269.296 388.34 277.546 388 286.046C345.43 286.046 302.86 286.046 259 286.046C259 294.626 259 303.206 259 312.046C216.1 312.046 173.2 312.046 129 312.046C129 303.466 129 294.886 129 286.046C95.01 286.046 61.02 286.046 26 286.046C26 277.466 26 268.886 26 260.046C17.42 260.046 8.84 260.046 0 260.046C0 234.306 0 208.566 0 182.046C8.58 182.046 17.16 182.046 26 182.046C26 156.636 26 131.226 26 105.046C34.58 105.046 43.16 105.046 52 105.046C52 96.4656 52 87.8856 52 79.0456C60.58 79.0456 69.16 79.0456 78 79.0456C78 70.4656 78 61.8856 78 53.0456C86.25 53.0456 94.5 53.0456 103 53.0456C102.96 44.8631 102.96 44.8631 102.91 36.6806C102.907 35.668 102.905 34.6554 102.902 33.612C102.897 32.5699 102.892 31.5278 102.886 30.4541C103 28.0456 103 28.0456 104 27.0456C105.596 26.9523 107.196 26.9282 108.795 26.9321C109.816 26.9322 110.837 26.9323 111.889 26.9323C112.999 26.9375 114.11 26.9427 115.254 26.948C116.95 26.9501 116.95 26.9501 118.68 26.9523C122.307 26.9579 125.935 26.9704 129.562 26.9831C132.015 26.9881 134.467 26.9927 136.92 26.9968C142.947 27.0079 148.973 27.0246 155 27.0456C154.995 26.2935 154.99 25.5415 154.984 24.7666C154.963 21.3804 154.95 17.9943 154.938 14.6081C154.929 13.4241 154.921 12.2401 154.912 11.0202C154.909 9.89554 154.906 8.77083 154.902 7.61204C154.897 6.56992 154.892 5.52779 154.886 4.45408C155.107 -0.216275 157.909 0.92 161.96 0.918653Z" fill="#6BFFDF"/>
<path d="M161.96 0.918823C163.904 0.914593 163.904 0.914593 165.886 0.910278C167.336 0.912223 168.785 0.914271 170.234 0.916412C171.75 0.915058 173.266 0.913278 174.782 0.911102C178.91 0.906527 183.038 0.908317 187.166 0.911481C191.476 0.914005 195.786 0.911667 200.097 0.910095C207.337 0.908273 214.576 0.91068 221.816 0.915436C230.199 0.920878 238.581 0.919116 246.964 0.913609C254.148 0.909078 261.332 0.908427 268.516 0.911048C272.812 0.912611 277.108 0.912804 281.405 0.909511C285.443 0.906633 289.481 0.908608 293.519 0.914406C295.006 0.915733 296.492 0.915339 297.978 0.913143C299.999 0.910432 302.02 0.914426 304.04 0.918823C305.74 0.919389 305.74 0.919389 307.475 0.919966C310 1.04581 310 1.04581 311 2.04581C311.087 3.8995 311.107 5.75648 311.098 7.61221C311.095 8.62485 311.093 9.63749 311.09 10.6808C311.081 11.9769 311.072 13.273 311.062 14.6083C311.042 18.7127 311.021 22.8171 311 27.0458C319.58 27.0458 328.16 27.0458 337 27.0458C337.33 35.2958 337.66 43.5458 338 52.0458C346.25 52.3758 354.5 52.7058 363 53.0458C363 61.6258 363 70.2058 363 79.0458C371.25 79.0458 379.5 79.0458 388 79.0458C388 104.456 388 129.866 388 156.046C396.58 156.046 405.16 156.046 414 156.046C414 164.626 414 173.206 414 182.046C422.58 182.046 431.16 182.046 440 182.046C440 190.956 440 199.866 440 209.046C431.42 209.046 422.84 209.046 414 209.046C414 225.876 414 242.706 414 260.046C405.75 260.376 397.5 260.706 389 261.046C388.67 269.296 388.34 277.546 388 286.046C345.43 286.046 302.86 286.046 259 286.046C259 277.466 259 268.886 259 260.046C250.42 260.046 241.84 260.046 233 260.046C233 251.466 233 242.886 233 234.046C224.42 234.046 215.84 234.046 207 234.046C207 225.466 207 216.886 207 208.046C215.58 208.046 224.16 208.046 233 208.046C233 199.796 233 191.546 233 183.046C241.58 183.046 250.16 183.046 259 183.046C259 174.466 259 165.886 259 157.046C292.99 157.046 326.98 157.046 362 157.046C362 131.306 362 105.566 362 79.0458C353.75 79.0458 345.5 79.0458 337 79.0458C337 70.4658 337 61.8858 337 53.0458C328.09 53.0458 319.18 53.0458 310 53.0458C310 44.7958 310 36.5458 310 28.0458C293.17 28.0458 276.34 28.0458 259 28.0458C259 36.2958 259 44.5458 259 53.0458C250.42 53.0458 241.84 53.0458 233 53.0458C233 44.4658 233 35.8858 233 27.0458C207.26 27.0458 181.52 27.0458 155 27.0458C155 0.921139 155 0.921138 161.96 0.918823Z" fill="#291006"/>
<path d="M259 28.0459C275.83 28.0459 292.66 28.0459 310 28.0459C310 36.2959 310 44.5459 310 53.0459C318.91 53.0459 327.82 53.0459 337 53.0459C337 61.6259 337 70.2059 337 79.0459C345.25 79.0459 353.5 79.0459 362 79.0459C362 104.786 362 130.526 362 157.046C328.01 157.046 294.02 157.046 259 157.046C259 148.466 259 139.886 259 131.046C250.42 131.046 241.84 131.046 233 131.046C233 105.636 233 80.2259 233 54.0459C241.58 54.0459 250.16 54.0459 259 54.0459C259 45.4659 259 36.8859 259 28.0459Z" fill="#F7F7F7"/>
<path d="M161.96 0.918823C163.904 0.914593 163.904 0.914593 165.886 0.910278C167.336 0.912223 168.785 0.914271 170.234 0.916412C171.75 0.915058 173.266 0.913278 174.782 0.911102C178.91 0.906527 183.038 0.908317 187.166 0.911481C191.476 0.914005 195.786 0.911667 200.097 0.910095C207.337 0.908273 214.576 0.91068 221.816 0.915436C230.199 0.920878 238.581 0.919116 246.964 0.913609C254.148 0.909078 261.332 0.908427 268.516 0.911048C272.812 0.912611 277.108 0.912804 281.405 0.909511C285.443 0.906633 289.481 0.908608 293.519 0.914406C295.006 0.915733 296.492 0.915339 297.978 0.913143C299.999 0.910432 302.02 0.914426 304.04 0.918823C305.74 0.919389 305.74 0.919389 307.475 0.919966C310 1.04581 310 1.04581 311 2.04581C311.087 3.8995 311.107 5.75648 311.098 7.61221C311.095 8.62485 311.093 9.63749 311.09 10.6808C311.081 11.9769 311.072 13.273 311.062 14.6083C311.042 18.7127 311.021 22.8171 311 27.0458C319.58 27.0458 328.16 27.0458 337 27.0458C337.33 35.2958 337.66 43.5458 338 52.0458C346.25 52.3758 354.5 52.7058 363 53.0458C363 61.6258 363 70.2058 363 79.0458C371.25 79.0458 379.5 79.0458 388 79.0458C388 104.456 388 129.866 388 156.046C396.58 156.046 405.16 156.046 414 156.046C414 164.626 414 173.206 414 182.046C362.85 182.046 311.7 182.046 259 182.046C259 173.796 259 165.546 259 157.046C292.99 157.046 326.98 157.046 362 157.046C362 131.306 362 105.566 362 79.0458C353.75 79.0458 345.5 79.0458 337 79.0458C337 70.4658 337 61.8858 337 53.0458C328.09 53.0458 319.18 53.0458 310 53.0458C310 44.7958 310 36.5458 310 28.0458C293.17 28.0458 276.34 28.0458 259 28.0458C259 36.2958 259 44.5458 259 53.0458C250.42 53.0458 241.84 53.0458 233 53.0458C233 44.4658 233 35.8858 233 27.0458C207.26 27.0458 181.52 27.0458 155 27.0458C155 0.921139 155 0.921138 161.96 0.918823Z" fill="#000101"/>
<path d="M259 209.046C310.15 209.046 361.3 209.046 414 209.046C414 225.876 414 242.706 414 260.046C401.625 260.541 401.625 260.541 389 261.046C388.67 269.296 388.34 277.546 388 286.046C345.43 286.046 302.86 286.046 259 286.046C259 277.466 259 268.886 259 260.046C301.57 260.046 344.14 260.046 388 260.046C388 251.466 388 242.886 388 234.046C345.43 234.046 302.86 234.046 259 234.046C259 225.796 259 217.546 259 209.046Z" fill="#020001"/>
<path d="M52 183.046C77.41 183.046 102.82 183.046 129 183.046C129 199.876 129 216.706 129 234.046C112.5 234.376 96 234.706 79 235.046C78.67 243.296 78.34 251.546 78 260.046C60.84 260.046 43.68 260.046 26 260.046C26 242.886 26 225.726 26 208.046C38.87 208.541 38.87 208.541 52 209.046C52 200.466 52 191.886 52 183.046Z" fill="#F7FAE6"/>
<path d="M26 105.046C34.58 105.046 43.16 105.046 52 105.046C52 122.206 52 139.366 52 157.046C85.99 157.046 119.98 157.046 155 157.046C155 165.296 155 173.546 155 182.046C112.43 182.046 69.86 182.046 26 182.046C26 156.636 26 131.226 26 105.046Z" fill="#000001"/>
<path d="M259 183.046C310.15 183.046 361.3 183.046 414 183.046C414 191.296 414 199.546 414 208.046C362.85 208.046 311.7 208.046 259 208.046C259 199.796 259 191.546 259 183.046Z" fill="#FF2B70"/>
<path d="M129 286.046C171.9 286.046 214.8 286.046 259 286.046C259 294.626 259 303.206 259 312.046C216.1 312.046 173.2 312.046 129 312.046C129 303.466 129 294.886 129 286.046Z" fill="#010001"/>
<path d="M259 234.046C301.57 234.046 344.14 234.046 388 234.046C388 242.626 388 251.206 388 260.046C345.43 260.046 302.86 260.046 259 260.046C259 251.466 259 242.886 259 234.046Z" fill="#FF2B70"/>
<path d="M104 235.046C112.25 235.046 120.5 235.046 129 235.046C129 251.876 129 268.706 129 286.046C95.01 286.046 61.02 286.046 26 286.046C26 277.466 26 268.886 26 260.046C51.74 260.046 77.48 260.046 104 260.046C104 251.796 104 243.546 104 235.046Z" fill="#010102"/>
<path d="M0 182.046C8.58 182.046 17.16 182.046 26 182.046C26 207.786 26 233.526 26 260.046C17.42 260.046 8.84 260.046 0 260.046C0 234.306 0 208.566 0 182.046Z" fill="#000101"/>
<path d="M106.056 26.9258C107.412 26.9291 107.412 26.9291 108.795 26.9325C109.816 26.9326 110.837 26.9327 111.889 26.9327C112.999 26.9379 114.11 26.9431 115.254 26.9484C116.95 26.9505 116.95 26.9505 118.68 26.9527C122.307 26.9583 125.935 26.9708 129.562 26.9835C132.015 26.9885 134.467 26.9931 136.92 26.9972C142.947 27.0074 148.973 27.027 155 27.046C155 35.626 155 44.206 155 53.046C138.17 53.046 121.34 53.046 104 53.046C104 61.626 104 70.206 104 79.046C95.42 79.046 86.84 79.046 78 79.046C78 70.466 78 61.886 78 53.046C86.25 53.046 94.5 53.046 103 53.046C102.96 44.8635 102.96 44.8635 102.91 36.681C102.907 35.6684 102.905 34.6558 102.902 33.6124C102.897 32.5703 102.892 31.5282 102.886 30.4545C103.029 27.4386 103.053 27.1014 106.056 26.9258Z" fill="#010202"/>
<path d="M207 54.0459C215.58 54.0459 224.16 54.0459 233 54.0459C233 79.4559 233 104.866 233 131.046C224.42 131.046 215.84 131.046 207 131.046C207 105.636 207 80.2259 207 54.0459Z" fill="#020201"/>
<path d="M156 28.0459C181.41 28.0459 206.82 28.0459 233 28.0459C233 36.2959 233 44.5459 233 53.0459C207.59 53.0459 182.18 53.0459 156 53.0459C156 44.7959 156 36.5459 156 28.0459Z" fill="#F7FAE7"/>
<path d="M310 79.0459C318.58 79.0459 327.16 79.0459 336 79.0459C336 96.2059 336 113.366 336 131.046C327.42 131.046 318.84 131.046 310 131.046C310 113.886 310 96.7259 310 79.0459Z" fill="#060606"/>
<path d="M104 54.0459C120.83 54.0459 137.66 54.0459 155 54.0459C155 62.2959 155 70.5459 155 79.0459C138.17 79.0459 121.34 79.0459 104 79.0459C104 70.7959 104 62.5459 104 54.0459Z" fill="#F8FBE6"/>
<path d="M259 27.0459C284.74 27.0459 310.48 27.0459 337 27.0459C337.495 39.4209 337.495 39.4209 338 52.0459C345.59 52.3759 353.18 52.7059 361 53.0459C361 53.3759 361 53.7059 361 54.0459C343.967 54.1982 327.019 53.755 310 53.0459C310 44.7959 310 36.5459 310 28.0459C293.17 28.0459 276.34 28.0459 259 28.0459C259 27.7159 259 27.3859 259 27.0459Z" fill="#0A0C0D"/>
<path d="M233 234.046C241.58 234.046 250.16 234.046 259 234.046C259 242.626 259 251.206 259 260.046C250.42 260.046 241.84 260.046 233 260.046C233 251.466 233 242.886 233 234.046Z" fill="#090101"/>
<path d="M233 131.046C241.58 131.046 250.16 131.046 259 131.046C259 139.626 259 148.206 259 157.046C250.42 157.046 241.84 157.046 233 157.046C233 148.466 233 139.886 233 131.046Z" fill="#040402"/>
<path d="M52 79.0459C60.58 79.0459 69.16 79.0459 78 79.0459C78 87.6259 78 96.2059 78 105.046C69.42 105.046 60.84 105.046 52 105.046C52 96.4659 52 87.8859 52 79.0459Z" fill="#020201"/>
<path d="M81.4087 233.933C82.9719 233.94 82.9719 233.94 84.5667 233.948C85.5793 233.951 86.5919 233.953 87.6353 233.956C88.9313 233.965 90.2274 233.974 91.5627 233.984C97.7193 234.015 97.7193 234.015 104 234.046C104 242.626 104 251.206 104 260.046C95.4202 260.046 86.8402 260.046 78.0002 260.046C77.9796 255.942 77.959 251.837 77.9377 247.609C77.9286 246.313 77.9195 245.016 77.9102 243.681C77.9077 242.669 77.9052 241.656 77.9026 240.613C77.8974 239.57 77.8921 238.528 77.8867 237.455C78.0399 234.206 78.1599 234.086 81.4087 233.933Z" fill="#6BFFDF"/>
<path d="M26.0002 183.046C34.5802 183.046 43.1602 183.046 52.0002 183.046C52.0002 191.626 52.0002 200.206 52.0002 209.046C47.8958 209.067 43.7914 209.087 39.5627 209.108C37.6186 209.122 37.6186 209.122 35.6352 209.136C34.1162 209.14 34.1162 209.14 32.5666 209.144C31.0034 209.151 31.0034 209.151 29.4086 209.159C27.0002 209.046 27.0002 209.046 26.0002 208.046C25.9128 206.192 25.8932 204.335 25.9025 202.479C25.905 201.467 25.9075 200.454 25.9101 199.411C25.9192 198.115 25.9283 196.819 25.9377 195.483C25.9583 191.379 25.9789 187.275 26.0002 183.046Z" fill="#6BFFDF"/>
<path d="M207 209.046C215.58 209.046 224.16 209.046 233 209.046C233 217.296 233 225.546 233 234.046C224.42 234.046 215.84 234.046 207 234.046C207 225.796 207 217.546 207 209.046Z" fill="#040100"/>
<path d="M129 183.046C137.58 183.046 146.16 183.046 155 183.046C155 191.296 155 199.546 155 208.046C146.42 208.046 137.84 208.046 129 208.046C129 199.796 129 191.546 129 183.046Z" fill="#6BFFDF"/>
<path d="M233 183.046C241.58 183.046 250.16 183.046 259 183.046C259 191.296 259 199.546 259 208.046C250.42 208.046 241.84 208.046 233 208.046C233 199.796 233 191.546 233 183.046Z" fill="#050101"/>
<path d="M233 209.046C241.25 209.046 249.5 209.046 258 209.046C258 217.296 258 225.546 258 234.046C249.75 234.046 241.5 234.046 233 234.046C233 225.796 233 217.546 233 209.046Z" fill="#FF2B70"/>
<path d="M130 209.046C138.25 209.046 146.5 209.046 155 209.046C155 217.296 155 225.546 155 234.046C146.75 234.046 138.5 234.046 130 234.046C130 225.796 130 217.546 130 209.046Z" fill="#020000"/>
<path d="M156 183.046C164.25 183.046 172.5 183.046 181 183.046C181 191.296 181 199.546 181 208.046C172.75 208.046 164.5 208.046 156 208.046C156 199.796 156 191.546 156 183.046Z" fill="#020000"/>
<path d="M155 157.046C155.33 157.046 155.66 157.046 156 157.046C156 165.296 156 173.546 156 182.046C164.25 182.046 172.5 182.046 181 182.046C181 182.376 181 182.706 181 183.046C172.75 183.046 164.5 183.046 156 183.046C156 191.296 156 199.546 156 208.046C164.25 208.046 172.5 208.046 181 208.046C181 208.376 181 208.706 181 209.046C172.75 209.046 164.5 209.046 156 209.046C156 217.296 156 225.546 156 234.046C155.67 234.046 155.34 234.046 155 234.046C155 225.796 155 217.546 155 209.046C146.75 209.046 138.5 209.046 130 209.046C130 234.456 130 259.866 130 286.046C129.67 286.046 129.34 286.046 129 286.046C129 269.216 129 252.386 129 235.046C120.75 235.046 112.5 235.046 104 235.046C104 234.716 104 234.386 104 234.046C112.25 234.046 120.5 234.046 129 234.046C129 225.466 129 216.886 129 208.046C137.58 208.046 146.16 208.046 155 208.046C155 199.796 155 191.546 155 183.046C112.43 183.046 69.86 183.046 26 183.046C26 182.716 26 182.386 26 182.046C68.57 182.046 111.14 182.046 155 182.046C155 173.796 155 165.546 155 157.046Z" fill="#6BFFDF"/>
<path d="M155 27.0459C180.74 27.0459 206.48 27.0459 233 27.0459C233 27.3759 233 27.7059 233 28.0459C207.59 28.0459 182.18 28.0459 156 28.0459C156 36.2959 156 44.5459 156 53.0459C189.99 53.0459 223.98 53.0459 259 53.0459C259 53.3759 259 53.7059 259 54.0459C257.127 54.058 257.127 54.058 255.217 54.0704C243.474 54.1478 231.731 54.2355 219.988 54.3334C213.951 54.3835 207.913 54.4298 201.875 54.4678C196.053 54.5045 190.23 54.5509 184.408 54.604C182.182 54.6225 179.957 54.6376 177.731 54.6492C174.623 54.666 171.515 54.695 168.407 54.7271C167.479 54.7292 166.551 54.7314 165.595 54.7336C164.329 54.7503 164.329 54.7503 163.037 54.7674C161.934 54.7757 161.934 54.7757 160.808 54.7842C158.749 54.8982 158.749 54.8982 157 57.0459C156.629 59.3704 156.629 59.3704 156.586 62.0537C156.547 63.0398 156.509 64.026 156.469 65.042C156.422 66.5908 156.422 66.5908 156.375 68.1709C156.336 69.2112 156.298 70.2514 156.258 71.3232C156.163 73.8973 156.078 76.4713 156 79.0459C155.67 79.0459 155.34 79.0459 155 79.0459C155 70.7959 155 62.5459 155 54.0459C138.17 54.0459 121.34 54.0459 104 54.0459C104 53.7159 104 53.3859 104 53.0459C120.83 53.0459 137.66 53.0459 155 53.0459C155 44.4659 155 35.8859 155 27.0459Z" fill="#A1A076"/>
<path d="M130 234.046C138.25 234.046 146.5 234.046 155 234.046C155 234.376 155 234.706 155 235.046C154.374 235.066 153.749 235.086 153.104 235.106C150.277 235.201 147.451 235.311 144.625 235.421C143.64 235.452 142.655 235.483 141.641 235.515C140.7 235.553 139.759 235.592 138.789 235.632C137.485 235.679 137.485 235.679 136.155 235.727C133.79 235.858 133.79 235.858 132 238.046C132 253.226 132 268.406 132 284.046C194.37 284.541 194.37 284.541 258 285.046C258 277.126 258 269.206 258 261.046C250.08 261.046 242.16 261.046 234 261.046C234 260.716 234 260.386 234 260.046C242.25 260.046 250.5 260.046 259 260.046C259 268.626 259 277.206 259 286.046C216.43 286.046 173.86 286.046 130 286.046C130 268.886 130 251.726 130 234.046Z" fill="#6BFFDF"/>
<path d="M130 234.046C138.25 234.046 146.5 234.046 155 234.046C155 234.376 155 234.706 155 235.046C154.374 235.066 153.749 235.086 153.104 235.106C150.277 235.201 147.451 235.311 144.625 235.421C143.64 235.452 142.655 235.483 141.641 235.515C140.7 235.553 139.759 235.592 138.789 235.632C137.485 235.679 137.485 235.679 136.155 235.727C133.79 235.858 133.79 235.858 132 238.046C131.708 240.147 131.708 240.147 131.773 242.587C131.773 243.528 131.773 244.469 131.773 245.438C131.784 246.456 131.794 247.474 131.805 248.522C131.808 249.563 131.81 250.603 131.813 251.675C131.824 255.007 131.85 258.339 131.875 261.671C131.885 263.926 131.894 266.181 131.902 268.437C131.924 273.973 131.958 279.509 132 285.046C131.34 285.046 130.68 285.046 130 285.046C130 268.216 130 251.386 130 234.046Z" fill="#6BFFDF"/>
</svg>
