<svg width="3326" height="1809" viewBox="0 0 3326 1809" fill="none" xmlns="http://www.w3.org/2000/svg">
<path d="M2663.15 1110.81C2663.15 1110.81 2839.05 879.482 3292.35 1244.22C3313.64 1261.36 3313.93 1293.67 3292.81 1311.03C3179.39 1404.25 2848.24 1645.23 2665.72 1448.73L2663.15 1110.81Z" fill="#E81818"/>
<path d="M2662.53 1159.67C2662.53 1159.67 2787.35 995.506 3109.16 1255.43C3123.25 1266.81 3123.42 1288.26 3109.46 1299.79C3030.98 1364.62 2794.34 1538.54 2664.34 1398.59L2662.53 1159.67Z" fill="#E7A900"/>
<path d="M2650.14 1198.74C2650.14 1198.74 2734.36 1087.97 2951.51 1263.36C2961.02 1271.03 2961.13 1285.51 2951.71 1293.29C2898.75 1337.03 2739.08 1454.39 2651.36 1359.96L2650.14 1198.74Z" fill="#FFFD01"/>
<path d="M2842.44 1540.86C2836.11 1540.86 2829.86 1540.67 2823.71 1540.3C2755.96 1536.15 2698.59 1509.26 2653.19 1460.38C2650.28 1457.24 2648.65 1453.14 2648.61 1448.86L2646.05 1110.94C2646.02 1107.16 2647.25 1103.47 2649.54 1100.46C2651.51 1097.87 2699.06 1036.79 2805.53 1023.78C2866.69 1016.31 2935.01 1026.28 3008.59 1053.41C3099.1 1086.78 3198.18 1146.5 3303.07 1230.9C3317.29 1242.34 3325.5 1259.34 3325.59 1277.56C3325.69 1295.7 3317.7 1312.72 3303.67 1324.25C3247.04 1370.8 3133.77 1456.1 3011.47 1504.44C2950.21 1528.64 2893.46 1540.86 2842.44 1540.86ZM2682.77 1441.83C2755.81 1516.3 2862.12 1526.66 2998.89 1472.62C3116.85 1426 3226.87 1343.09 3281.95 1297.82C3287.98 1292.86 3291.42 1285.54 3291.38 1277.73C3291.34 1269.86 3287.78 1262.51 3281.62 1257.55C3052.01 1072.8 2898.24 1046.92 2809.68 1057.74C2732.69 1067.14 2691.94 1104.63 2680.31 1117.11L2682.77 1441.83Z" fill="#371A45"/>
<path d="M2683.8 803.138C2642.08 828.32 2445.05 945.042 2448.52 1069.46L2240.35 976.132C2240.99 970.062 2242.01 963.716 2243.41 957.222L2243.41 957.191C2263.76 863.903 2367.66 732.854 2675.34 792.74C2677.62 793.172 2679.92 793.636 2682.24 794.093C2686.63 794.966 2687.64 800.816 2683.8 803.138Z" fill="#E62058"/>
<g opacity="0.5">
<path d="M2683.81 803.148C2678.3 806.486 2670.1 811.392 2659.96 817.746C2378.55 772.223 2279.66 894.273 2258.35 984.232L2240.33 976.149C2240.98 970.077 2242.02 963.722 2243.43 957.207H2243.39C2263.78 863.911 2367.65 732.854 2675.33 792.733C2677.62 793.175 2679.91 793.618 2682.24 794.1C2686.63 794.984 2687.63 800.815 2683.81 803.148Z" fill="white"/>
</g>
<g opacity="0.25">
<path d="M2678.8 793.138C2637.08 818.32 2440.05 935.042 2443.52 1059.46L2235.35 966.132C2235.99 960.062 2237.01 953.716 2238.41 947.222L2235.77 955.971C2250.93 948.958 2275.31 941.408 2298.59 943.815C2384.15 952.665 2429.05 950.981 2470.73 906.731C2522.97 851.256 2621.18 792.55 2670.34 782.74C2672.62 783.172 2674.92 783.636 2677.25 784.093C2681.63 784.966 2682.64 790.816 2678.8 793.138Z" fill="#371A45"/>
</g>
<path d="M2448.5 1085.56C2439.83 1085.56 2432.68 1078.65 2432.43 1069.92C2430.86 1013.06 2465.73 952.279 2536.07 889.26C2576.98 852.607 2621.5 822.851 2650.66 804.567C2513.6 781.3 2404.71 795.96 2334.59 847.4C2271.56 893.642 2258.87 954.014 2256.35 977.823C2255.41 986.657 2247.49 993.058 2238.65 992.121C2229.82 991.183 2223.42 983.262 2224.35 974.427C2227.33 946.367 2242.18 875.291 2315.56 821.459C2353.93 793.313 2402.07 774.842 2458.63 766.56C2523.47 757.066 2599.78 761.021 2685.42 778.314C2693.98 780.042 2700.47 786.722 2701.97 795.334C2703.46 803.94 2699.6 812.411 2692.13 816.915L2690.15 818.107C2668.08 831.398 2609.46 866.703 2557.54 913.221C2494.56 969.638 2463.29 1022.06 2464.59 1069.03C2464.84 1077.91 2457.84 1085.3 2448.96 1085.55C2448.81 1085.56 2448.66 1085.56 2448.5 1085.56Z" fill="#371A45"/>
<path d="M2433.33 1557.61L2542.62 1537.83C2592.06 1528.88 2631.56 1497.29 2645.46 1455.59C2686.85 1331.4 2687.79 1199.56 2648.19 1074.35C2634.89 1032.31 2595.85 999.739 2546.54 989.553L2437.56 967.039L2433.33 1557.61Z" fill="#22A7F0"/>
<g opacity="0.5">
<path d="M2648.19 1074.35C2634.89 1032.31 2595.85 999.738 2546.54 989.552L2437.56 967.038L2437.29 1004.89L2532.47 1024.55C2581.77 1034.74 2620.81 1067.31 2634.12 1109.35C2672.25 1229.91 2672.68 1356.59 2635.72 1476.7C2639.7 1470.02 2643 1462.97 2645.46 1455.58C2686.85 1331.4 2687.79 1199.56 2648.19 1074.35Z" fill="white"/>
</g>
<g opacity="0.3">
<path d="M2532.78 1497.82C2582.21 1488.89 2621.74 1457.28 2635.61 1415.58C2652.01 1366.37 2661.99 1315.96 2665.69 1265.22C2665.75 1265.18 2665.8 1265.13 2665.86 1265.09C2636.39 1285.72 2594.65 1300.41 2546.72 1305.93L2435.01 1318.8L2433.59 1515.78L2532.78 1497.82Z" fill="#371A45"/>
</g>
<path d="M2234.44 1564.46C2242.49 1658.22 2336.46 1821.45 2672.54 1760.58C2676.94 1759.78 2678.09 1753.95 2674.3 1751.56C2633.07 1725.55 2438.5 1599.31 2444.44 1474.98" fill="#D25658"/>
<path d="M2672.53 1760.6C2676.94 1759.77 2678.07 1753.95 2674.28 1751.56C2653.18 1738.23 2591.83 1698.61 2537.81 1646.4C2486.74 1597.1 2442.23 1536.51 2444.41 1476.31C2444.41 1475.88 2444.46 1475.41 2444.46 1474.98L2443.18 1475.52L2234.46 1564.44C2236.72 1590.76 2245.74 1622.56 2265.03 1653.33C2314.31 1732.2 2430.76 1804.36 2672.53 1760.6Z" fill="#E62058"/>
<g opacity="0.35">
<path d="M2537.81 1646.4C2486.74 1597.1 2442.23 1536.51 2444.41 1476.31C2444 1476.06 2443.6 1475.77 2443.18 1475.52L2234.46 1564.44C2236.72 1590.76 2245.74 1622.56 2265.03 1653.33C2331.97 1676.82 2421.45 1681.12 2537.81 1646.4Z" fill="#371A45"/>
</g>
<path d="M2536.49 1789.9C2506 1789.9 2477.35 1787.62 2450.65 1783.06C2394.64 1773.5 2347.01 1753.94 2309.06 1724.91C2280.56 1703.1 2258.02 1676.42 2242.07 1645.6C2225.42 1613.42 2220.02 1584.46 2218.42 1565.83C2217.66 1556.98 2224.22 1549.19 2233.07 1548.43C2241.92 1547.67 2249.71 1554.23 2250.47 1563.08C2252.12 1582.29 2262.63 1648.89 2328.61 1699.36C2397.99 1752.43 2505.76 1769.57 2641.5 1749.4C2608.51 1727.26 2567.9 1697.2 2530.61 1661.81C2460.02 1594.82 2425.63 1531.7 2428.38 1474.21C2428.8 1465.34 2436.34 1458.5 2445.21 1458.91C2454.09 1459.34 2460.94 1466.88 2460.51 1475.75C2458.26 1522.79 2490.16 1579.06 2552.76 1638.47C2597.94 1681.36 2648.46 1716.24 2682.88 1737.95C2690.26 1742.61 2693.95 1751.15 2692.29 1759.73C2690.62 1768.31 2683.99 1774.85 2675.4 1776.41C2625.79 1785.4 2579.34 1789.9 2536.49 1789.9Z" fill="#371A45"/>
<path d="M2474.72 1077.92C2514.83 1237.5 2501.04 1404.14 2433.31 1557.61C2433.31 1557.61 2035.5 1841.23 1250.01 1784.92C327.877 1718.82 0.443359 1231.82 0.443359 1231.82C0.443359 1231.82 284.923 824.62 1053.2 727.634C1117.89 719.434 1186.05 713.485 1257.71 710.155C1498.53 698.955 1702.51 718.695 1869.6 751.509C2248.11 825.816 2437.57 967.017 2437.57 967.017C2452.9 1003.42 2465.3 1040.46 2474.72 1077.92Z" fill="white"/>
<g opacity="0.3">
<path d="M1249.99 1784.91C2035.49 1841.23 2433.35 1557.62 2433.35 1557.62C2465.75 1484.17 2485.77 1407.68 2493.48 1330.38C2505.66 1208.35 2487.04 1084.31 2437.58 967.012C2437.58 967.012 2336.64 891.8 2134.96 822.247C2201.42 856.555 2326.61 921.138 2386.13 990.304C2455.52 1070.93 2445.87 1180.04 2290.61 1244.71C2289.89 1245 2239.25 1267.88 2239.71 1268.51C2348.65 1416.3 2198.14 1536.37 2028.36 1599.86C1720.93 1714.83 1363.21 1733.47 1062.03 1652.77C969.148 1627.88 772 1559.2 721.422 1436.93C614.327 1178.03 692.812 915.443 636.692 913.832C550.09 911.347 508.757 1601.25 444.709 1578.6C637.745 1674.82 901.364 1759.9 1249.99 1784.91Z" fill="#371A45"/>
</g>
<path d="M659.968 1668.55C591.734 1385.29 593.823 1093.25 666.099 811.694C321.359 921.81 128.076 1091.01 46.7816 1177.24C17.7186 1208.07 17.2766 1255.92 45.7306 1287.32C125.622 1375.46 316.492 1549.69 659.968 1668.55Z" fill="#E62058"/>
<g opacity="0.5">
<path d="M76.7826 1212.24C154.722 1129.56 335.695 970.664 654.29 860.649C658 844.299 661.919 827.976 666.1 811.693C321.36 921.808 128.076 1091.01 46.7816 1177.24C17.7176 1208.07 17.2776 1255.92 45.7306 1287.32C51.7606 1293.97 58.5056 1301.17 65.8186 1308.74C47.9676 1278.28 51.6496 1238.9 76.7826 1212.24Z" fill="white"/>
</g>
<g opacity="0.3">
<path d="M659.996 1668.57C591.725 1385.29 593.806 1093.26 666.134 811.688C657.372 814.466 558.415 1094.34 579.232 1446.33C583.606 1520.29 418.029 1464.78 343.479 1426.96C203.061 1355.72 90.7547 1277.31 16.3157 1211.56C16.2087 1211.69 16.1016 1211.82 15.9956 1211.95C6.39765 1223.57 6.25566 1240.32 15.6477 1252.11C68.2217 1318.06 261.294 1530.59 659.996 1668.57Z" fill="#371A45"/>
</g>
<path d="M682.492 1693.36L654.708 1683.75C501.145 1630.61 361.868 1560.98 240.747 1476.8C138.154 1405.5 69.8212 1338.32 30.5632 1294.51C14.6432 1276.75 5.96327 1254.55 6.12327 1232.01C6.28327 1209.44 15.2962 1187.43 31.5002 1170.03C71.3883 1127.2 140.685 1061.71 244.299 992.964C366.622 911.805 506.889 845.661 661.205 796.37L688.912 787.52L681.68 815.693C609.584 1096.55 607.54 1382.22 675.606 1664.78L682.492 1693.36ZM643.49 836.031C318.799 945.205 136.05 1104.97 55.0433 1191.95C32.7313 1215.91 32.5212 1248.5 54.5202 1273.04C134.267 1362.02 314.657 1526.28 637.653 1643.57C607.881 1510.49 593.289 1374.66 594.257 1239.37C595.226 1103.99 611.781 968.449 643.49 836.031Z" fill="#371A45"/>
<path d="M1453.07 1808.38C1385.98 1808.38 1317.85 1805.91 1248.9 1800.97C1034.87 1785.62 834.952 1746.2 654.708 1683.81C649.226 1681.91 645.271 1677.25 644.185 1671.7C610.022 1529.66 593.224 1384.2 594.26 1239.37C595.298 1094.32 614.227 949.081 650.522 807.693C651.898 802.332 655.934 798.055 661.206 796.37C842.322 738.492 1042.77 704.084 1256.99 694.101C1437.35 685.692 1612.01 694.05 1776.13 718.941C1907.58 738.876 2032.61 769.403 2147.76 809.675C2344.52 878.493 2443.1 951.078 2447.2 954.134C2449.49 955.845 2451.29 958.138 2452.41 960.776C2493.49 1058.1 2513.94 1159.84 2513.2 1263.17C2512.46 1366.48 2490.55 1467.72 2448.08 1564.07C2446.91 1566.72 2445.05 1569 2442.7 1570.68C2438.55 1573.64 2338.93 1643.78 2141.18 1707.68C2025.47 1745.07 1900.02 1772.47 1768.31 1789.12C1666.78 1801.95 1561.31 1808.38 1453.07 1808.38ZM673.58 1656.27C848.995 1716.1 1043.27 1753.97 1251.2 1768.88C1654.34 1797.78 1952.31 1734.91 2131.29 1677.07C2304.04 1621.24 2401.24 1559.72 2420.47 1546.9C2459.96 1455.85 2480.33 1360.34 2481.03 1262.94C2481.73 1165.49 2462.71 1069.47 2424.52 977.472C2405.5 964.219 2308.21 899.688 2135.5 839.473C1957.63 777.457 1661.08 707.471 1258.49 726.237C1050.43 735.933 855.694 768.924 679.488 824.323C610.26 1099.58 608.268 1379.38 673.58 1656.27Z" fill="#371A45"/>
<path d="M2433.31 1573.7C2425.68 1573.7 2418.91 1568.25 2417.5 1560.47C2415.92 1551.73 2421.72 1543.36 2430.46 1541.78L2539.75 1522C2583.48 1514.08 2618.14 1486.69 2630.2 1450.5C2670.51 1329.55 2671.43 1201.16 2632.85 1079.21C2621.28 1042.65 2586.97 1014.33 2543.29 1005.31L2434.3 982.792C2425.6 980.995 2420 972.485 2421.8 963.785C2423.6 955.084 2432.11 949.487 2440.81 951.286L2549.79 973.799C2604.87 985.176 2648.45 1021.85 2663.52 1069.5C2704.16 1197.97 2703.19 1333.23 2660.72 1460.67C2644.94 1508.02 2600.78 1543.65 2545.48 1553.66L2436.19 1573.44C2435.22 1573.61 2434.26 1573.7 2433.31 1573.7Z" fill="#371A45"/>
<path d="M2443.97 1365.59C2561.12 1366.74 2677.4 1275.16 2677.4 1275.16C2677.4 1275.16 2676.97 1274.8 2676.16 1274.19C2663.49 1264.11 2555.87 1181.2 2445.87 1180.04C2340.3 1178.96 2254.71 1254.45 2239.71 1268.51C2238.17 1269.96 2237.38 1270.75 2237.38 1270.75C2237.38 1270.75 2327.62 1364.48 2443.97 1365.59Z" fill="#E62058"/>
<g opacity="0.5">
<path d="M2677.39 1275.17C2677.39 1275.17 2672.45 1279.07 2663.59 1285.21C2612.51 1253.34 2529.97 1211.65 2446.25 1210.77C2363.46 1209.92 2291.28 1249.63 2247.72 1280.51C2241 1274.5 2237.38 1270.74 2237.38 1270.74C2237.38 1270.74 2238.17 1269.95 2239.7 1268.51C2254.71 1254.44 2340.3 1178.94 2445.86 1180.04C2555.86 1181.21 2663.51 1264.12 2676.16 1274.18C2676.95 1274.8 2677.39 1275.17 2677.39 1275.17Z" fill="white"/>
</g>
<g opacity="0.3">
<path d="M2443.97 1365.59C2561.12 1366.74 2677.4 1275.16 2677.4 1275.16C2677.4 1275.16 2676.97 1274.8 2676.16 1274.19L2239.71 1268.51C2238.17 1269.96 2237.38 1270.75 2237.38 1270.75C2237.38 1270.75 2327.62 1364.48 2443.97 1365.59Z" fill="#6B184E"/>
</g>
<path d="M2446.21 1381.7C2445.41 1381.7 2444.63 1381.7 2443.83 1381.69C2393.24 1381.2 2339.5 1363.78 2288.42 1331.33C2250.14 1307 2226.78 1282.91 2225.81 1281.9C2219.72 1275.58 2219.82 1265.56 2226.03 1259.36C2227.03 1258.37 2250.86 1234.76 2289.63 1211.2C2341.35 1179.78 2395.45 1163.46 2446.02 1163.97C2497.26 1164.5 2553.53 1181.31 2613.27 1213.95C2657.33 1238.02 2686.4 1261.73 2687.61 1262.73C2691.38 1265.82 2693.54 1270.45 2693.5 1275.33C2693.45 1280.2 2691.19 1284.79 2687.36 1287.8C2686.13 1288.77 2656.59 1311.9 2612.05 1335.08C2552.61 1366.02 2496.82 1381.7 2446.21 1381.7ZM2261.24 1270.99C2271.16 1279.66 2286.7 1292.18 2306.39 1304.62C2338.31 1324.8 2388.13 1348.97 2444.15 1349.52C2528.78 1350.38 2614.46 1299.12 2650.17 1274.9C2614.9 1249.98 2530.14 1197.01 2445.69 1196.14C2389.64 1195.54 2339.38 1218.73 2307.06 1238.26C2287.12 1250.31 2271.34 1262.52 2261.24 1270.99Z" fill="#371A45"/>
<path d="M720.123 887.833C720.077 885.255 720.11 882.64 720.183 880.026C734.798 350.433 1082.11 4.91478 1498.44 16.4048C1914.81 27.8948 2242.54 392.042 2227.93 921.635C2227.85 924.249 2227.7 926.861 2227.51 929.433L720.123 887.833Z" fill="#27BDFF"/>
<g opacity="0.5">
<path d="M1498.44 16.4039C1424.19 14.3549 1352.15 23.7198 1283.79 43.4008C1182.05 72.6888 1088.5 124.944 1008.04 196.948C839.414 347.86 728.312 585.44 720.182 880.024C720.11 882.639 720.077 885.253 720.123 887.832L751.205 888.69C765.311 600.74 878.795 369.404 1047.72 223.418C1086.23 231.035 1142.62 214.406 1194.28 176.633C1228.7 151.466 1254.8 121.447 1269.71 92.6749C1350.9 63.2729 1438.04 48.9078 1528.44 51.4028C1725.1 56.8298 1901.96 140.962 2032.34 284.008C1899.77 119.75 1710.63 22.2599 1498.44 16.4039Z" fill="white"/>
</g>
<g opacity="0.35">
<path d="M1872.97 181.954C1872.95 181.927 1872.94 181.898 1872.93 181.872C1886.93 212.178 1899.26 241.11 1910.03 268.592C1984.66 458.99 1847.23 665.787 1642.76 669.107C1325.95 674.252 875.031 712.548 720.201 880.037C718.426 881.957 720.08 885.265 720.12 887.839L2193.12 928.473C2198.71 599.109 2071.38 335.002 1872.97 181.954Z" fill="#371A45"/>
</g>
<path d="M2227.53 945.518C2227.14 945.518 2226.74 945.503 2226.35 945.475C2217.49 944.828 2210.83 937.12 2211.47 928.26C2211.67 925.614 2211.79 923.302 2211.85 921.193C2218.68 673.551 2147.87 447.623 2012.45 285.025C1881.42 127.711 1698.72 38.0228 1498 32.4838C1297.29 26.9438 1109.94 106.421 970.443 256.269C826.264 411.153 743.097 632.832 736.263 880.469C736.188 883.163 736.17 885.478 736.207 887.546C736.365 896.428 729.293 903.757 720.41 903.915C711.541 904.089 704.199 897 704.041 888.118C703.995 885.558 704.016 882.765 704.104 879.58C707.712 748.822 731.362 625.911 774.396 514.261C815.69 407.125 873.728 312.948 946.896 234.348C1092.78 77.6378 1288.8 -5.47525 1498.89 0.32375C1708.98 6.12175 1900.15 99.9178 2037.17 264.436C2105.89 346.951 2158.65 444.185 2193.97 553.437C2230.78 667.29 2247.62 791.319 2244.01 922.078C2243.94 924.678 2243.79 927.468 2243.56 930.604C2242.94 939.065 2235.88 945.517 2227.53 945.518Z" fill="#371A45"/>
<path d="M2227.52 929.431C2227.18 934.458 2226.5 939.477 2225.66 944.334C2197.42 1031.09 1868.64 1091.25 1469.08 1080.22C1069.57 1069.2 744.607 991.001 721.154 902.815C720.626 897.92 720.218 892.872 720.123 887.832C731.759 797.256 1067.75 733.397 1478.34 744.728C1888.98 756.061 2220.89 838.352 2227.52 929.431Z" fill="#371A45"/>
<path d="M1562.68 1097.6C1531.67 1097.6 1500.28 1097.16 1468.66 1096.29C1274.95 1090.94 1090.88 1069.57 950.366 1036.09C881.32 1019.65 825.537 1000.97 784.566 980.589C738.523 957.683 712.7 933.597 705.623 906.956L705.32 905.813L705.186 904.638C704.53 898.852 704.149 893.292 704.055 888.112C703.892 879.23 710.962 871.897 719.845 871.735C728.727 871.552 736.059 878.641 736.222 887.524C736.291 891.317 736.557 895.417 737.013 899.727C742.015 915.943 763.915 934.384 798.895 951.786C837.68 971.081 891.151 988.917 957.821 1004.8C1096.25 1037.77 1277.98 1058.85 1469.54 1064.13C1661.1 1069.42 1843.73 1058.4 1983.76 1033.11C2051.21 1020.93 2105.58 1006.07 2145.37 988.944C2181.26 973.497 2204.14 956.293 2210.03 940.377C2210.72 936.104 2211.21 932.025 2211.49 928.239C2212.14 919.379 2219.86 912.733 2228.71 913.376C2237.57 914.028 2244.23 921.739 2243.58 930.598C2243.19 935.771 2242.51 941.302 2241.53 947.039L2241.34 948.204L2240.97 949.328C2232.43 975.538 2205.32 998.163 2158.09 1018.49C2116.05 1036.59 2059.33 1052.16 1989.48 1064.77C1870.54 1086.25 1721.62 1097.6 1562.68 1097.6Z" fill="#181558"/>
<path d="M1562.88 1097.6C1548.69 1097.6 1534.45 1097.51 1520.16 1097.33C1503.21 1097.12 1485.88 1096.78 1468.66 1096.3C1377.9 1093.8 1289.17 1087.8 1204.91 1078.47C1069.3 1063.48 951.405 1040.54 863.978 1012.12C769.277 981.346 716.003 945.958 705.634 906.944L705.341 905.84L705.207 904.706C704.53 899 704.139 893.414 704.044 888.103C703.885 879.221 710.957 871.891 719.839 871.732C728.717 871.547 736.05 878.645 736.21 887.527C736.279 891.391 736.549 895.474 737.013 899.681C751.5 947.086 904.494 1012.9 1208.45 1046.49C1291.83 1055.72 1379.68 1061.66 1469.55 1064.14C1486.61 1064.61 1503.77 1064.96 1520.56 1065.16C1588.8 1066.03 1656 1064.8 1720.31 1061.53C1739.39 1060.53 1757.93 1059.4 1775.41 1058.15C1898.29 1049.36 2004.51 1032.96 2082.59 1010.72C2183.81 981.904 2205.47 952.557 2210.04 940.318C2210.69 936.377 2211.18 932.285 2211.51 928.137C2212.22 919.282 2219.96 912.671 2228.83 913.379C2237.68 914.084 2244.29 921.835 2243.58 930.691C2243.14 936.274 2242.44 941.795 2241.52 947.101L2241.32 948.225L2240.97 949.31C2234.67 968.641 2217.53 986.568 2190.03 1002.59C2165.55 1016.86 2132.36 1030 2091.4 1041.67C2011.23 1064.49 1902.75 1081.29 1777.7 1090.24C1760.02 1091.5 1741.26 1092.65 1721.96 1093.66C1670.44 1096.28 1617.09 1097.6 1562.88 1097.6Z" fill="#371A45"/>
<path d="M1253.58 973.698C1252.71 987.192 1248.21 996.72 1241.98 1007.32C1230.09 1028.3 1214.47 1046.02 1196.09 1060.96C1140.26 1054.59 1082.54 1046.17 1029.46 1036.14C1162.48 896.581 1204.52 828.348 1246.83 746.949C1251.69 819.265 1258.88 902.634 1253.58 973.698Z" fill="white"/>
<g opacity="0.35">
<path d="M1253.58 973.698C1252.72 987.192 1248.21 996.72 1241.98 1007.32C1236.85 1016.37 1231.31 1024.49 1225.04 1032.03L1225.04 1032.07C1216.32 1042.91 1206.67 1052.37 1196.1 1060.96C1171.49 1058.16 1147.48 1055.07 1124.22 1051.72C1207.9 980.807 1217.66 846.843 1246.83 747.075C1246.87 747.034 1246.87 746.993 1246.87 746.993C1246.87 746.993 1246.96 748.08 1247.12 750.169C1251.81 821.434 1258.84 903.743 1253.58 973.698Z" fill="#371A45"/>
</g>
<path d="M1196.1 1077.05C1195.49 1077.05 1194.88 1077.01 1194.27 1076.94C1135.62 1070.25 1077.59 1061.61 1026.48 1051.95C1020.69 1050.85 1015.96 1046.68 1014.15 1041.07C1012.35 1035.46 1013.76 1029.31 1017.82 1025.04C1153.27 882.941 1192.26 817.073 1232.56 739.533C1235.88 733.133 1243.06 729.731 1250.12 731.205C1257.18 732.681 1262.4 738.675 1262.88 745.871C1263.45 754.391 1264.06 763.064 1264.67 771.852C1269.22 837.074 1274.38 910.997 1269.63 974.815C1268.47 992.614 1261.95 1005.08 1255.91 1015.36C1243.53 1037.17 1226.82 1056.71 1206.24 1073.44C1203.36 1075.78 1199.77 1077.05 1196.1 1077.05ZM1061.54 1025.59C1102.26 1032.63 1146.39 1038.97 1191.05 1044.19C1206.21 1030.97 1218.61 1015.92 1227.99 999.387C1228.03 999.312 1228.07 999.238 1228.11 999.164C1233.73 989.61 1236.89 982.558 1237.53 972.669C1237.53 972.613 1237.54 972.557 1237.54 972.502C1241.45 920.116 1238.35 859.602 1234.58 803.172C1201.33 860.816 1156.35 924.132 1061.54 1025.59Z" fill="#371A45"/>
<path d="M1775.95 747.292L1766.92 1074.59C1675.54 1080.69 1584.53 1082.44 1491.91 1080.46C1491.91 1080.46 1491.91 1080.46 1491.87 1080.46C1491.7 1080.58 1491.53 1080.7 1491.32 1080.82C1491.32 1080.82 1436.8 1079.32 1436.78 1079.32C1437.08 1079.2 1437.33 1079.08 1437.63 1078.92C1373.04 1076.5 1310.91 1072.4 1247.64 1066.43L1256.85 732.966C1257.72 693.693 1291.39 661.207 1331.34 662.476C1349.63 666.476 1743.5 663.733 1743.61 685.027C1743.65 685.028 1743.65 685.028 1743.65 685.028C1763.73 698.397 1776.6 721.67 1775.95 747.292Z" fill="white"/>
<g opacity="0.35">
<path d="M1247.91 1056.6C1252.92 1061.15 1258.57 1064.98 1264.7 1067.98C1258.94 1067.49 1253.27 1066.95 1247.6 1066.43L1247.87 1056.55L1247.91 1056.6Z" fill="#371A45"/>
</g>
<g opacity="0.35">
<path d="M1775.95 747.292L1766.92 1074.59C1746.75 1075.9 1725.72 1077.15 1705.16 1078.05C1710.88 1074.75 1715.96 1070.3 1720.5 1064.59C1720.54 1064.59 1720.54 1064.55 1720.54 1064.51C1763.63 1001.36 1760.03 845.938 1775.94 746.291C1775.97 746.626 1775.96 746.959 1775.95 747.292Z" fill="#371A45"/>
</g>
<path d="M1564.21 1093.31C1541.4 1093.31 1518.36 1093.07 1495 1092.6L1494.48 1092.89H1491.32C1490.95 1092.89 1436.99 1091.39 1436.45 1091.38L1377.78 1089.75L1381.11 1088.42C1336.05 1086 1291.6 1082.7 1246.51 1078.44L1235.27 1077.38L1244.79 732.633C1245.28 710.323 1254.69 689.349 1271.27 673.637C1287.83 657.951 1309.31 649.703 1331.72 650.417L1332.83 650.452L1333.81 650.666C1339.77 651.635 1381.57 652.288 1425.82 652.979C1488.46 653.957 1566.42 655.175 1630.84 658.063C1666.6 659.666 1693.3 661.561 1712.47 663.856C1731.74 666.163 1747.44 668.772 1753.25 677.019C1775.47 693.24 1788.71 719.954 1788.01 747.596L1788.01 747.625L1778.68 1085.89L1767.72 1086.62C1700.69 1091.1 1633.56 1093.31 1564.21 1093.31ZM1488.11 1068.34L1492.16 1068.4C1583.22 1070.35 1669.38 1068.67 1755.16 1063.26L1763.89 746.959C1764.37 727.46 1755.16 708.612 1739.67 696.982L1731.64 696.751L1731.6 691.464C1722.82 689.092 1696.39 684.836 1617.13 681.629C1555.49 679.135 1483.38 678.009 1425.44 677.104C1363.15 676.131 1338.18 675.646 1330.22 674.514C1314.53 674.212 1299.53 680.102 1287.87 691.152C1275.99 702.401 1269.26 717.346 1268.91 733.233L1260.02 1055.46C1319.33 1060.86 1377.71 1064.6 1438.08 1066.87L1480.05 1068.44C1483.06 1068.53 1485.68 1068.6 1487.67 1068.65L1488.11 1068.34ZM1731.54 685.085C1731.54 685.111 1731.54 685.137 1731.54 685.162V685.085Z" fill="#371A45"/>
<path d="M2036.86 543.607C2033.15 631.642 1976.74 708.722 1910.85 767.609L1910.81 767.608C1848.77 822.812 1774.68 864.716 1697.91 896.528C1697.91 896.528 1697.91 896.57 1697.95 896.612C1697.95 896.654 1697.99 896.822 1698.1 897.033C1707.32 928.226 1713.97 961.064 1717.66 993.676L1717.7 993.719C1720.88 1021.36 1722.01 1049.57 1719.77 1077.37C1644.29 1081.15 1568.66 1082.11 1491.91 1080.46C1491.91 1080.46 1491.91 1080.46 1491.87 1080.46C1491.7 1080.58 1491.53 1080.7 1491.32 1080.82C1491.32 1080.82 1436.8 1079.32 1436.78 1079.32C1437.08 1079.2 1437.33 1079.08 1437.63 1078.92C1358.23 1075.86 1281.61 1070.58 1203.53 1061.79C1192.75 968.747 1204.81 869.586 1235.84 781.169C1235.88 781.128 1235.84 781.127 1235.84 781.127C1238.25 774.772 1240.52 768.59 1243.23 762.527C1261.15 722.321 1291.23 663.874 1343.45 672.106C1431.19 691.694 1521.36 711.958 1608.52 734.667C1616.25 737.261 1623.41 739.004 1631.26 735.795L1631.26 735.753C1635.59 734.712 1639.71 733.499 1644.07 732.271C1679.23 721.654 1704.83 691.944 1735.27 670.935C1735.31 670.936 1749.07 657.996 1749.07 657.996C1790.81 620.33 1806.44 601.845 1829.65 560.697C1822.87 531.989 1826.13 521.065 1829.38 491.185C1833.05 471.436 1855.31 460.861 1870.16 468.336C1881.83 474.139 1884.05 499.244 1889.12 513.93C1889.12 513.93 1889.45 512.855 1890.12 510.914C1924.74 400.995 2039.12 438.907 2036.86 543.607Z" fill="white"/>
<g opacity="0.35">
<path d="M1720.78 1058.76C1720.59 1064.99 1720.3 1071.17 1719.77 1077.37C1691.33 1078.77 1663.39 1079.82 1634.17 1080.47C1595.28 1052.92 1535.94 1071.89 1485.25 1054.51C1474.68 1042.54 1468.11 995.544 1502.95 981.372C1561.86 998.828 1649.47 1009.02 1709.12 963.254C1716.74 968.254 1716.17 984.723 1717.66 993.676L1717.7 993.719C1720.2 1015.19 1721.37 1037.09 1720.78 1058.76Z" fill="#371A45"/>
</g>
<g opacity="0.35">
<path d="M1655.21 936.922C1658.46 952.401 1661.55 969.235 1664.03 986.67C1679.96 981.578 1695.34 974.061 1709.11 963.255C1709.11 963.255 1711.49 965.453 1714.35 969.425C1710.46 944.886 1705.05 920.186 1697.94 896.6C1697.91 896.568 1697.91 896.538 1697.91 896.538C1775.07 864.52 1848.53 822.909 1910.83 767.62L1910.86 767.621C1975.67 712.142 2037.59 621.632 2036.87 540.571C1914.28 839.283 1623.67 798.03 1655.21 936.922Z" fill="#371A45"/>
</g>
<path d="M1719.74 1089.44C1719.42 1089.44 1719.1 1089.42 1718.77 1089.4C1712.12 1088.86 1707.17 1083.05 1707.7 1076.41C1710.77 1038.19 1707.77 996.645 1698.55 949.416C1697.72 945.718 1696.82 942.106 1695.95 938.612C1692.51 924.792 1689.25 911.739 1692.51 899.709C1697.44 881.492 1714.53 874.273 1727.39 870.468C1879.84 798.738 1970.54 714.456 2012.83 605.276L2013.14 604.532C2035.03 557.625 2024.62 508.509 2004.59 480.641C1991.44 462.353 1974.62 452.91 1958.41 454.735C1937.1 457.135 1916.82 478.711 1901.29 515.498C1899.24 520.529 1894.31 523.8 1888.83 523.645C1883.4 523.503 1878.64 520.075 1876.79 515.047C1874.37 508.849 1873.4 502.466 1872.54 496.827C1870.87 485.881 1869.79 481.528 1864.97 479.226L1864.74 479.113C1861.02 477.24 1857.8 476.946 1854.6 478.189C1849.18 480.292 1843.97 486.753 1840.66 495.473C1837.06 504.935 1834.91 530.564 1841.39 557.918L1842.48 562.513L1840.16 566.626C1816.85 607.952 1787.05 639.412 1743.47 679.787L1742.83 680.376L1742.12 680.868C1735.71 685.29 1729.34 689.839 1722.61 694.656C1687.39 719.833 1650.97 745.868 1609.25 752.631C1602.67 753.696 1596.47 749.23 1595.41 742.653C1594.34 736.076 1598.81 729.88 1605.39 728.814C1641.53 722.955 1675.62 698.59 1708.57 675.028C1714.86 670.535 1721.35 665.894 1727.7 661.502C1767.74 624.372 1795.51 595.242 1816.86 558.743C1810.83 529.568 1812.78 500.907 1818.11 486.9C1823.98 471.45 1833.84 460.369 1845.86 455.698C1855.44 451.979 1865.67 452.604 1875.47 457.505C1885.62 462.389 1890.5 470.196 1893.17 478.189C1914.55 443.084 1938.2 432.73 1955.71 430.758C1980.84 427.93 2005.8 440.978 2024.18 466.56C2037.52 485.119 2046.25 509.057 2048.77 533.963C2051.54 561.401 2046.85 589.193 2035.18 614.363C2011.1 676.363 1973.13 729.819 1919.12 777.766C1871.91 819.676 1812.27 857.274 1736.81 892.709L1735.94 893.117L1735.02 893.382C1717.89 898.313 1716.37 903.911 1715.8 906.019C1714.18 911.993 1716.59 921.625 1719.37 932.778C1720.29 936.465 1721.24 940.277 1722.14 944.323L1722.2 944.635C1731.88 994.117 1735 1037.85 1731.76 1078.34C1731.25 1084.65 1725.97 1089.44 1719.74 1089.44Z" fill="#371A45"/>
<path d="M1553.1 957.407C1533.17 997.275 1511.24 1040.99 1491.32 1080.82C1491.32 1080.82 1436.8 1079.32 1436.78 1079.32C1437.08 1079.2 1437.33 1079.08 1437.63 1078.92C1359.17 1075.91 1283.49 1070.68 1206.36 1062.12C1218.38 1034.7 1232.7 1001.65 1244.69 974.203C1346.62 968.628 1451.24 962.992 1553.1 957.407Z" fill="white"/>
<path d="M1200.07 1073.47C1193.91 1073.47 1188.65 1068.77 1188.07 1062.51C1180.43 979.554 1192.33 877.784 1219.26 792.809L1219.21 792.808L1220.47 789.04C1221.63 785.448 1222.82 781.889 1224.04 778.362L1224.4 777.299C1227.74 767.312 1231.4 757.223 1235.3 747.284L1235.88 745.774C1241.07 732.499 1246.87 718.935 1253.11 705.457C1255.91 699.411 1263.08 696.778 1269.12 699.577C1275.17 702.376 1277.8 709.547 1275 715.593C1269.28 727.961 1263.94 740.395 1259.13 752.587V752.599L1258.33 754.641C1254.91 763.31 1251.66 772.107 1248.67 780.849L1250.02 784.361L1246.28 787.896C1217.88 871.059 1204.47 977.61 1212.1 1060.29C1212.71 1066.93 1207.83 1072.8 1201.19 1073.41C1200.82 1073.45 1200.44 1073.47 1200.07 1073.47Z" fill="#371A45"/>
<g opacity="0.35">
<path d="M1221.98 825.381C1296.53 868.07 1367.51 882.676 1475.22 862.566C1585.49 834.043 1645.84 789.498 1695.35 712.633C1664.2 727.351 1636.97 734.708 1621.32 738.141C1535.17 714.344 1340.33 671.389 1340.33 671.389C1288.55 664.613 1246.23 734.445 1221.98 825.381Z" fill="#371A45"/>
</g>
<path d="M1199.55 892.474C1177.17 906.836 1174.3 970.027 1188.9 981.315C1188.89 981.315 1231.65 1022.18 1336.45 1004.99C1336.45 1004.99 1358.73 952.45 1329.34 920.467C1329.34 920.467 1247.98 938.872 1199.55 892.474Z" fill="white"/>
<g opacity="0.35">
<path d="M1188.88 981.314C1188.88 981.314 1231.66 1022.17 1336.46 1005.01C1336.46 1005.01 1340.99 994.319 1343.28 979.642C1217.66 991.728 1180.41 961.97 1191.08 902.699C1172.53 923.191 1181.15 979.928 1188.88 981.314Z" fill="#371A45"/>
</g>
<path d="M1287.59 1019.17C1257.73 1019.17 1235.36 1014.22 1220.18 1009.08C1199.37 1002.02 1187.33 993.262 1182.8 989.209L1182.78 989.226C1169.86 979.236 1169.55 953.524 1170.02 942.934C1170.96 921.351 1177.8 894.552 1194.15 884.059L1200.78 879.804L1206.47 885.255C1250.35 927.298 1326.38 910.882 1327.14 910.713L1332.78 909.451L1336.7 913.703C1370.06 950.01 1346.67 1006.51 1345.66 1008.9L1343.51 1013.97L1338.07 1014.86C1319.34 1017.93 1302.53 1019.17 1287.59 1019.17ZM1200.24 977.446C1205.19 980.825 1214.33 986.135 1228.1 990.634C1247.77 997.062 1281.01 1003.05 1329.06 996.023C1332.99 983.964 1340.73 952.978 1325.35 931.399C1305.66 934.682 1244.01 941.329 1199.94 906.094C1194.62 913.93 1190.78 927.853 1190.02 943.277C1189.15 961.094 1192.85 971.692 1195.02 973.405L1200.24 977.446Z" fill="#371A45"/>
<path d="M1922.28 764.683C1921.8 764.683 1921.32 764.637 1920.83 764.541C1884.95 757.495 1850.68 730.82 1818.97 685.258C1795.74 651.884 1782.88 620.965 1782.35 619.665C1780.77 615.835 1782.59 611.451 1786.42 609.873C1790.25 608.296 1794.64 610.119 1796.22 613.947C1796.71 615.153 1846.91 734.738 1923.72 749.823C1927.78 750.621 1930.43 754.563 1929.63 758.628C1928.93 762.203 1925.8 764.683 1922.28 764.683Z" fill="#371A45"/>
<path d="M1741.11 551.488C1737.45 552.084 1734 549.598 1733.4 545.936L1702.31 354.911C1701.71 351.248 1704.2 347.796 1707.86 347.2C1746.29 340.946 1782.5 367.025 1788.76 405.45C1799.47 462.207 1818.21 535.268 1741.11 551.488Z" fill="#E62058"/>
<path d="M1740.03 554.466C1735.4 554.466 1731.31 551.109 1730.55 546.4L1699.46 355.375C1699.04 352.842 1699.64 350.3 1701.14 348.217C1702.64 346.134 1704.86 344.76 1707.4 344.348C1726.74 341.199 1746.16 345.773 1762.06 357.225C1777.97 368.678 1788.46 385.64 1791.61 404.986C1792.18 407.993 1792.78 411.12 1793.4 414.283C1804.09 469.577 1817.4 538.392 1741.71 554.316L1741.58 554.34C1741.05 554.425 1740.54 554.466 1740.03 554.466ZM1719.33 349.158C1715.68 349.158 1712 349.454 1708.32 350.052C1706.24 350.391 1704.82 352.363 1705.16 354.447L1736.25 545.472C1736.42 546.482 1736.96 547.367 1737.79 547.964C1738.61 548.55 1739.6 548.791 1740.59 548.645C1810.64 533.861 1798.46 470.917 1787.72 415.381C1787.11 412.209 1786.5 409.074 1785.92 405.986C1783.01 388.092 1773.34 372.466 1758.68 361.915C1747.05 353.54 1733.38 349.158 1719.33 349.158Z" fill="#371A45"/>
<g opacity="0.35">
<path d="M1794.39 440.044C1808.21 487.623 1796.71 541.804 1741.11 551.502C1737.45 552.102 1734 549.597 1733.4 545.936L1725.11 495.157C1754.99 506.235 1791.03 468.167 1794.39 440.044Z" fill="#371A45"/>
</g>
<path d="M1740.02 563.641C1730.98 563.641 1722.99 557.079 1721.49 547.874L1690.4 356.849C1688.74 346.627 1695.7 336.956 1705.92 335.292C1727.69 331.749 1749.53 336.895 1767.42 349.78C1785.27 362.634 1797.07 381.656 1800.64 403.354C1801.21 406.374 1801.8 409.44 1802.4 412.541C1807.85 440.72 1814.03 472.659 1809.05 500.233C1802.91 534.233 1780.89 555.45 1743.6 563.295L1743.05 563.397C1742.03 563.561 1741.02 563.641 1740.02 563.641ZM1715.11 358.485L1744.38 538.311C1768.51 531.84 1781.22 518.591 1785.31 495.942C1789.49 472.809 1783.76 443.224 1778.72 417.123C1778.1 413.937 1777.49 410.788 1776.9 407.687L1776.85 407.387C1774.34 391.984 1765.99 378.479 1753.33 369.36C1742.12 361.29 1728.73 357.509 1715.11 358.485Z" fill="#371A45"/>
<path d="M1077.33 449.828C1080.99 449.232 1084.45 451.718 1085.04 455.38L1116.13 646.405C1116.73 650.068 1114.24 653.52 1110.58 654.116C1072.16 660.37 1035.94 634.291 1029.68 595.866C1018.97 539.109 1000.23 466.048 1077.33 449.828Z" fill="#E62058"/>
<path d="M1099.1 657.939C1083.84 657.939 1069.01 653.183 1056.38 644.091C1040.48 632.638 1029.98 615.676 1026.83 596.331C1026.26 593.324 1025.66 590.197 1025.05 587.033C1014.35 531.739 1001.04 462.924 1076.74 447L1076.87 446.976C1082.09 446.123 1087.04 449.687 1087.89 454.916L1118.99 645.941C1119.4 648.474 1118.8 651.017 1117.3 653.1C1115.8 655.183 1113.58 656.557 1111.05 656.969C1107.06 657.618 1103.07 657.939 1099.1 657.939ZM1077.85 452.671C1007.81 467.455 1019.98 530.399 1030.72 585.935C1031.34 589.107 1031.94 592.242 1032.52 595.33C1035.44 613.224 1045.11 628.85 1059.76 639.401C1074.41 649.952 1092.3 654.165 1110.12 651.264C1111.13 651.1 1112.01 650.552 1112.61 649.722C1113.21 648.892 1113.45 647.879 1113.28 646.869L1082.19 455.844C1081.85 453.779 1079.91 452.365 1077.85 452.671Z" fill="#371A45"/>
<g opacity="0.35">
<path d="M1107.53 593.408L1116.14 646.403C1116.74 650.064 1114.24 653.518 1110.58 654.118C1058.16 663.259 1026.11 615.774 1025.22 568.429C1040.34 592.419 1081.85 611.353 1107.53 593.408Z" fill="#371A45"/>
</g>
<path d="M1099.08 667.115C1081.92 667.115 1065.23 661.764 1051.02 651.536C1033.17 638.682 1021.38 619.66 1017.8 597.962C1017.23 594.942 1016.64 591.877 1016.04 588.775C1010.59 560.596 1004.41 528.657 1009.39 501.083C1015.54 467.083 1037.56 445.866 1074.85 438.021L1075.39 437.919C1085.62 436.252 1095.29 443.218 1096.95 453.441L1128.04 644.466C1128.85 649.418 1127.68 654.388 1124.75 658.459C1121.81 662.531 1117.47 665.217 1112.52 666.023C1108.03 666.754 1103.54 667.115 1099.08 667.115ZM1074.06 463.004C1049.94 469.475 1037.23 482.725 1033.14 505.374C1028.96 528.507 1034.68 558.092 1039.73 584.193C1040.35 587.379 1040.95 590.528 1041.54 593.629L1041.59 593.929C1044.1 609.332 1052.45 622.837 1065.12 631.956C1076.33 640.026 1089.73 643.805 1103.33 642.831L1074.06 463.004Z" fill="#371A45"/>
<path d="M1737.72 470.89C1769.47 903.319 1127.23 961.443 1080.8 530.398C1049.05 97.9826 1691.3 39.8587 1737.72 470.89Z" fill="#E62058"/>
<path d="M1405.22 828.852C1375.15 828.852 1345.5 825.161 1316.71 817.812C1275.77 807.364 1238.46 789.962 1205.79 766.09C1133 712.894 1088.78 631.5 1077.93 530.708C1070.49 429.498 1099.37 341.479 1161.43 276.072C1189.28 246.719 1222.86 222.896 1261.26 205.266C1298.28 188.265 1338.13 177.737 1379.69 173.974C1421.25 170.211 1462.34 173.412 1501.81 183.486C1542.75 193.933 1580.07 211.334 1612.73 235.206C1685.53 288.4 1729.74 369.792 1740.59 470.58L1740.6 470.678C1748.03 571.794 1719.15 659.815 1657.1 725.225C1629.25 754.579 1595.66 778.402 1557.26 796.033C1520.24 813.034 1480.39 823.563 1438.83 827.325C1427.59 828.344 1416.37 828.852 1405.22 828.852ZM1412.61 178.269C1401.74 178.269 1390.93 178.759 1380.21 179.73C1226.03 193.689 1067.47 309.313 1083.68 530.187C1107.39 750.269 1284.12 835.528 1438.31 821.569C1592.49 807.611 1751.04 692.005 1734.84 471.15C1712.76 266.313 1558.2 178.269 1412.61 178.269Z" fill="#371A45"/>
<g opacity="0.35">
<path d="M1730.46 425.708C1824.08 890.634 1114.39 987.584 1079.75 514.803C1165.52 897.325 1750.08 819.075 1730.46 425.708Z" fill="#371A45"/>
</g>
<path d="M1405.21 838.027C1374.39 838.027 1343.98 834.24 1314.44 826.702C1272.37 815.964 1233.99 798.063 1200.38 773.497C1125.44 718.735 1079.95 635.12 1068.81 531.69L1068.77 531.281C1061.15 427.522 1090.89 337.089 1154.77 269.756C1183.43 239.551 1217.97 215.048 1257.43 196.927C1295.41 179.489 1336.26 168.692 1378.86 164.835C1421.46 160.978 1463.59 164.262 1504.08 174.595C1546.16 185.333 1584.53 203.232 1618.15 227.798C1693.08 282.558 1738.58 366.171 1749.72 469.597L1749.76 470.006C1757.37 573.768 1727.63 664.204 1663.75 731.539C1635.1 761.745 1600.56 786.249 1561.09 804.37C1523.12 821.808 1482.26 832.605 1439.66 836.462C1428.14 837.506 1416.65 838.027 1405.21 838.027ZM1092.82 529.311C1115.95 743.184 1287.67 825.994 1437.49 812.432C1587.3 798.869 1741.36 686.551 1725.71 471.978C1702.57 258.112 1530.84 175.304 1381.04 188.866C1231.23 202.43 1077.16 314.745 1092.82 529.311Z" fill="#371A45"/>
<path d="M1737.44 479.422C1783.2 775.177 1339.8 875.453 1160.35 715.511C814.925 289.504 1687.17 78.9278 1737.44 479.422Z" fill="#371A45"/>
<g opacity="0.5">
<path d="M1586.89 474.445C1581.61 550.669 1665.26 556.849 1671.24 480.678C1676.52 404.457 1592.86 398.277 1586.89 474.445Z" fill="#E62058"/>
</g>
<g opacity="0.5">
<path d="M1567.24 593.144C1559.5 627.047 1605.27 636.918 1612.18 602.835C1619.92 568.934 1574.16 559.063 1567.24 593.144Z" fill="#E62058"/>
</g>
<path d="M1094.78 411.008C1093.31 411.008 1091.82 410.683 1090.41 409.996C1085.45 407.577 1083.38 401.592 1085.8 396.627C1107.48 352.126 1147.18 313.104 1200.62 283.779C1249.75 256.822 1309.04 238.548 1372.07 230.933C1436.98 223.092 1501.28 227.01 1558 242.264C1619.35 258.759 1668.91 288.081 1701.33 327.06C1704.86 331.306 1704.28 337.612 1700.03 341.143C1695.79 344.674 1689.48 344.095 1685.95 339.849C1627.79 269.916 1505.53 234.958 1374.47 250.79C1246.42 266.259 1142.7 325.497 1103.78 405.387C1102.05 408.94 1098.49 411.008 1094.78 411.008Z" fill="#371A45"/>
<g opacity="0.5">
<path d="M1169.46 651.715C1079.7 447.986 1214.99 337.496 1393.36 332.257C1270.32 371.592 1183.76 499.591 1169.46 651.715Z" fill="#E62058"/>
</g>
<path d="M1282.59 1055.62L1456.47 1070.79C1477.05 1072.59 1495.37 1057.22 1497.17 1036.61L1505.24 944.086C1506.81 926.047 1495.22 909.77 1478.48 904.794C1476.11 904.072 1473.63 903.611 1471.06 903.382L1297.21 888.218C1276.61 886.416 1258.29 901.788 1256.51 922.394L1250.1 995.677L1248.42 1014.92C1246.62 1035.52 1262.02 1053.82 1282.59 1055.62Z" fill="white"/>
<g opacity="0.35">
<path d="M1282.59 1055.62L1456.47 1070.79C1477.05 1072.59 1495.37 1057.22 1497.17 1036.61L1505.24 944.086C1506.81 926.047 1495.21 909.77 1478.48 904.794C1468.03 910.49 1461.39 914.138 1461.39 914.138C1446.45 987.671 1422.07 1022.86 1329.71 1016.32C1289.84 1013.49 1265.24 1005.23 1250.1 995.677L1248.42 1014.92C1246.61 1035.52 1262.01 1053.82 1282.59 1055.62Z" fill="#371A45"/>
</g>
<path d="M1459.77 1080.94C1458.38 1080.94 1456.99 1080.88 1455.59 1080.76L1281.73 1065.59C1255.59 1063.31 1236.18 1040.19 1238.46 1014.05L1246.54 921.513C1247.64 908.893 1253.62 897.432 1263.37 889.241C1273.13 881.05 1285.45 877.146 1298.07 878.246L1471.93 893.414C1498.07 895.695 1517.48 918.814 1515.2 944.952L1507.13 1037.49C1506.03 1050.11 1500.05 1061.57 1490.29 1069.76C1481.61 1077.05 1470.91 1080.94 1459.77 1080.94ZM1293.92 898.065C1279.78 898.065 1267.71 908.911 1266.46 923.252L1258.39 1015.79C1257.06 1030.94 1268.31 1044.35 1283.47 1045.67L1457.33 1060.83C1464.63 1061.48 1471.76 1059.2 1477.43 1054.45C1483.1 1049.69 1486.57 1043.05 1487.2 1035.75L1495.28 943.214C1496.6 928.063 1485.35 914.661 1470.2 913.339L1296.33 898.171C1295.52 898.1 1294.72 898.065 1293.92 898.065Z" fill="#371A45"/>
<path d="M1275.68 1054.33C1277.89 1055 1280.19 1055.43 1282.59 1055.62L1456.47 1070.79C1471.55 1072.1 1485.42 1064.21 1492.45 1051.76C1495.02 1047.23 1496.68 1042.11 1497.15 1036.61L1500.75 995.507L1501.94 981.945L1505.24 944.086C1507.04 923.481 1491.64 905.183 1471.06 903.382L1433.49 900.114C1450.52 904.888 1462.38 921.304 1460.8 939.527L1456.46 989.509L1452.74 1032.08C1450.93 1052.66 1432.61 1068.06 1412.03 1066.26L1275.68 1054.33Z" fill="white"/>
<g opacity="0.35">
<path d="M1275.68 1054.33C1277.89 1055 1280.19 1055.43 1282.59 1055.62L1456.47 1070.79C1477.05 1072.59 1495.37 1057.22 1497.15 1036.61L1501.94 981.945C1496.72 991.223 1487.83 1002.39 1475.15 1002.54C1468.19 1002.64 1461.84 997.084 1456.46 989.508L1452.74 1032.08C1450.93 1052.66 1432.61 1068.06 1412.03 1066.26L1275.68 1054.33Z" fill="#371A45"/>
</g>
<path d="M1459.8 1080.94C1458.4 1080.94 1457 1080.88 1455.6 1080.76L1281.72 1065.58C1278.77 1065.34 1275.76 1064.79 1272.86 1063.94L1276.54 1044.38L1412.91 1056.29C1420.2 1056.93 1427.33 1054.66 1432.99 1049.9C1438.66 1045.14 1442.13 1038.51 1442.76 1031.21L1450.83 938.667C1451.99 925.486 1443.56 913.315 1430.8 909.728L1434.37 890.139L1471.92 893.408C1484.55 894.517 1496.01 900.498 1504.2 910.252C1512.4 920.011 1516.3 932.337 1515.19 944.958L1507.12 1037.49C1506.02 1050.11 1500.05 1061.57 1490.29 1069.77C1481.62 1077.05 1470.92 1080.94 1459.8 1080.94ZM1450.94 1060.27L1457.34 1060.83C1464.63 1061.47 1471.76 1059.21 1477.43 1054.45C1483.09 1049.69 1486.56 1043.05 1487.19 1035.76V1035.75L1495.27 943.214C1495.91 935.914 1493.64 928.777 1488.88 923.112C1484.13 917.446 1477.49 913.973 1470.18 913.332L1464.76 912.86C1469.37 921.002 1471.62 930.54 1470.76 940.406L1462.69 1032.94C1461.8 1043.19 1457.69 1052.68 1450.94 1060.27Z" fill="#371A45"/>
<path d="M1388.14 980.574C1387.86 983.997 1390.43 1012.02 1390.43 1012.02C1390.43 1012.02 1399.18 1012.74 1409.93 1013.61C1423.36 1014.71 1435.38 1001.69 1436.78 984.536C1438.17 967.383 1428.42 952.59 1414.99 951.496C1405.93 950.758 1395.48 949.907 1395.48 949.907C1395.48 949.907 1388.6 974.997 1388.14 980.574Z" fill="#22A7F0"/>
<g opacity="0.35">
<path d="M1388.14 980.574C1387.86 983.997 1390.43 1012.02 1390.43 1012.02C1390.43 1012.02 1399.18 1012.74 1409.93 1013.61C1423.36 1014.71 1435.38 1001.69 1436.78 984.536C1438.17 967.383 1428.42 952.59 1414.99 951.496C1405.93 950.758 1395.48 949.907 1395.48 949.907C1395.48 949.907 1388.6 974.997 1388.14 980.574Z" fill="#371A45"/>
</g>
<path d="M1411.49 1018.68C1410.84 1018.68 1410.18 1018.65 1409.53 1018.6L1390.02 1017.01C1387.6 1016.81 1385.67 1014.9 1385.45 1012.48C1384.84 1005.8 1382.87 983.745 1383.16 980.168C1383.64 974.294 1389.95 951.197 1390.66 948.583C1391.3 946.266 1393.49 944.724 1395.89 944.923L1415.4 946.512C1423.46 947.168 1430.64 951.689 1435.62 959.24C1440.35 966.409 1442.53 975.536 1441.76 984.941C1440.21 1004.01 1426.84 1018.68 1411.49 1018.68ZM1395.03 1007.38L1410.34 1008.63C1421 1009.5 1430.62 998.508 1431.8 984.13C1432.38 976.942 1430.77 970.058 1427.27 964.746C1424.02 959.817 1419.52 956.881 1414.59 956.479L1399.22 955.228C1396.66 964.798 1393.4 977.717 1393.13 980.971C1393.01 982.88 1393.95 995.212 1395.03 1007.38Z" fill="#371A45"/>
<path d="M1417.3 982.979C1418.7 965.825 1408.95 951.033 1395.52 949.938C1382.09 948.844 1370.07 961.863 1368.67 979.017C1367.27 996.17 1377.03 1010.96 1390.46 1012.06C1403.89 1013.15 1415.91 1000.13 1417.3 982.979Z" fill="#22A7F0"/>
<path d="M1372.03 983.104C1373.29 970.59 1382.99 960.985 1393.48 959.224C1405.87 957.147 1415.86 966.933 1419.77 982.107C1420.13 978.774 1420.04 975.246 1419.43 971.673C1416.56 954.705 1401.78 946.996 1388.48 949.224C1375.2 951.477 1368.45 962.802 1371.32 979.796C1371.51 980.908 1371.74 982.015 1372.03 983.104Z" fill="white"/>
<g opacity="0.35">
<path d="M1390.44 1012.04C1403.87 1013.12 1415.88 1000.09 1417.27 982.938C1417.59 979.22 1417.35 975.618 1416.68 972.24C1412.29 983.851 1402.65 991.615 1392.15 990.774C1381.65 989.907 1373.4 980.704 1370.98 968.512C1369.74 971.732 1368.96 975.28 1368.65 978.998C1367.25 996.15 1377 1010.93 1390.44 1012.04Z" fill="#371A45"/>
</g>
<path d="M1392.03 1017.09C1391.36 1017.09 1390.69 1017.06 1390.02 1017.01C1381.96 1016.35 1374.78 1011.83 1369.8 1004.28C1365.07 997.111 1362.89 987.983 1363.65 978.579C1365.27 958.705 1379.73 943.606 1395.89 944.923C1403.95 945.579 1411.13 950.1 1416.11 957.651C1420.84 964.82 1423.02 973.947 1422.26 983.352C1421.49 992.757 1417.86 1001.41 1412.04 1007.72C1406.41 1013.81 1399.38 1017.09 1392.03 1017.09ZM1373.62 979.391C1373.04 986.579 1374.64 993.463 1378.15 998.775C1381.4 1003.7 1385.9 1006.64 1390.83 1007.04C1395.77 1007.44 1400.68 1005.28 1404.69 1000.94C1409 996.263 1411.7 989.73 1412.29 982.542C1412.87 975.354 1411.27 968.47 1407.77 963.158C1404.51 958.229 1400.01 955.293 1395.08 954.891C1384.41 954.021 1374.79 965.014 1373.62 979.391Z" fill="#371A45"/>
<path d="M1336.71 1067.17C1336.55 1067.17 1336.39 1067.17 1336.23 1067.15C1332.09 1066.89 1328.96 1063.33 1329.22 1059.19L1332.2 1012.29C1332.73 1003.91 1329.05 995.882 1322.35 990.811C1311.38 982.496 1305.51 969.339 1306.66 955.617L1312.19 889.604C1312.53 885.477 1316.16 882.408 1320.29 882.756C1324.42 883.102 1327.48 886.728 1327.14 890.856L1321.61 956.869C1320.89 965.441 1324.56 973.66 1331.41 978.854C1342.13 986.972 1348.02 999.828 1347.17 1013.24L1344.19 1060.14C1343.94 1064.12 1340.64 1067.17 1336.71 1067.17Z" fill="#371A45"/>
<path d="M1563.6 1097.62C1549.22 1097.62 1534.72 1097.53 1520.17 1097.34L1519.97 1097.34C1510.69 1097.21 1501.09 1097.07 1491.53 1096.85L1491.05 1096.83C1483.69 1096.67 1476.2 1096.51 1468.67 1096.3L1467.29 1096.26C1457.22 1095.98 1447.04 1095.66 1437.04 1095.3C1399.68 1093.89 1363.1 1091.94 1328.29 1089.49C1306.33 1087.97 1284.44 1086.22 1263.24 1084.3C1257.64 1083.82 1252.08 1083.3 1246.69 1082.8L1246.58 1082.79L1245.87 1082.72C1242.86 1082.4 1239.89 1082.11 1236.92 1081.83L1236.79 1081.82C1226.98 1080.85 1216.67 1079.77 1205.25 1078.5C1204.82 1078.46 1204.38 1078.41 1203.96 1078.34L1203.8 1078.33C1203.17 1078.26 1202.41 1078.18 1201.54 1078.06C1200.51 1077.96 1199.4 1077.84 1198.25 1077.69C1196.8 1077.55 1195.42 1077.39 1194.18 1077.23C1169.36 1074.4 1145.05 1071.28 1121.92 1067.95C1088.87 1063.25 1056.75 1057.97 1026.47 1052.25C937.46 1035.44 861.934 1014.39 808.057 991.386C747.358 965.467 713.86 937.846 705.647 906.946L705.369 905.898L705.233 904.822C704.558 899.457 704.151 893.857 704.024 888.177C703.825 879.295 710.863 871.934 719.745 871.735C728.627 871.529 735.988 878.574 736.187 887.456C736.28 891.621 736.558 895.711 737.011 899.633C740.631 911.433 756.525 934.401 820.691 961.8C872.461 983.906 945.683 1004.25 1032.44 1020.64C1062.24 1026.27 1093.88 1031.47 1126.47 1036.1C1149.35 1039.39 1173.37 1042.48 1197.91 1045.28L1198.03 1045.3C1199.2 1045.44 1200.36 1045.58 1201.52 1045.69L1202.29 1045.77C1203.1 1045.89 1204.08 1045.98 1205.11 1046.09L1206.05 1046.21C1206.39 1046.26 1206.72 1046.29 1207.06 1046.32C1207.43 1046.36 1207.81 1046.4 1208.19 1046.44L1210.09 1046.67C1220.86 1047.86 1230.62 1048.89 1239.89 1049.8L1239.97 1049.81C1242.98 1050.09 1245.98 1050.38 1249.02 1050.71L1249.14 1050.72C1254.64 1051.23 1260.33 1051.77 1266.06 1052.26C1287.11 1054.16 1308.78 1055.89 1330.53 1057.4C1365.01 1059.82 1401.24 1061.76 1438.23 1063.15C1448.11 1063.51 1458.19 1063.83 1468.18 1064.11L1469.56 1064.14C1477.03 1064.35 1484.46 1064.51 1491.84 1064.67L1492.39 1064.69C1501.77 1064.91 1511.26 1065.04 1520.43 1065.18L1520.6 1065.18C1559.1 1065.66 1597.19 1065.5 1633.81 1064.69C1657.68 1064.15 1681.43 1063.34 1704.41 1062.29C1709.31 1062.09 1714.19 1061.84 1718.92 1061.61L1720.29 1061.52C1738.29 1060.57 1752.75 1059.72 1765.77 1058.84C1767.39 1058.72 1769 1058.61 1770.62 1058.5C1772.19 1058.39 1773.77 1058.28 1775.34 1058.16C1898.3 1049.35 2004.52 1032.95 2082.59 1010.72C2183.77 981.913 2205.46 952.574 2210.04 940.327C2210.71 936.301 2211.2 932.218 2211.51 928.17C2212.2 919.313 2219.94 912.694 2228.8 913.378C2237.65 914.066 2244.28 921.804 2243.59 930.661C2243.16 936.135 2242.47 941.66 2241.53 947.084L2241.33 948.221L2240.98 949.318C2234.67 968.647 2217.53 986.571 2190.03 1002.59C2165.54 1016.86 2132.36 1030 2091.4 1041.66C2011.24 1064.48 1902.77 1081.28 1777.71 1090.24C1776.14 1090.36 1774.5 1090.48 1772.85 1090.59C1771.28 1090.7 1769.7 1090.81 1768.13 1090.93L1767.99 1090.94C1754.81 1091.82 1740.22 1092.68 1722.07 1093.65L1720.08 1093.77L1719.93 1093.77C1715.32 1094 1710.56 1094.23 1705.8 1094.43C1682.66 1095.49 1658.65 1096.31 1634.53 1096.86C1611.38 1097.36 1587.65 1097.62 1563.6 1097.62Z" fill="#371A45"/>
<path d="M1709.98 932.368C1764.21 1014.01 1661.4 1056.64 1486.09 1023.64C1486.09 1023.64 1456.38 976.228 1503.8 950.491C1503.8 950.491 1632.07 993.37 1709.98 932.368Z" fill="white"/>
<g opacity="0.35">
<path d="M1486.1 1023.63C1651.16 1050.78 1707.88 1025.22 1722.89 980.414C1717.08 987.145 1711.68 990.117 1711.68 990.117C1711.68 990.117 1649.06 1026.37 1521.98 1004.77C1501.15 1001.31 1485.97 981.624 1489.69 960.783C1463.22 987.123 1486.1 1023.63 1486.1 1023.63Z" fill="#371A45"/>
</g>
<path d="M1594.84 1044.84C1565.17 1044.84 1531.77 1041.77 1495.62 1035.52C1484.3 1033.57 1474.93 1025.71 1471.16 1015.03C1461.78 988.444 1467.74 964.984 1487.94 948.967C1495.57 942.923 1505.87 940.887 1515.51 943.522C1539.96 950.207 1624.55 969.417 1686.39 935.889C1694.88 931.285 1704.86 930.742 1713.77 934.396C1722.37 937.928 1728.85 945.013 1731.53 953.834C1737.78 974.42 1734.09 993.231 1720.84 1008.23C1699.58 1032.3 1654.85 1044.84 1594.84 1044.84ZM1507.07 962.387C1504.6 962.387 1502.23 963.163 1500.37 964.639C1487 975.237 1483.52 989.951 1490.02 1008.37C1491.39 1012.24 1494.84 1015.09 1499.03 1015.82C1550.55 1024.72 1597.37 1027.09 1634.45 1022.68C1668.77 1018.59 1693.47 1009.01 1705.85 994.993C1714.5 985.195 1716.64 973.634 1712.39 959.65C1711.12 955.476 1707.95 953.629 1706.17 952.9C1702.85 951.535 1699.12 951.744 1695.93 953.472C1666.61 969.367 1630.23 976.576 1587.81 974.897C1553.85 973.553 1524.63 966.75 1510.23 962.814C1509.18 962.527 1508.11 962.387 1507.07 962.387Z" fill="#371A45"/>
<g opacity="0.35">
<path d="M1089.72 1461.31C1165.64 1385.38 1165.64 1262.28 1089.72 1186.36C1013.79 1110.43 890.69 1110.43 814.764 1186.36C738.837 1262.28 738.837 1385.38 814.764 1461.31C890.69 1537.24 1013.79 1537.24 1089.72 1461.31Z" fill="#371A45"/>
</g>
<path d="M943.333 1475.96C1039.89 1475.96 1118.17 1397.68 1118.17 1301.12C1118.17 1204.57 1039.89 1126.29 943.333 1126.29C846.774 1126.29 768.498 1204.57 768.498 1301.12C768.498 1397.68 846.774 1475.96 943.333 1475.96Z" fill="#E62058"/>
<g opacity="0.3">
<path d="M785.944 1293.15C803.099 1198.13 894.036 1135 989.059 1152.16C1034.23 1160.31 1072.17 1185.16 1097.72 1219.18C1073.44 1173.5 1029.25 1138.97 974.394 1129.07C879.372 1111.92 788.433 1175.04 771.279 1270.06C762.28 1319.91 775.401 1368.62 803.606 1406.16C785.827 1372.72 778.694 1333.31 785.944 1293.15Z" fill="white"/>
</g>
<g opacity="0.35">
<path d="M912.287 1473.17C1007.28 1490.31 1098.24 1427.23 1115.4 1332.2C1120.78 1302.31 1118.22 1272.83 1109.23 1245.92C1109.82 1258.83 1109 1271.98 1106.62 1285.25C1089.46 1380.28 998.53 1443.41 903.498 1426.26C838.349 1414.49 788.196 1368 768.676 1309.35C772.331 1388.97 830.494 1458.39 912.287 1473.17Z" fill="#371A45"/>
</g>
<path d="M943.729 1488.51C932.547 1488.51 921.288 1487.51 910.05 1485.48C860.807 1476.59 817.973 1449.06 789.44 1407.95C760.906 1366.84 750.088 1317.08 758.978 1267.84C767.868 1218.6 795.402 1175.77 836.509 1147.23C877.614 1118.7 927.373 1107.88 976.615 1116.77C1025.86 1125.66 1068.69 1153.19 1097.23 1194.3C1125.76 1235.41 1136.58 1285.16 1127.69 1334.41C1118.8 1383.65 1091.26 1426.48 1050.16 1455.02C1018.43 1477.04 981.547 1488.51 943.729 1488.51ZM942.989 1138.75C910.215 1138.75 878.258 1148.68 850.764 1167.77C815.143 1192.49 791.284 1229.61 783.58 1272.28C775.876 1314.96 785.251 1358.07 809.977 1393.69C834.703 1429.31 871.82 1453.17 914.492 1460.88C957.163 1468.58 1000.28 1459.21 1035.9 1434.48C1071.52 1409.75 1095.38 1372.64 1103.09 1329.96C1110.79 1287.29 1101.41 1244.18 1076.69 1208.55C1051.96 1172.93 1014.85 1149.07 972.173 1141.37C962.438 1139.61 952.676 1138.75 942.989 1138.75Z" fill="#371A45"/>
<path d="M1020.28 1377.35C1063.72 1333.91 1063.72 1263.49 1020.28 1220.05C976.843 1176.62 906.419 1176.62 862.983 1220.05C819.546 1263.49 819.546 1333.91 862.982 1377.35C906.419 1420.79 976.843 1420.79 1020.28 1377.35Z" fill="#22A7F0"/>
<g opacity="0.3">
<path d="M921.9 1408.18C982.358 1419.1 1040.2 1378.93 1051.11 1318.47C1053.49 1305.38 1053.46 1292.39 1051.31 1280C1051.14 1281.22 1050.94 1282.43 1050.72 1283.68C1039.81 1344.14 981.969 1384.31 921.511 1373.4C874.139 1364.86 839.245 1327.5 831.6 1282.66C822.928 1341.75 862.691 1397.48 921.9 1408.18Z" fill="white"/>
</g>
<g opacity="0.35">
<path d="M832.536 1326.41C832.804 1324.52 833.071 1322.63 833.42 1320.73C844.334 1260.27 902.172 1220.1 962.63 1231.02C1008.13 1239.22 1042.16 1274.04 1051.5 1316.53C1058.98 1258.16 1019.46 1203.56 960.904 1193C900.482 1182.09 842.618 1222.22 831.703 1282.67C829.025 1297.64 829.419 1312.45 832.536 1326.41Z" fill="#371A45"/>
</g>
<path d="M941.918 1422.47C934.532 1422.47 927.096 1421.81 919.674 1420.47C852.536 1408.35 807.776 1343.86 819.897 1276.73C825.769 1244.2 843.954 1215.91 871.103 1197.07C898.252 1178.22 931.115 1171.08 963.638 1176.95C996.161 1182.82 1024.45 1201.01 1043.3 1228.15C1062.14 1255.3 1069.29 1288.17 1063.42 1320.69C1057.54 1353.21 1039.36 1381.5 1012.21 1400.35C991.256 1414.89 966.895 1422.47 941.918 1422.47ZM924.116 1395.86C950.068 1400.55 976.29 1394.85 997.953 1379.81C1019.62 1364.77 1034.13 1342.2 1038.81 1316.25C1043.5 1290.3 1037.8 1264.07 1022.76 1242.41C1007.72 1220.75 985.147 1206.24 959.195 1201.55C933.243 1196.87 907.021 1202.57 885.358 1217.6C863.695 1232.64 849.184 1255.22 844.499 1281.17C834.828 1334.74 870.544 1386.19 924.116 1395.86Z" fill="#371A45"/>
<g opacity="0.35">
<path d="M1956.22 1518.26C2063.6 1518.26 2150.64 1431.22 2150.64 1323.84C2150.64 1216.46 2063.6 1129.42 1956.22 1129.42C1848.84 1129.42 1761.8 1216.46 1761.8 1323.84C1761.8 1431.22 1848.84 1518.26 1956.22 1518.26Z" fill="#371A45"/>
</g>
<path d="M1947.29 1475.96C2043.84 1475.96 2122.12 1397.68 2122.12 1301.12C2122.12 1204.57 2043.84 1126.29 1947.29 1126.29C1850.73 1126.29 1772.45 1204.57 1772.45 1301.12C1772.45 1397.68 1850.73 1475.96 1947.29 1475.96Z" fill="#E62058"/>
<g opacity="0.3">
<path d="M1789.9 1293.15C1807.05 1198.13 1897.99 1135 1993.01 1152.16C2038.19 1160.31 2076.12 1185.16 2101.68 1219.18C2077.39 1173.5 2033.21 1138.97 1978.35 1129.07C1883.33 1111.92 1792.39 1175.04 1775.23 1270.06C1766.23 1319.91 1779.36 1368.62 1807.56 1406.16C1789.78 1372.72 1782.65 1333.31 1789.9 1293.15Z" fill="white"/>
</g>
<g opacity="0.35">
<path d="M1916.24 1473.17C2011.24 1490.31 2102.2 1427.23 2119.35 1332.2C2124.73 1302.31 2122.18 1272.83 2113.18 1245.92C2113.77 1258.83 2112.96 1271.98 2110.57 1285.25C2093.42 1380.28 2002.48 1443.41 1907.45 1426.26C1842.3 1414.49 1792.15 1368 1772.63 1309.35C1776.28 1388.97 1834.45 1458.39 1916.24 1473.17Z" fill="#371A45"/>
</g>
<path d="M1947.68 1488.51C1936.5 1488.51 1925.24 1487.51 1914 1485.48C1864.76 1476.59 1821.93 1449.06 1793.39 1407.95C1764.86 1366.84 1754.04 1317.08 1762.93 1267.84C1771.82 1218.6 1799.36 1175.77 1840.46 1147.23C1881.57 1118.7 1931.33 1107.88 1980.57 1116.77C2029.81 1125.66 2072.65 1153.19 2101.18 1194.3C2129.71 1235.41 2140.53 1285.16 2131.64 1334.41C2122.75 1383.65 2095.22 1426.48 2054.11 1455.02C2022.39 1477.04 1985.5 1488.51 1947.68 1488.51ZM1946.94 1138.75C1914.17 1138.75 1882.21 1148.68 1854.72 1167.77C1819.1 1192.49 1795.24 1229.61 1787.53 1272.28C1779.83 1314.96 1789.21 1358.07 1813.93 1393.69C1838.66 1429.31 1875.77 1453.17 1918.45 1460.88C1961.12 1468.58 2004.24 1459.21 2039.86 1434.48C2075.48 1409.75 2099.34 1372.64 2107.04 1329.97C2114.74 1287.29 2105.37 1244.18 2080.64 1208.56C2055.92 1172.94 2018.8 1149.08 1976.13 1141.37C1966.39 1139.61 1956.63 1138.75 1946.94 1138.75Z" fill="#371A45"/>
<path d="M2024.23 1377.36C2067.66 1333.92 2067.66 1263.5 2024.23 1220.06C1980.79 1176.62 1910.36 1176.62 1866.93 1220.06C1823.49 1263.5 1823.49 1333.92 1866.93 1377.36C1910.36 1420.79 1980.79 1420.79 2024.23 1377.36Z" fill="#22A7F0"/>
<g opacity="0.3">
<path d="M1925.85 1408.18C1986.31 1419.1 2044.15 1378.93 2055.06 1318.47C2057.44 1305.38 2057.41 1292.39 2055.26 1280C2055.09 1281.22 2054.89 1282.43 2054.67 1283.68C2043.76 1344.14 1985.92 1384.31 1925.46 1373.4C1878.09 1364.86 1843.2 1327.5 1835.55 1282.66C1826.88 1341.75 1866.64 1397.48 1925.85 1408.18Z" fill="white"/>
</g>
<g opacity="0.35">
<path d="M1836.49 1326.41C1836.76 1324.52 1837.03 1322.63 1837.37 1320.73C1848.29 1260.27 1906.13 1220.1 1966.58 1231.02C2012.09 1239.22 2046.11 1274.04 2055.46 1316.53C2062.94 1258.16 2023.41 1203.56 1964.86 1193C1904.44 1182.09 1846.57 1222.22 1835.66 1282.67C1832.98 1297.64 1833.37 1312.45 1836.49 1326.41Z" fill="#371A45"/>
</g>
<path d="M1945.87 1422.47C1938.49 1422.47 1931.05 1421.81 1923.63 1420.47C1856.49 1408.35 1811.73 1343.86 1823.85 1276.73C1829.72 1244.2 1847.91 1215.91 1875.06 1197.07C1902.2 1178.22 1935.07 1171.08 1967.59 1176.95C2034.73 1189.07 2079.49 1253.55 2067.37 1320.69C2061.5 1353.21 2043.31 1381.5 2016.16 1400.35C1995.21 1414.89 1970.85 1422.47 1945.87 1422.47ZM1928.07 1395.86C1954.02 1400.55 1980.24 1394.85 2001.91 1379.81C2023.57 1364.77 2038.08 1342.2 2042.77 1316.25C2052.44 1262.68 2016.72 1211.22 1963.15 1201.55C1937.2 1196.87 1910.98 1202.57 1889.31 1217.6C1867.65 1232.64 1853.14 1255.22 1848.45 1281.17C1838.78 1334.74 1874.5 1386.19 1928.07 1395.86Z" fill="#371A45"/>
<g opacity="0.35">
<path d="M1591.69 1533.23C1667.62 1457.3 1667.62 1334.2 1591.69 1258.28C1515.76 1182.35 1392.66 1182.35 1316.74 1258.28C1240.81 1334.2 1240.81 1457.3 1316.74 1533.23C1392.66 1609.16 1515.76 1609.16 1591.69 1533.23Z" fill="#371A45"/>
</g>
<path d="M1568.91 1496.66C1637.18 1428.39 1637.18 1317.69 1568.91 1249.41C1500.63 1181.13 1389.93 1181.13 1321.66 1249.41C1253.38 1317.69 1253.38 1428.39 1321.66 1496.66C1389.93 1564.94 1500.63 1564.94 1568.91 1496.66Z" fill="#E62058"/>
<g opacity="0.3">
<path d="M1287.92 1365.07C1305.08 1270.04 1396.01 1206.92 1491.04 1224.08C1536.21 1232.23 1574.14 1257.08 1599.7 1291.09C1575.42 1245.42 1531.23 1210.89 1476.37 1200.99C1381.35 1183.83 1290.41 1246.96 1273.26 1341.98C1264.26 1391.83 1277.38 1440.54 1305.58 1478.07C1287.8 1444.64 1280.67 1405.23 1287.92 1365.07Z" fill="white"/>
</g>
<g opacity="0.35">
<path d="M1414.26 1545.09C1509.26 1562.23 1600.22 1499.15 1617.37 1404.12C1622.76 1374.23 1620.2 1344.75 1611.21 1317.84C1611.8 1330.74 1610.98 1343.89 1608.59 1357.17C1591.44 1452.2 1500.5 1515.33 1405.47 1498.17C1340.32 1486.41 1290.17 1439.92 1270.65 1381.26C1274.31 1460.89 1332.47 1530.31 1414.26 1545.09Z" fill="#371A45"/>
</g>
<path d="M1445.71 1560.43C1434.52 1560.43 1423.27 1559.43 1412.03 1557.4C1310.37 1539.04 1242.6 1441.41 1260.95 1339.76C1279.31 1238.11 1376.94 1170.34 1478.59 1188.69C1580.25 1207.04 1648.02 1304.67 1629.66 1406.32C1620.77 1455.57 1593.24 1498.4 1552.13 1526.93C1520.41 1548.96 1483.53 1560.43 1445.71 1560.43ZM1416.47 1532.79C1459.14 1540.5 1502.26 1531.12 1537.88 1506.4C1573.5 1481.67 1597.36 1444.55 1605.06 1401.88C1620.97 1313.79 1562.24 1229.19 1474.15 1213.29C1431.48 1205.59 1388.36 1214.96 1352.74 1239.69C1317.12 1264.41 1293.26 1301.53 1285.56 1344.2C1269.65 1432.29 1328.38 1516.89 1416.47 1532.79Z" fill="#371A45"/>
<path d="M1522.25 1449.27C1565.69 1405.83 1565.69 1335.41 1522.25 1291.97C1478.82 1248.54 1408.39 1248.54 1364.96 1291.97C1321.52 1335.41 1321.52 1405.83 1364.96 1449.27C1408.39 1492.71 1478.82 1492.71 1522.25 1449.27Z" fill="#22A7F0"/>
<g opacity="0.3">
<path d="M1423.88 1480.1C1484.33 1491.01 1542.17 1450.84 1553.09 1390.39C1555.46 1377.3 1555.43 1364.31 1553.29 1351.92C1553.12 1353.14 1552.91 1354.35 1552.7 1355.6C1541.78 1416.06 1483.95 1456.23 1423.49 1445.31C1376.12 1436.77 1341.22 1399.42 1333.58 1354.57C1324.9 1413.66 1364.67 1469.4 1423.88 1480.1Z" fill="white"/>
</g>
<g opacity="0.35">
<path d="M1334.51 1398.33C1334.78 1396.44 1335.05 1394.55 1335.4 1392.65C1346.31 1332.19 1404.15 1292.02 1464.61 1302.94C1510.11 1311.13 1544.13 1345.96 1553.48 1388.44C1560.96 1330.08 1521.43 1275.48 1462.88 1264.92C1402.46 1254.01 1344.59 1294.14 1333.68 1354.59C1331 1369.56 1331.4 1384.37 1334.51 1398.33Z" fill="#371A45"/>
</g>
<path d="M1443.69 1494.36C1436.42 1494.36 1429.06 1493.72 1421.65 1492.38C1389.13 1486.51 1360.84 1468.33 1341.99 1441.18C1323.15 1414.03 1316 1381.17 1321.87 1348.64C1333.99 1281.5 1398.47 1236.75 1465.61 1248.87C1498.14 1254.74 1526.43 1272.92 1545.27 1300.07C1564.12 1327.22 1571.26 1360.08 1565.39 1392.61C1554.61 1452.34 1502.36 1494.36 1443.69 1494.36ZM1443.59 1271.89C1396.77 1271.89 1355.08 1305.42 1346.48 1353.08C1341.79 1379.04 1347.49 1405.26 1362.53 1426.92C1377.57 1448.59 1400.14 1463.1 1426.09 1467.78C1479.67 1477.46 1531.12 1441.74 1540.79 1388.17C1545.48 1362.21 1539.77 1335.99 1524.74 1314.33C1509.7 1292.66 1487.13 1278.15 1461.17 1273.47C1455.27 1272.4 1449.39 1271.89 1443.59 1271.89Z" fill="#371A45"/>
<rect x="1235.27" y="1176.09" width="422.7" height="422.7" rx="65" fill="#FEFEFE"/>
<path d="M1529.77 1359.52H1418.7C1388.02 1359.52 1363.48 1383.45 1362.25 1414.13C1362.25 1414.74 1362.86 1415.36 1363.48 1415.36H1474.54C1505.23 1415.36 1529.77 1391.42 1531 1360.74C1531 1360.13 1530.38 1359.52 1529.77 1359.52Z" fill="#E62058"/>
<path d="M1585.61 1275.45H1418.7C1388.02 1275.45 1363.48 1299.38 1362.25 1330.06C1362.25 1330.67 1362.86 1331.9 1363.48 1331.9H1531C1561.68 1331.9 1586.23 1307.97 1587.45 1277.29C1587.45 1276.06 1586.84 1275.45 1585.61 1275.45Z" fill="#E62058"/>
<path d="M1390.48 1500.04C1406.06 1500.04 1418.7 1487.4 1418.7 1471.81C1418.7 1456.22 1406.06 1443.58 1390.48 1443.58C1374.89 1443.58 1362.25 1456.22 1362.25 1471.81C1362.25 1487.4 1374.89 1500.04 1390.48 1500.04Z" fill="#E62058"/>
</svg>
