<svg width="3326" height="1809" viewBox="0 0 3326 1809" fill="none" xmlns="http://www.w3.org/2000/svg">
<path d="M2663.13 1110.81C2663.13 1110.81 2839.03 879.482 3292.33 1244.22C3313.62 1261.36 3313.91 1293.67 3292.79 1311.03C3179.37 1404.25 2848.22 1645.23 2665.7 1448.73L2663.13 1110.81Z" fill="#E81818"/>
<path d="M2662.51 1159.67C2662.51 1159.67 2787.33 995.506 3109.14 1255.43C3123.23 1266.81 3123.4 1288.26 3109.44 1299.79C3030.96 1364.62 2794.32 1538.54 2664.32 1398.59L2662.51 1159.67Z" fill="#E7A900"/>
<path d="M2650.12 1198.74C2650.12 1198.74 2734.34 1087.97 2951.49 1263.36C2961 1271.03 2961.11 1285.51 2951.69 1293.29C2898.73 1337.03 2739.06 1454.39 2651.34 1359.96L2650.12 1198.74Z" fill="#FFFD01"/>
<path d="M2842.42 1540.86C2836.09 1540.86 2829.84 1540.67 2823.69 1540.3C2755.94 1536.15 2698.57 1509.26 2653.17 1460.38C2650.26 1457.24 2648.63 1453.14 2648.59 1448.86L2646.03 1110.94C2646 1107.16 2647.23 1103.47 2649.52 1100.46C2651.49 1097.87 2699.04 1036.79 2805.51 1023.78C2866.67 1016.31 2934.99 1026.28 3008.57 1053.41C3099.08 1086.78 3198.16 1146.5 3303.05 1230.9C3317.27 1242.34 3325.48 1259.34 3325.57 1277.56C3325.67 1295.7 3317.68 1312.72 3303.65 1324.25C3247.02 1370.8 3133.75 1456.1 3011.45 1504.44C2950.19 1528.64 2893.44 1540.86 2842.42 1540.86ZM2682.75 1441.83C2755.79 1516.3 2862.1 1526.66 2998.87 1472.62C3116.83 1426 3226.85 1343.09 3281.93 1297.82C3287.96 1292.86 3291.4 1285.54 3291.36 1277.73C3291.32 1269.86 3287.76 1262.51 3281.6 1257.55C3051.99 1072.8 2898.22 1046.92 2809.66 1057.74C2732.67 1067.14 2691.92 1104.63 2680.29 1117.11L2682.75 1441.83Z" fill="#371A45"/>
<path d="M2683.79 803.138C2642.06 828.32 2445.04 945.042 2448.5 1069.46L2240.33 976.132C2240.97 970.062 2241.99 963.716 2243.4 957.222L2243.39 957.191C2263.74 863.903 2367.64 732.854 2675.32 792.74C2677.6 793.172 2679.9 793.636 2682.23 794.093C2686.61 794.966 2687.62 800.816 2683.79 803.138Z" fill="black"/>
<g opacity="0.5">
<path d="M2683.79 803.148C2678.28 806.486 2670.08 811.392 2659.95 817.746C2378.53 772.223 2279.64 894.273 2258.33 984.232L2240.31 976.149C2240.96 970.077 2242 963.722 2243.41 957.207H2243.37C2263.76 863.911 2367.63 732.854 2675.31 792.733C2677.6 793.175 2679.89 793.618 2682.22 794.1C2686.61 794.984 2687.61 800.815 2683.79 803.148Z" fill="white"/>
</g>
<g opacity="0.25">
<path d="M2678.79 793.138C2637.06 818.32 2440.04 935.042 2443.5 1059.46L2235.33 966.132C2235.97 960.062 2236.99 953.716 2238.4 947.222L2235.75 955.971C2250.92 948.958 2275.29 941.408 2298.57 943.815C2384.13 952.665 2429.03 950.981 2470.71 906.731C2522.96 851.256 2621.16 792.55 2670.32 782.74C2672.61 783.172 2674.9 783.636 2677.23 784.093C2681.61 784.966 2682.62 790.816 2678.79 793.138Z" fill="#371A45"/>
</g>
<path d="M2448.49 1085.56C2439.81 1085.56 2432.66 1078.65 2432.41 1069.92C2430.84 1013.06 2465.71 952.279 2536.05 889.26C2576.96 852.607 2621.48 822.851 2650.64 804.567C2513.58 781.3 2404.69 795.96 2334.57 847.4C2271.54 893.642 2258.85 954.014 2256.33 977.823C2255.39 986.657 2247.47 993.058 2238.63 992.121C2229.8 991.183 2223.4 983.262 2224.34 974.427C2227.31 946.367 2242.16 875.291 2315.54 821.459C2353.91 793.313 2402.05 774.842 2458.61 766.56C2523.45 757.066 2599.76 761.021 2685.4 778.314C2693.96 780.042 2700.45 786.722 2701.95 795.334C2703.44 803.94 2699.58 812.411 2692.11 816.915L2690.13 818.107C2668.06 831.398 2609.44 866.703 2557.52 913.221C2494.54 969.638 2463.27 1022.06 2464.57 1069.03C2464.82 1077.91 2457.82 1085.3 2448.94 1085.55C2448.79 1085.56 2448.64 1085.56 2448.49 1085.56Z" fill="#371A45"/>
<path d="M2433.31 1557.61L2542.6 1537.83C2592.04 1528.88 2631.54 1497.29 2645.44 1455.59C2686.83 1331.4 2687.77 1199.56 2648.17 1074.35C2634.87 1032.31 2595.83 999.739 2546.52 989.553L2437.54 967.039L2433.31 1557.61Z" fill="#22A7F0"/>
<g opacity="0.5">
<path d="M2648.17 1074.35C2634.87 1032.31 2595.83 999.738 2546.52 989.552L2437.54 967.038L2437.27 1004.89L2532.45 1024.55C2581.75 1034.74 2620.79 1067.31 2634.1 1109.35C2672.23 1229.91 2672.66 1356.59 2635.7 1476.7C2639.68 1470.02 2642.98 1462.97 2645.44 1455.58C2686.83 1331.4 2687.77 1199.56 2648.17 1074.35Z" fill="white"/>
</g>
<g opacity="0.3">
<path d="M2532.77 1497.82C2582.19 1488.89 2621.72 1457.28 2635.59 1415.58C2651.99 1366.37 2661.97 1315.96 2665.67 1265.22C2665.73 1265.18 2665.78 1265.13 2665.84 1265.09C2636.37 1285.72 2594.63 1300.41 2546.7 1305.93L2434.99 1318.8L2433.57 1515.78L2532.77 1497.82Z" fill="#371A45"/>
</g>
<path d="M2234.42 1564.46C2242.47 1658.22 2336.44 1821.45 2672.52 1760.58C2676.92 1759.78 2678.07 1753.95 2674.28 1751.56C2633.05 1725.55 2438.48 1599.31 2444.42 1474.98" fill="#D25658"/>
<path d="M2672.51 1760.6C2676.92 1759.77 2678.05 1753.95 2674.26 1751.56C2653.16 1738.23 2591.81 1698.61 2537.79 1646.4C2486.72 1597.1 2442.21 1536.51 2444.39 1476.31C2444.4 1475.88 2444.44 1475.41 2444.44 1474.98L2443.16 1475.52L2234.44 1564.44C2236.7 1590.76 2245.72 1622.56 2265.01 1653.33C2314.29 1732.2 2430.74 1804.36 2672.51 1760.6Z" fill="black"/>
<g opacity="0.35">
<path d="M2537.79 1646.4C2486.72 1597.1 2442.21 1536.51 2444.39 1476.31C2443.98 1476.06 2443.58 1475.77 2443.16 1475.52L2234.44 1564.44C2236.7 1590.76 2245.72 1622.56 2265.01 1653.33C2331.95 1676.82 2421.43 1681.12 2537.79 1646.4Z" fill="#371A45"/>
</g>
<path d="M2536.47 1789.9C2505.98 1789.9 2477.33 1787.62 2450.63 1783.06C2394.62 1773.5 2346.99 1753.94 2309.04 1724.91C2280.54 1703.1 2258 1676.42 2242.05 1645.6C2225.4 1613.42 2220 1584.46 2218.4 1565.83C2217.64 1556.98 2224.2 1549.19 2233.05 1548.43C2241.9 1547.67 2249.69 1554.23 2250.45 1563.08C2252.1 1582.29 2262.61 1648.89 2328.59 1699.36C2397.97 1752.43 2505.74 1769.57 2641.48 1749.4C2608.49 1727.26 2567.88 1697.2 2530.59 1661.81C2460 1594.82 2425.61 1531.7 2428.36 1474.21C2428.78 1465.34 2436.32 1458.5 2445.19 1458.91C2454.07 1459.34 2460.92 1466.88 2460.49 1475.75C2458.24 1522.79 2490.14 1579.06 2552.74 1638.47C2597.92 1681.36 2648.44 1716.24 2682.86 1737.95C2690.24 1742.61 2693.93 1751.15 2692.27 1759.73C2690.6 1768.31 2683.97 1774.85 2675.38 1776.41C2625.77 1785.4 2579.32 1789.9 2536.47 1789.9Z" fill="#371A45"/>
<path d="M2474.7 1077.92C2514.81 1237.5 2501.02 1404.14 2433.29 1557.61C2433.29 1557.61 2035.48 1841.23 1249.99 1784.92C327.858 1718.82 0.423828 1231.82 0.423828 1231.82C0.423828 1231.82 284.904 824.62 1053.18 727.634C1117.87 719.434 1186.03 713.485 1257.69 710.155C1498.51 698.955 1702.49 718.695 1869.58 751.509C2248.09 825.816 2437.55 967.017 2437.55 967.017C2452.88 1003.42 2465.28 1040.46 2474.7 1077.92Z" fill="white"/>
<g opacity="0.3">
<path d="M1249.97 1784.91C2035.47 1841.23 2433.33 1557.62 2433.33 1557.62C2465.73 1484.17 2485.75 1407.68 2493.46 1330.38C2505.64 1208.35 2487.02 1084.31 2437.56 967.012C2437.56 967.012 2336.63 891.8 2134.94 822.247C2201.4 856.555 2326.59 921.138 2386.11 990.304C2455.5 1070.93 2445.85 1180.04 2290.59 1244.71C2289.87 1245 2239.23 1267.88 2239.69 1268.51C2348.63 1416.3 2198.12 1536.37 2028.34 1599.86C1720.91 1714.83 1363.19 1733.47 1062.01 1652.77C969.128 1627.88 771.98 1559.2 721.402 1436.93C614.307 1178.03 692.792 915.443 636.672 913.832C550.07 911.347 508.737 1601.25 444.689 1578.6C637.725 1674.82 901.344 1759.9 1249.97 1784.91Z" fill="#371A45"/>
</g>
<path d="M659.948 1668.55C591.714 1385.29 593.803 1093.25 666.079 811.694C321.339 921.81 128.056 1091.01 46.7621 1177.24C17.6991 1208.07 17.2571 1255.92 45.7111 1287.32C125.602 1375.46 316.472 1549.69 659.948 1668.55Z" fill="black"/>
<g opacity="0.5">
<path d="M76.7631 1212.24C154.702 1129.56 335.675 970.664 654.27 860.649C657.98 844.299 661.899 827.976 666.08 811.693C321.34 921.808 128.056 1091.01 46.7621 1177.24C17.6981 1208.07 17.258 1255.92 45.711 1287.32C51.741 1293.97 58.4861 1301.17 65.7991 1308.74C47.9481 1278.28 51.6301 1238.9 76.7631 1212.24Z" fill="white"/>
</g>
<g opacity="0.3">
<path d="M659.976 1668.57C591.705 1385.29 593.786 1093.26 666.114 811.688C657.352 814.466 558.395 1094.34 579.212 1446.33C583.586 1520.29 418.009 1464.78 343.459 1426.96C203.041 1355.72 90.7351 1277.31 16.2961 1211.56C16.1891 1211.69 16.0821 1211.82 15.9761 1211.95C6.37812 1223.57 6.23613 1240.32 15.6281 1252.11C68.2021 1318.06 261.274 1530.59 659.976 1668.57Z" fill="#371A45"/>
</g>
<path d="M682.473 1693.36L654.689 1683.75C501.126 1630.61 361.849 1560.98 240.728 1476.8C138.135 1405.5 69.8017 1338.32 30.5437 1294.51C14.6237 1276.75 5.94374 1254.55 6.10374 1232.01C6.26374 1209.44 15.2767 1187.43 31.4807 1170.03C71.3687 1127.2 140.666 1061.71 244.28 992.964C366.603 911.805 506.87 845.661 661.186 796.37L688.893 787.52L681.661 815.693C609.565 1096.55 607.521 1382.22 675.587 1664.78L682.473 1693.36ZM643.471 836.031C318.78 945.205 136.031 1104.97 55.0237 1191.95C32.7117 1215.91 32.5017 1248.5 54.5007 1273.04C134.248 1362.02 314.638 1526.28 637.634 1643.57C607.862 1510.49 593.27 1374.66 594.238 1239.37C595.207 1103.99 611.762 968.449 643.471 836.031Z" fill="#371A45"/>
<path d="M1453.05 1808.38C1385.96 1808.38 1317.83 1805.91 1248.88 1800.97C1034.85 1785.62 834.932 1746.2 654.688 1683.81C649.206 1681.91 645.252 1677.25 644.166 1671.7C610.003 1529.66 593.204 1384.2 594.24 1239.37C595.278 1094.32 614.207 949.081 650.502 807.693C651.878 802.332 655.915 798.055 661.187 796.37C842.303 738.492 1042.75 704.084 1256.97 694.101C1437.33 685.692 1611.99 694.05 1776.11 718.941C1907.56 738.876 2032.59 769.403 2147.74 809.675C2344.5 878.493 2443.08 951.078 2447.18 954.134C2449.47 955.845 2451.27 958.138 2452.39 960.776C2493.47 1058.1 2513.92 1159.84 2513.18 1263.17C2512.44 1366.48 2490.53 1467.72 2448.06 1564.07C2446.89 1566.72 2445.03 1569 2442.68 1570.68C2438.53 1573.64 2338.91 1643.78 2141.16 1707.68C2025.46 1745.07 1900 1772.47 1768.29 1789.12C1666.76 1801.95 1561.29 1808.38 1453.05 1808.38ZM673.56 1656.27C848.975 1716.1 1043.25 1753.97 1251.18 1768.88C1654.32 1797.78 1952.29 1734.91 2131.27 1677.07C2304.02 1621.24 2401.22 1559.72 2420.45 1546.9C2459.94 1455.85 2480.31 1360.34 2481.01 1262.94C2481.71 1165.49 2462.7 1069.47 2424.5 977.472C2405.48 964.219 2308.19 899.688 2135.48 839.473C1957.61 777.457 1661.06 707.471 1258.47 726.237C1050.41 735.933 855.674 768.924 679.468 824.323C610.24 1099.58 608.248 1379.38 673.56 1656.27Z" fill="#371A45"/>
<path d="M2433.29 1573.7C2425.66 1573.7 2418.89 1568.25 2417.48 1560.47C2415.9 1551.73 2421.7 1543.36 2430.44 1541.78L2539.73 1522C2583.46 1514.08 2618.12 1486.69 2630.18 1450.5C2670.49 1329.55 2671.41 1201.16 2632.83 1079.21C2621.26 1042.65 2586.95 1014.33 2543.27 1005.31L2434.28 982.792C2425.58 980.995 2419.98 972.485 2421.78 963.785C2423.58 955.084 2432.09 949.487 2440.79 951.286L2549.77 973.799C2604.85 985.176 2648.43 1021.85 2663.5 1069.5C2704.14 1197.97 2703.17 1333.23 2660.7 1460.67C2644.92 1508.02 2600.76 1543.65 2545.46 1553.66L2436.17 1573.44C2435.21 1573.61 2434.24 1573.7 2433.29 1573.7Z" fill="#371A45"/>
<path d="M2443.95 1365.59C2561.1 1366.74 2677.38 1275.16 2677.38 1275.16C2677.38 1275.16 2676.95 1274.8 2676.14 1274.19C2663.47 1264.11 2555.85 1181.2 2445.85 1180.04C2340.28 1178.96 2254.69 1254.45 2239.69 1268.51C2238.15 1269.96 2237.36 1270.75 2237.36 1270.75C2237.36 1270.75 2327.6 1364.48 2443.95 1365.59Z" fill="black"/>
<g opacity="0.5">
<path d="M2677.37 1275.17C2677.37 1275.17 2672.43 1279.07 2663.57 1285.21C2612.49 1253.34 2529.95 1211.65 2446.23 1210.77C2363.45 1209.92 2291.27 1249.63 2247.7 1280.51C2240.98 1274.5 2237.36 1270.74 2237.36 1270.74C2237.36 1270.74 2238.15 1269.95 2239.68 1268.51C2254.69 1254.44 2340.28 1178.94 2445.84 1180.04C2555.84 1181.21 2663.49 1264.12 2676.15 1274.18C2676.93 1274.8 2677.37 1275.17 2677.37 1275.17Z" fill="white"/>
</g>
<g opacity="0.3">
<path d="M2443.95 1365.59C2561.1 1366.74 2677.38 1275.16 2677.38 1275.16C2677.38 1275.16 2676.95 1274.8 2676.14 1274.19L2239.69 1268.51C2238.15 1269.96 2237.36 1270.75 2237.36 1270.75C2237.36 1270.75 2327.6 1364.48 2443.95 1365.59Z" fill="#6B184E"/>
</g>
<path d="M2446.19 1381.7C2445.39 1381.7 2444.61 1381.7 2443.81 1381.69C2393.22 1381.2 2339.48 1363.78 2288.4 1331.33C2250.12 1307 2226.76 1282.91 2225.79 1281.9C2219.7 1275.58 2219.8 1265.56 2226.01 1259.36C2227.01 1258.37 2250.84 1234.76 2289.61 1211.2C2341.33 1179.78 2395.43 1163.46 2446 1163.97C2497.24 1164.5 2553.51 1181.31 2613.25 1213.95C2657.31 1238.02 2686.38 1261.73 2687.59 1262.73C2691.36 1265.82 2693.52 1270.45 2693.48 1275.33C2693.43 1280.2 2691.17 1284.79 2687.34 1287.8C2686.11 1288.77 2656.57 1311.9 2612.03 1335.08C2552.59 1366.02 2496.8 1381.7 2446.19 1381.7ZM2261.22 1270.99C2271.14 1279.66 2286.68 1292.18 2306.37 1304.62C2338.29 1324.8 2388.11 1348.97 2444.13 1349.52C2528.76 1350.38 2614.44 1299.12 2650.15 1274.9C2614.88 1249.98 2530.12 1197.01 2445.67 1196.14C2389.62 1195.54 2339.36 1218.73 2307.04 1238.26C2287.1 1250.31 2271.32 1262.52 2261.22 1270.99Z" fill="#371A45"/>
<path d="M720.103 887.833C720.057 885.255 720.09 882.64 720.163 880.026C734.778 350.433 1082.09 4.91478 1498.42 16.4048C1914.79 27.8948 2242.52 392.042 2227.91 921.635C2227.83 924.249 2227.68 926.861 2227.5 929.433L720.103 887.833Z" fill="#27BDFF"/>
<g opacity="0.5">
<path d="M1498.42 16.4039C1424.17 14.3549 1352.13 23.7198 1283.77 43.4008C1182.03 72.6888 1088.48 124.944 1008.02 196.948C839.394 347.86 728.292 585.44 720.162 880.024C720.09 882.639 720.057 885.253 720.103 887.832L751.185 888.69C765.291 600.74 878.775 369.404 1047.7 223.418C1086.21 231.035 1142.6 214.406 1194.26 176.633C1228.68 151.466 1254.78 121.447 1269.69 92.6749C1350.88 63.2729 1438.02 48.9078 1528.42 51.4028C1725.08 56.8298 1901.94 140.962 2032.32 284.008C1899.75 119.75 1710.61 22.2599 1498.42 16.4039Z" fill="white"/>
</g>
<g opacity="0.35">
<path d="M1872.95 181.954C1872.93 181.927 1872.92 181.898 1872.91 181.872C1886.91 212.178 1899.24 241.11 1910.01 268.592C1984.65 458.99 1847.21 665.787 1642.74 669.107C1325.93 674.252 875.011 712.548 720.181 880.037C718.406 881.957 720.06 885.265 720.1 887.839L2193.11 928.473C2198.69 599.109 2071.36 335.002 1872.95 181.954Z" fill="#371A45"/>
</g>
<path d="M2227.51 945.518C2227.12 945.518 2226.72 945.503 2226.33 945.475C2217.47 944.828 2210.81 937.12 2211.45 928.26C2211.65 925.614 2211.77 923.302 2211.83 921.193C2218.66 673.551 2147.85 447.623 2012.43 285.025C1881.4 127.711 1698.7 38.0228 1497.98 32.4838C1297.27 26.9438 1109.92 106.421 970.424 256.269C826.245 411.153 743.078 632.832 736.244 880.469C736.169 883.163 736.151 885.478 736.188 887.546C736.346 896.428 729.274 903.757 720.391 903.915C711.522 904.089 704.18 897 704.022 888.118C703.976 885.558 703.997 882.765 704.085 879.58C707.693 748.822 731.343 625.911 774.377 514.261C815.671 407.125 873.709 312.948 946.877 234.348C1092.76 77.6378 1288.78 -5.47525 1498.87 0.32375C1708.96 6.12175 1900.13 99.9178 2037.15 264.436C2105.87 346.951 2158.63 444.185 2193.95 553.437C2230.76 667.29 2247.6 791.319 2243.99 922.078C2243.92 924.678 2243.77 927.468 2243.54 930.604C2242.92 939.065 2235.86 945.517 2227.51 945.518Z" fill="#371A45"/>
<path d="M2227.5 929.431C2227.16 934.458 2226.48 939.477 2225.64 944.334C2197.4 1031.09 1868.62 1091.25 1469.06 1080.22C1069.55 1069.2 744.588 991.001 721.135 902.815C720.607 897.92 720.199 892.872 720.104 887.832C731.74 797.256 1067.73 733.397 1478.32 744.728C1888.96 756.061 2220.87 838.352 2227.5 929.431Z" fill="#371A45"/>
<path d="M1562.66 1097.6C1531.65 1097.6 1500.26 1097.16 1468.64 1096.29C1274.93 1090.94 1090.86 1069.57 950.346 1036.09C881.3 1019.65 825.517 1000.97 784.546 980.589C738.503 957.683 712.681 933.597 705.604 906.956L705.3 905.813L705.167 904.638C704.511 898.852 704.13 893.292 704.036 888.112C703.873 879.23 710.942 871.897 719.825 871.735C728.707 871.552 736.039 878.641 736.202 887.524C736.271 891.317 736.537 895.417 736.993 899.727C741.995 915.943 763.896 934.384 798.876 951.786C837.661 971.081 891.131 988.917 957.801 1004.8C1096.23 1037.77 1277.96 1058.85 1469.52 1064.13C1661.08 1069.42 1843.71 1058.4 1983.74 1033.11C2051.19 1020.93 2105.56 1006.07 2145.35 988.944C2181.24 973.497 2204.12 956.293 2210.01 940.377C2210.7 936.104 2211.19 932.025 2211.47 928.239C2212.12 919.379 2219.84 912.733 2228.69 913.376C2237.55 914.028 2244.21 921.739 2243.56 930.598C2243.18 935.771 2242.49 941.302 2241.51 947.039L2241.32 948.204L2240.95 949.328C2232.41 975.538 2205.3 998.163 2158.07 1018.49C2116.03 1036.59 2059.31 1052.16 1989.46 1064.77C1870.52 1086.25 1721.6 1097.6 1562.66 1097.6Z" fill="#181558"/>
<path d="M1562.86 1097.6C1548.67 1097.6 1534.43 1097.51 1520.14 1097.33C1503.19 1097.12 1485.86 1096.78 1468.64 1096.3C1377.89 1093.8 1289.15 1087.8 1204.9 1078.47C1069.28 1063.48 951.385 1040.54 863.958 1012.12C769.257 981.346 715.983 945.958 705.614 906.944L705.321 905.84L705.187 904.706C704.51 899 704.119 893.414 704.024 888.103C703.865 879.221 710.937 871.891 719.819 871.732C728.697 871.547 736.03 878.645 736.19 887.527C736.259 891.391 736.529 895.474 736.993 899.681C751.48 947.086 904.474 1012.9 1208.43 1046.49C1291.81 1055.72 1379.66 1061.66 1469.53 1064.14C1486.59 1064.61 1503.75 1064.96 1520.54 1065.16C1588.78 1066.03 1655.98 1064.8 1720.29 1061.53C1739.37 1060.53 1757.91 1059.4 1775.39 1058.15C1898.27 1049.36 2004.49 1032.96 2082.57 1010.72C2183.79 981.904 2205.45 952.557 2210.02 940.318C2210.67 936.377 2211.16 932.285 2211.5 928.137C2212.2 919.282 2219.94 912.671 2228.81 913.379C2237.66 914.084 2244.27 921.835 2243.57 930.691C2243.12 936.274 2242.42 941.795 2241.5 947.101L2241.3 948.225L2240.95 949.31C2234.65 968.641 2217.51 986.568 2190.01 1002.59C2165.53 1016.86 2132.34 1030 2091.38 1041.67C2011.21 1064.49 1902.73 1081.29 1777.68 1090.24C1760 1091.5 1741.24 1092.65 1721.94 1093.66C1670.42 1096.28 1617.07 1097.6 1562.86 1097.6Z" fill="#371A45"/>
<path d="M1253.56 973.698C1252.7 987.192 1248.19 996.72 1241.96 1007.32C1230.07 1028.3 1214.45 1046.02 1196.07 1060.96C1140.24 1054.59 1082.52 1046.17 1029.44 1036.14C1162.47 896.581 1204.51 828.348 1246.81 746.949C1251.67 819.265 1258.86 902.634 1253.56 973.698Z" fill="white"/>
<g opacity="0.35">
<path d="M1253.56 973.698C1252.7 987.192 1248.19 996.72 1241.96 1007.32C1236.83 1016.37 1231.29 1024.49 1225.02 1032.03L1225.02 1032.07C1216.3 1042.91 1206.65 1052.37 1196.08 1060.96C1171.47 1058.16 1147.46 1055.07 1124.2 1051.72C1207.88 980.807 1217.64 846.843 1246.81 747.075C1246.85 747.034 1246.85 746.993 1246.85 746.993C1246.85 746.993 1246.95 748.08 1247.1 750.169C1251.8 821.434 1258.82 903.743 1253.56 973.698Z" fill="#371A45"/>
</g>
<path d="M1196.08 1077.05C1195.47 1077.05 1194.86 1077.01 1194.25 1076.94C1135.6 1070.25 1077.57 1061.61 1026.46 1051.95C1020.67 1050.85 1015.94 1046.68 1014.13 1041.07C1012.33 1035.46 1013.74 1029.31 1017.8 1025.04C1153.25 882.941 1192.24 817.073 1232.54 739.533C1235.86 733.133 1243.04 729.731 1250.1 731.205C1257.16 732.681 1262.38 738.675 1262.86 745.871C1263.43 754.391 1264.04 763.064 1264.65 771.852C1269.2 837.074 1274.36 910.997 1269.61 974.815C1268.45 992.614 1261.93 1005.08 1255.89 1015.36C1243.51 1037.17 1226.8 1056.71 1206.22 1073.44C1203.34 1075.78 1199.75 1077.05 1196.08 1077.05ZM1061.52 1025.59C1102.24 1032.63 1146.37 1038.97 1191.03 1044.19C1206.19 1030.97 1218.59 1015.92 1227.97 999.387C1228.01 999.312 1228.05 999.238 1228.09 999.164C1233.71 989.61 1236.87 982.558 1237.51 972.669C1237.51 972.613 1237.52 972.557 1237.52 972.502C1241.43 920.116 1238.33 859.602 1234.56 803.172C1201.31 860.816 1156.33 924.132 1061.52 1025.59Z" fill="#371A45"/>
<path d="M1775.93 747.292L1766.9 1074.59C1675.52 1080.69 1584.52 1082.44 1491.89 1080.46C1491.89 1080.46 1491.89 1080.46 1491.85 1080.46C1491.68 1080.58 1491.51 1080.7 1491.3 1080.82C1491.3 1080.82 1436.78 1079.32 1436.77 1079.32C1437.06 1079.2 1437.31 1079.08 1437.61 1078.92C1373.02 1076.5 1310.89 1072.4 1247.62 1066.43L1256.83 732.966C1257.7 693.693 1291.37 661.207 1331.32 662.476C1349.61 666.476 1743.49 663.733 1743.59 685.027C1743.63 685.028 1743.63 685.028 1743.63 685.028C1763.71 698.397 1776.58 721.67 1775.93 747.292Z" fill="white"/>
<g opacity="0.35">
<path d="M1247.9 1056.6C1252.9 1061.15 1258.55 1064.98 1264.68 1067.98C1258.92 1067.49 1253.25 1066.95 1247.58 1066.43L1247.85 1056.55L1247.9 1056.6Z" fill="#371A45"/>
</g>
<g opacity="0.35">
<path d="M1775.93 747.292L1766.9 1074.59C1746.73 1075.9 1725.7 1077.15 1705.14 1078.05C1710.86 1074.75 1715.94 1070.3 1720.48 1064.59C1720.52 1064.59 1720.52 1064.55 1720.52 1064.51C1763.61 1001.36 1760.01 845.938 1775.92 746.291C1775.95 746.626 1775.94 746.959 1775.93 747.292Z" fill="#371A45"/>
</g>
<path d="M1564.19 1093.31C1541.38 1093.31 1518.34 1093.07 1494.98 1092.6L1494.46 1092.89H1491.3C1490.93 1092.89 1436.97 1091.39 1436.43 1091.38L1377.76 1089.75L1381.09 1088.42C1336.03 1086 1291.58 1082.7 1246.49 1078.44L1235.25 1077.38L1244.77 732.633C1245.26 710.323 1254.67 689.349 1271.25 673.637C1287.81 657.951 1309.29 649.703 1331.7 650.417L1332.81 650.452L1333.79 650.666C1339.75 651.635 1381.55 652.288 1425.8 652.979C1488.44 653.957 1566.4 655.175 1630.82 658.063C1666.58 659.666 1693.28 661.561 1712.45 663.856C1731.72 666.163 1747.42 668.772 1753.23 677.019C1775.45 693.24 1788.69 719.954 1787.99 747.596L1787.99 747.625L1778.66 1085.89L1767.7 1086.62C1700.67 1091.1 1633.54 1093.31 1564.19 1093.31ZM1488.09 1068.34L1492.14 1068.4C1583.2 1070.35 1669.36 1068.67 1755.14 1063.26L1763.87 746.959C1764.35 727.46 1755.14 708.612 1739.65 696.982L1731.62 696.751L1731.58 691.464C1722.8 689.092 1696.37 684.836 1617.11 681.629C1555.47 679.135 1483.36 678.009 1425.42 677.104C1363.13 676.131 1338.16 675.646 1330.2 674.514C1314.51 674.212 1299.51 680.102 1287.85 691.152C1275.97 702.401 1269.24 717.346 1268.89 733.233L1260 1055.46C1319.31 1060.86 1377.69 1064.6 1438.06 1066.87L1480.03 1068.44C1483.04 1068.53 1485.66 1068.6 1487.65 1068.65L1488.09 1068.34ZM1731.52 685.085C1731.52 685.111 1731.52 685.137 1731.52 685.162V685.085Z" fill="#371A45"/>
<path d="M2036.84 543.607C2033.14 631.642 1976.72 708.722 1910.83 767.609L1910.79 767.608C1848.75 822.812 1774.66 864.716 1697.89 896.528C1697.89 896.528 1697.89 896.57 1697.93 896.612C1697.93 896.654 1697.97 896.822 1698.09 897.033C1707.3 928.226 1713.95 961.064 1717.64 993.676L1717.68 993.719C1720.86 1021.36 1721.99 1049.57 1719.75 1077.37C1644.27 1081.15 1568.64 1082.11 1491.89 1080.46C1491.89 1080.46 1491.89 1080.46 1491.85 1080.46C1491.68 1080.58 1491.51 1080.7 1491.3 1080.82C1491.3 1080.82 1436.78 1079.32 1436.76 1079.32C1437.06 1079.2 1437.31 1079.08 1437.61 1078.92C1358.21 1075.86 1281.59 1070.58 1203.52 1061.79C1192.73 968.747 1204.79 869.586 1235.82 781.169C1235.86 781.128 1235.82 781.127 1235.82 781.127C1238.23 774.772 1240.51 768.59 1243.21 762.527C1261.13 722.321 1291.21 663.874 1343.43 672.106C1431.17 691.694 1521.34 711.958 1608.51 734.667C1616.23 737.261 1623.39 739.004 1631.24 735.795L1631.24 735.753C1635.57 734.712 1639.69 733.499 1644.05 732.271C1679.21 721.654 1704.81 691.944 1735.25 670.935C1735.29 670.936 1749.05 657.996 1749.05 657.996C1790.79 620.33 1806.42 601.845 1829.63 560.697C1822.85 531.989 1826.11 521.065 1829.36 491.185C1833.03 471.436 1855.29 460.861 1870.14 468.336C1881.81 474.139 1884.03 499.244 1889.1 513.93C1889.1 513.93 1889.43 512.855 1890.11 510.914C1924.72 400.995 2039.1 438.907 2036.84 543.607Z" fill="white"/>
<g opacity="0.35">
<path d="M1720.76 1058.76C1720.57 1064.99 1720.28 1071.17 1719.75 1077.37C1691.31 1078.77 1663.37 1079.82 1634.15 1080.47C1595.26 1052.92 1535.92 1071.89 1485.23 1054.51C1474.66 1042.54 1468.09 995.544 1502.93 981.372C1561.84 998.828 1649.45 1009.02 1709.1 963.254C1716.72 968.254 1716.15 984.723 1717.64 993.676L1717.68 993.719C1720.18 1015.19 1721.35 1037.09 1720.76 1058.76Z" fill="#371A45"/>
</g>
<g opacity="0.35">
<path d="M1655.19 936.922C1658.44 952.401 1661.53 969.235 1664.01 986.67C1679.94 981.578 1695.32 974.061 1709.09 963.255C1709.09 963.255 1711.47 965.453 1714.33 969.425C1710.44 944.886 1705.03 920.186 1697.92 896.6C1697.89 896.568 1697.9 896.538 1697.9 896.538C1775.05 864.52 1848.51 822.909 1910.81 767.62L1910.84 767.621C1975.65 712.142 2037.57 621.632 2036.85 540.571C1914.26 839.283 1623.65 798.03 1655.19 936.922Z" fill="#371A45"/>
</g>
<path d="M1719.72 1089.44C1719.4 1089.44 1719.08 1089.42 1718.75 1089.4C1712.1 1088.86 1707.15 1083.05 1707.68 1076.41C1710.75 1038.19 1707.75 996.645 1698.53 949.416C1697.7 945.718 1696.8 942.106 1695.93 938.612C1692.49 924.792 1689.23 911.739 1692.49 899.709C1697.42 881.492 1714.51 874.273 1727.37 870.468C1879.82 798.738 1970.52 714.456 2012.81 605.276L2013.12 604.532C2035.01 557.625 2024.6 508.509 2004.57 480.641C1991.42 462.353 1974.6 452.91 1958.39 454.735C1937.08 457.135 1916.8 478.711 1901.27 515.498C1899.22 520.529 1894.29 523.8 1888.81 523.645C1883.38 523.503 1878.62 520.075 1876.77 515.047C1874.35 508.849 1873.38 502.466 1872.52 496.827C1870.85 485.881 1869.77 481.528 1864.95 479.226L1864.72 479.113C1861 477.24 1857.78 476.946 1854.58 478.189C1849.16 480.292 1843.95 486.753 1840.64 495.473C1837.04 504.935 1834.89 530.564 1841.37 557.918L1842.46 562.513L1840.14 566.626C1816.83 607.952 1787.03 639.412 1743.45 679.787L1742.81 680.376L1742.1 680.868C1735.69 685.29 1729.32 689.839 1722.59 694.656C1687.37 719.833 1650.95 745.868 1609.23 752.631C1602.65 753.696 1596.45 749.23 1595.39 742.653C1594.32 736.076 1598.79 729.88 1605.37 728.814C1641.51 722.955 1675.6 698.59 1708.55 675.028C1714.84 670.535 1721.33 665.894 1727.68 661.502C1767.72 624.372 1795.49 595.242 1816.84 558.743C1810.81 529.568 1812.76 500.907 1818.09 486.9C1823.96 471.45 1833.82 460.369 1845.84 455.698C1855.42 451.979 1865.65 452.604 1875.45 457.505C1885.6 462.389 1890.48 470.196 1893.15 478.189C1914.53 443.084 1938.18 432.73 1955.69 430.758C1980.82 427.93 2005.78 440.978 2024.16 466.56C2037.5 485.119 2046.23 509.057 2048.75 533.963C2051.52 561.401 2046.83 589.193 2035.16 614.363C2011.08 676.363 1973.11 729.819 1919.1 777.766C1871.89 819.676 1812.25 857.274 1736.79 892.709L1735.92 893.117L1735 893.382C1717.87 898.313 1716.35 903.911 1715.78 906.019C1714.16 911.993 1716.57 921.625 1719.35 932.778C1720.27 936.465 1721.22 940.277 1722.12 944.323L1722.18 944.635C1731.86 994.117 1734.98 1037.85 1731.74 1078.34C1731.23 1084.65 1725.95 1089.44 1719.72 1089.44Z" fill="#371A45"/>
<path d="M1553.08 957.407C1533.15 997.275 1511.22 1040.99 1491.3 1080.82C1491.3 1080.82 1436.78 1079.32 1436.76 1079.32C1437.06 1079.2 1437.31 1079.08 1437.61 1078.92C1359.15 1075.91 1283.47 1070.68 1206.34 1062.12C1218.36 1034.7 1232.68 1001.65 1244.67 974.203C1346.6 968.628 1451.22 962.992 1553.08 957.407Z" fill="white"/>
<path d="M1200.05 1073.47C1193.89 1073.47 1188.63 1068.77 1188.05 1062.51C1180.41 979.554 1192.31 877.784 1219.24 792.809L1219.19 792.808L1220.45 789.04C1221.61 785.448 1222.8 781.889 1224.02 778.362L1224.38 777.299C1227.72 767.312 1231.38 757.223 1235.28 747.284L1235.86 745.774C1241.05 732.499 1246.85 718.935 1253.09 705.457C1255.89 699.411 1263.06 696.778 1269.1 699.577C1275.15 702.376 1277.78 709.547 1274.98 715.593C1269.26 727.961 1263.92 740.395 1259.11 752.587V752.599L1258.31 754.641C1254.89 763.31 1251.64 772.107 1248.65 780.849L1250 784.361L1246.26 787.896C1217.86 871.059 1204.45 977.61 1212.08 1060.29C1212.69 1066.93 1207.81 1072.8 1201.17 1073.41C1200.8 1073.45 1200.42 1073.47 1200.05 1073.47Z" fill="#371A45"/>
<g opacity="0.35">
<path d="M1221.96 825.381C1296.51 868.07 1367.49 882.676 1475.2 862.566C1585.47 834.043 1645.83 789.498 1695.33 712.633C1664.18 727.351 1636.95 734.708 1621.3 738.141C1535.15 714.344 1340.31 671.389 1340.31 671.389C1288.53 664.613 1246.21 734.445 1221.96 825.381Z" fill="#371A45"/>
</g>
<path d="M1199.53 892.474C1177.15 906.836 1174.28 970.027 1188.88 981.315C1188.87 981.315 1231.63 1022.18 1336.43 1004.99C1336.43 1004.99 1358.71 952.45 1329.32 920.467C1329.32 920.467 1247.96 938.872 1199.53 892.474Z" fill="white"/>
<g opacity="0.35">
<path d="M1188.86 981.314C1188.86 981.314 1231.64 1022.17 1336.44 1005.01C1336.44 1005.01 1340.97 994.319 1343.26 979.642C1217.64 991.728 1180.39 961.97 1191.06 902.699C1172.51 923.191 1181.13 979.928 1188.86 981.314Z" fill="#371A45"/>
</g>
<path d="M1287.57 1019.17C1257.71 1019.17 1235.34 1014.22 1220.16 1009.08C1199.35 1002.02 1187.31 993.262 1182.78 989.209L1182.76 989.226C1169.84 979.236 1169.53 953.524 1170 942.934C1170.94 921.351 1177.78 894.552 1194.13 884.059L1200.76 879.804L1206.45 885.255C1250.33 927.298 1326.36 910.882 1327.12 910.713L1332.76 909.451L1336.68 913.703C1370.04 950.01 1346.65 1006.51 1345.64 1008.9L1343.49 1013.97L1338.05 1014.86C1319.32 1017.93 1302.51 1019.17 1287.57 1019.17ZM1200.22 977.446C1205.17 980.825 1214.31 986.135 1228.08 990.634C1247.75 997.062 1280.99 1003.05 1329.04 996.023C1332.97 983.964 1340.71 952.978 1325.33 931.399C1305.64 934.682 1243.99 941.329 1199.92 906.094C1194.6 913.93 1190.76 927.853 1190 943.277C1189.13 961.094 1192.83 971.692 1195 973.405L1200.22 977.446Z" fill="#371A45"/>
<path d="M1922.26 764.683C1921.78 764.683 1921.3 764.637 1920.81 764.541C1884.93 757.495 1850.66 730.82 1818.95 685.258C1795.72 651.884 1782.86 620.965 1782.33 619.665C1780.75 615.835 1782.57 611.451 1786.4 609.873C1790.23 608.296 1794.62 610.119 1796.2 613.947C1796.69 615.153 1846.89 734.738 1923.7 749.823C1927.76 750.621 1930.41 754.563 1929.61 758.628C1928.91 762.203 1925.78 764.683 1922.26 764.683Z" fill="#371A45"/>
<path d="M1741.09 551.488C1737.43 552.084 1733.98 549.598 1733.38 545.936L1702.29 354.911C1701.69 351.248 1704.18 347.796 1707.84 347.2C1746.27 340.946 1782.49 367.025 1788.74 405.45C1799.45 462.207 1818.2 535.268 1741.09 551.488Z" fill="black"/>
<path d="M1740.01 554.466C1735.38 554.466 1731.29 551.109 1730.53 546.4L1699.44 355.375C1699.02 352.842 1699.62 350.3 1701.12 348.217C1702.62 346.134 1704.84 344.76 1707.38 344.348C1726.72 341.199 1746.14 345.773 1762.04 357.225C1777.95 368.678 1788.44 385.64 1791.59 404.986C1792.16 407.993 1792.77 411.12 1793.38 414.283C1804.07 469.577 1817.38 538.392 1741.69 554.316L1741.56 554.34C1741.04 554.425 1740.52 554.466 1740.01 554.466ZM1719.31 349.158C1715.66 349.158 1711.98 349.454 1708.31 350.052C1706.22 350.391 1704.8 352.363 1705.14 354.447L1736.23 545.472C1736.4 546.482 1736.94 547.367 1737.77 547.964C1738.59 548.55 1739.58 548.791 1740.57 548.645C1810.62 533.861 1798.44 470.917 1787.7 415.381C1787.09 412.209 1786.48 409.074 1785.9 405.986C1782.99 388.092 1773.32 372.466 1758.66 361.915C1747.03 353.54 1733.36 349.158 1719.31 349.158Z" fill="#371A45"/>
<g opacity="0.35">
<path d="M1794.37 440.044C1808.19 487.623 1796.69 541.804 1741.09 551.502C1737.43 552.102 1733.98 549.597 1733.38 545.936L1725.09 495.157C1754.97 506.235 1791.01 468.167 1794.37 440.044Z" fill="#371A45"/>
</g>
<path d="M1740 563.641C1730.96 563.641 1722.97 557.079 1721.47 547.874L1690.38 356.849C1688.72 346.627 1695.68 336.956 1705.9 335.292C1727.67 331.749 1749.51 336.895 1767.4 349.78C1785.26 362.634 1797.05 381.656 1800.62 403.354C1801.19 406.374 1801.79 409.44 1802.38 412.541C1807.84 440.72 1814.01 472.659 1809.03 500.233C1802.89 534.233 1780.87 555.45 1743.58 563.295L1743.03 563.397C1742.01 563.561 1741 563.641 1740 563.641ZM1715.09 358.485L1744.36 538.311C1768.49 531.84 1781.2 518.591 1785.29 495.942C1789.47 472.809 1783.75 443.224 1778.7 417.123C1778.08 413.937 1777.47 410.788 1776.89 407.687L1776.83 407.387C1774.33 391.984 1765.97 378.479 1753.31 369.36C1742.1 361.29 1728.71 357.509 1715.09 358.485Z" fill="#371A45"/>
<path d="M1077.31 449.828C1080.97 449.232 1084.43 451.718 1085.02 455.38L1116.11 646.405C1116.71 650.068 1114.22 653.52 1110.56 654.116C1072.14 660.37 1035.92 634.291 1029.66 595.866C1018.95 539.109 1000.21 466.048 1077.31 449.828Z" fill="black"/>
<path d="M1099.08 657.939C1083.82 657.939 1068.99 653.183 1056.36 644.091C1040.46 632.638 1029.96 615.676 1026.81 596.331C1026.24 593.324 1025.64 590.197 1025.03 587.033C1014.33 531.739 1001.02 462.924 1076.72 447L1076.85 446.976C1082.07 446.123 1087.02 449.687 1087.87 454.916L1118.97 645.941C1119.38 648.474 1118.78 651.017 1117.28 653.1C1115.78 655.183 1113.56 656.557 1111.03 656.969C1107.04 657.618 1103.05 657.939 1099.08 657.939ZM1077.83 452.671C1007.79 467.455 1019.96 530.399 1030.7 585.935C1031.32 589.107 1031.92 592.242 1032.5 595.33C1035.42 613.224 1045.09 628.85 1059.74 639.401C1074.39 649.952 1092.28 654.165 1110.1 651.264C1111.11 651.1 1111.99 650.552 1112.59 649.722C1113.19 648.892 1113.43 647.879 1113.26 646.869L1082.17 455.844C1081.83 453.779 1079.89 452.365 1077.83 452.671Z" fill="#371A45"/>
<g opacity="0.35">
<path d="M1107.51 593.408L1116.13 646.403C1116.73 650.064 1114.22 653.518 1110.56 654.118C1058.14 663.259 1026.1 615.774 1025.21 568.429C1040.32 592.419 1081.83 611.353 1107.51 593.408Z" fill="#371A45"/>
</g>
<path d="M1099.06 667.115C1081.9 667.115 1065.21 661.764 1051 651.536C1033.15 638.682 1021.36 619.66 1017.78 597.962C1017.21 594.942 1016.62 591.877 1016.02 588.775C1010.57 560.596 1004.39 528.657 1009.37 501.083C1015.52 467.083 1037.54 445.866 1074.83 438.021L1075.37 437.919C1085.6 436.252 1095.27 443.218 1096.93 453.441L1128.02 644.466C1128.83 649.418 1127.66 654.388 1124.73 658.459C1121.79 662.531 1117.45 665.217 1112.5 666.023C1108.01 666.754 1103.52 667.115 1099.06 667.115ZM1074.04 463.004C1049.92 469.475 1037.21 482.725 1033.12 505.374C1028.94 528.507 1034.66 558.092 1039.71 584.193C1040.33 587.379 1040.93 590.528 1041.52 593.629L1041.57 593.929C1044.08 609.332 1052.43 622.837 1065.1 631.956C1076.31 640.026 1089.71 643.805 1103.31 642.831L1074.04 463.004Z" fill="#371A45"/>
<path d="M1737.7 470.89C1769.45 903.319 1127.21 961.443 1080.78 530.398C1049.03 97.9826 1691.28 39.8587 1737.7 470.89Z" fill="black"/>
<path d="M1405.2 828.852C1375.13 828.852 1345.48 825.161 1316.69 817.812C1275.76 807.364 1238.44 789.962 1205.77 766.09C1132.98 712.894 1088.76 631.5 1077.91 530.708C1070.48 429.498 1099.35 341.479 1161.41 276.072C1189.26 246.719 1222.85 222.896 1261.24 205.266C1298.26 188.265 1338.11 177.737 1379.67 173.974C1421.23 170.211 1462.32 173.412 1501.79 183.486C1542.73 193.933 1580.05 211.334 1612.71 235.206C1685.51 288.4 1729.72 369.792 1740.58 470.58L1740.58 470.678C1748.01 571.794 1719.13 659.815 1657.08 725.225C1629.23 754.579 1595.64 778.402 1557.24 796.033C1520.22 813.034 1480.37 823.563 1438.81 827.325C1427.57 828.344 1416.35 828.852 1405.2 828.852ZM1412.6 178.269C1401.72 178.269 1390.91 178.759 1380.19 179.73C1226.01 193.689 1067.45 309.313 1083.66 530.187C1107.37 750.269 1284.11 835.528 1438.29 821.569C1592.47 807.611 1751.02 692.005 1734.82 471.15C1712.74 266.313 1558.18 178.269 1412.6 178.269Z" fill="#371A45"/>
<g opacity="0.35">
<path d="M1730.44 425.708C1824.06 890.634 1114.37 987.584 1079.73 514.803C1165.5 897.325 1750.06 819.075 1730.44 425.708Z" fill="#371A45"/>
</g>
<path d="M1405.19 838.027C1374.37 838.027 1343.96 834.24 1314.42 826.702C1272.35 815.964 1233.97 798.063 1200.36 773.497C1125.42 718.735 1079.93 635.12 1068.79 531.69L1068.75 531.281C1061.13 427.522 1090.87 337.089 1154.75 269.756C1183.41 239.551 1217.95 215.048 1257.41 196.927C1295.39 179.489 1336.24 168.692 1378.84 164.835C1421.44 160.978 1463.57 164.262 1504.06 174.595C1546.14 185.333 1584.51 203.232 1618.13 227.798C1693.06 282.558 1738.56 366.171 1749.7 469.597L1749.74 470.006C1757.35 573.768 1727.61 664.204 1663.73 731.539C1635.08 761.745 1600.54 786.249 1561.07 804.37C1523.1 821.808 1482.24 832.605 1439.64 836.462C1428.12 837.506 1416.63 838.027 1405.19 838.027ZM1092.8 529.311C1115.93 743.184 1287.65 825.994 1437.47 812.432C1587.28 798.869 1741.34 686.551 1725.69 471.978C1702.55 258.112 1530.82 175.304 1381.02 188.866C1231.21 202.43 1077.14 314.745 1092.8 529.311Z" fill="#371A45"/>
<path d="M1737.42 479.422C1783.18 775.177 1339.78 875.453 1160.33 715.511C814.906 289.504 1687.15 78.9278 1737.42 479.422Z" fill="#371A45"/>
<g opacity="0.5">
<path d="M1586.87 474.445C1581.59 550.669 1665.24 556.849 1671.22 480.678C1676.5 404.457 1592.84 398.277 1586.87 474.445Z" fill="white"/>
</g>
<g opacity="0.5">
<path d="M1567.22 593.144C1559.48 627.047 1605.25 636.918 1612.17 602.835C1619.91 568.934 1574.14 559.063 1567.22 593.144Z" fill="white"/>
</g>
<path d="M1094.76 411.008C1093.29 411.008 1091.8 410.683 1090.39 409.996C1085.43 407.577 1083.36 401.592 1085.78 396.627C1107.46 352.126 1147.17 313.104 1200.6 283.779C1249.73 256.822 1309.02 238.548 1372.06 230.933C1436.96 223.092 1501.26 227.01 1557.99 242.264C1619.33 258.759 1668.89 288.081 1701.31 327.06C1704.84 331.306 1704.26 337.612 1700.01 341.143C1695.77 344.674 1689.46 344.095 1685.93 339.849C1627.77 269.916 1505.51 234.958 1374.45 250.79C1246.4 266.259 1142.68 325.497 1103.76 405.387C1102.03 408.94 1098.47 411.008 1094.76 411.008Z" fill="#371A45"/>
<g opacity="0.5">
<path d="M1169.44 651.715C1079.68 447.986 1214.97 337.496 1393.34 332.257C1270.3 371.592 1183.74 499.591 1169.44 651.715Z" fill="white"/>
</g>
<path d="M1282.58 1055.62L1456.45 1070.79C1477.03 1072.59 1495.35 1057.22 1497.15 1036.61L1505.22 944.086C1506.79 926.047 1495.2 909.77 1478.46 904.794C1476.09 904.072 1473.61 903.611 1471.04 903.382L1297.19 888.218C1276.59 886.416 1258.27 901.788 1256.49 922.394L1250.09 995.677L1248.4 1014.92C1246.6 1035.52 1262 1053.82 1282.58 1055.62Z" fill="white"/>
<g opacity="0.35">
<path d="M1282.57 1055.62L1456.45 1070.79C1477.03 1072.59 1495.35 1057.22 1497.15 1036.61L1505.22 944.086C1506.79 926.047 1495.2 909.77 1478.46 904.794C1468.01 910.49 1461.38 914.138 1461.38 914.138C1446.43 987.671 1422.05 1022.86 1329.69 1016.32C1289.83 1013.49 1265.23 1005.23 1250.08 995.677L1248.4 1014.92C1246.6 1035.52 1262 1053.82 1282.57 1055.62Z" fill="#371A45"/>
</g>
<path d="M1459.75 1080.94C1458.36 1080.94 1456.97 1080.88 1455.57 1080.76L1281.71 1065.59C1255.57 1063.31 1236.16 1040.19 1238.44 1014.05L1246.52 921.513C1247.62 908.893 1253.6 897.432 1263.35 889.241C1273.11 881.05 1285.43 877.146 1298.05 878.246L1471.91 893.414C1498.05 895.695 1517.46 918.814 1515.18 944.952L1507.11 1037.49C1506.01 1050.11 1500.03 1061.57 1490.27 1069.76C1481.59 1077.05 1470.89 1080.94 1459.75 1080.94ZM1293.9 898.065C1279.76 898.065 1267.69 908.911 1266.44 923.252L1258.37 1015.79C1257.04 1030.94 1268.29 1044.35 1283.45 1045.67L1457.31 1060.83C1464.61 1061.48 1471.74 1059.2 1477.41 1054.45C1483.08 1049.69 1486.55 1043.05 1487.18 1035.75L1495.26 943.214C1496.58 928.063 1485.33 914.661 1470.18 913.339L1296.31 898.171C1295.5 898.1 1294.7 898.065 1293.9 898.065Z" fill="#371A45"/>
<path d="M1275.66 1054.33C1277.87 1055 1280.17 1055.43 1282.58 1055.62L1456.45 1070.79C1471.53 1072.1 1485.4 1064.21 1492.43 1051.76C1495 1047.23 1496.66 1042.11 1497.13 1036.61L1500.73 995.507L1501.92 981.945L1505.22 944.086C1507.02 923.481 1491.62 905.183 1471.04 903.382L1433.47 900.114C1450.51 904.888 1462.36 921.304 1460.78 939.527L1456.44 989.509L1452.72 1032.08C1450.91 1052.66 1432.59 1068.06 1412.01 1066.26L1275.66 1054.33Z" fill="white"/>
<g opacity="0.35">
<path d="M1275.66 1054.33C1277.87 1055 1280.17 1055.43 1282.58 1055.62L1456.45 1070.79C1477.03 1072.59 1495.35 1057.22 1497.13 1036.61L1501.92 981.945C1496.7 991.223 1487.81 1002.39 1475.13 1002.54C1468.17 1002.64 1461.82 997.084 1456.44 989.508L1452.72 1032.08C1450.91 1052.66 1432.59 1068.06 1412.01 1066.26L1275.66 1054.33Z" fill="#371A45"/>
</g>
<path d="M1459.78 1080.94C1458.38 1080.94 1456.98 1080.88 1455.58 1080.76L1281.7 1065.58C1278.75 1065.34 1275.74 1064.79 1272.84 1063.94L1276.52 1044.38L1412.89 1056.29C1420.18 1056.93 1427.31 1054.66 1432.97 1049.9C1438.64 1045.14 1442.11 1038.51 1442.74 1031.21L1450.81 938.667C1451.97 925.486 1443.54 913.315 1430.78 909.728L1434.35 890.139L1471.9 893.408C1484.53 894.517 1495.99 900.498 1504.18 910.252C1512.38 920.011 1516.28 932.337 1515.17 944.958L1507.1 1037.49C1506 1050.11 1500.03 1061.57 1490.27 1069.77C1481.6 1077.05 1470.9 1080.94 1459.78 1080.94ZM1450.92 1060.27L1457.32 1060.83C1464.61 1061.47 1471.74 1059.21 1477.41 1054.45C1483.07 1049.69 1486.54 1043.05 1487.17 1035.76V1035.75L1495.25 943.214C1495.89 935.914 1493.62 928.777 1488.86 923.112C1484.11 917.446 1477.47 913.973 1470.16 913.332L1464.74 912.86C1469.35 921.002 1471.6 930.54 1470.74 940.406L1462.67 1032.94C1461.78 1043.19 1457.67 1052.68 1450.92 1060.27Z" fill="#371A45"/>
<path d="M1388.12 980.574C1387.84 983.997 1390.41 1012.02 1390.41 1012.02C1390.41 1012.02 1399.16 1012.74 1409.91 1013.61C1423.34 1014.71 1435.36 1001.69 1436.76 984.536C1438.15 967.383 1428.4 952.59 1414.97 951.496C1405.91 950.758 1395.46 949.907 1395.46 949.907C1395.46 949.907 1388.58 974.997 1388.12 980.574Z" fill="#22A7F0"/>
<g opacity="0.35">
<path d="M1388.12 980.574C1387.84 983.997 1390.41 1012.02 1390.41 1012.02C1390.41 1012.02 1399.16 1012.74 1409.91 1013.61C1423.34 1014.71 1435.36 1001.69 1436.76 984.536C1438.15 967.383 1428.4 952.59 1414.97 951.496C1405.91 950.758 1395.46 949.907 1395.46 949.907C1395.46 949.907 1388.58 974.997 1388.12 980.574Z" fill="#371A45"/>
</g>
<path d="M1411.47 1018.68C1410.82 1018.68 1410.16 1018.65 1409.51 1018.6L1390 1017.01C1387.58 1016.81 1385.65 1014.9 1385.43 1012.48C1384.82 1005.8 1382.85 983.745 1383.14 980.168C1383.62 974.294 1389.93 951.197 1390.64 948.583C1391.28 946.266 1393.47 944.724 1395.87 944.923L1415.38 946.512C1423.44 947.168 1430.62 951.689 1435.6 959.24C1440.33 966.409 1442.51 975.536 1441.74 984.941C1440.19 1004.01 1426.82 1018.68 1411.47 1018.68ZM1395.01 1007.38L1410.32 1008.63C1420.98 1009.5 1430.6 998.508 1431.78 984.13C1432.36 976.942 1430.75 970.058 1427.25 964.746C1424 959.817 1419.5 956.881 1414.57 956.479L1399.2 955.228C1396.64 964.798 1393.38 977.717 1393.11 980.971C1392.99 982.88 1393.93 995.212 1395.01 1007.38Z" fill="#371A45"/>
<path d="M1417.28 982.979C1418.68 965.825 1408.93 951.033 1395.5 949.938C1382.07 948.844 1370.05 961.863 1368.65 979.017C1367.25 996.17 1377.01 1010.96 1390.44 1012.06C1403.87 1013.15 1415.89 1000.13 1417.28 982.979Z" fill="#22A7F0"/>
<path d="M1372.01 983.104C1373.27 970.59 1382.97 960.985 1393.46 959.224C1405.85 957.147 1415.84 966.933 1419.75 982.107C1420.11 978.774 1420.02 975.246 1419.41 971.673C1416.54 954.705 1401.76 946.996 1388.46 949.224C1375.18 951.477 1368.43 962.802 1371.3 979.796C1371.49 980.908 1371.72 982.015 1372.01 983.104Z" fill="white"/>
<g opacity="0.35">
<path d="M1390.42 1012.04C1403.85 1013.12 1415.86 1000.09 1417.25 982.938C1417.57 979.22 1417.33 975.618 1416.66 972.24C1412.27 983.851 1402.63 991.615 1392.13 990.774C1381.63 989.907 1373.38 980.704 1370.96 968.512C1369.72 971.732 1368.94 975.28 1368.63 978.998C1367.23 996.15 1376.98 1010.93 1390.42 1012.04Z" fill="#371A45"/>
</g>
<path d="M1392.01 1017.09C1391.34 1017.09 1390.67 1017.06 1390 1017.01C1381.94 1016.35 1374.76 1011.83 1369.78 1004.28C1365.05 997.111 1362.87 987.983 1363.63 978.579C1365.25 958.705 1379.71 943.606 1395.87 944.923C1403.93 945.579 1411.11 950.1 1416.09 957.651C1420.82 964.82 1423 973.947 1422.24 983.352C1421.47 992.757 1417.84 1001.41 1412.02 1007.72C1406.39 1013.81 1399.36 1017.09 1392.01 1017.09ZM1373.6 979.391C1373.02 986.579 1374.62 993.463 1378.13 998.775C1381.38 1003.7 1385.88 1006.64 1390.81 1007.04C1395.75 1007.44 1400.66 1005.28 1404.67 1000.94C1408.98 996.263 1411.68 989.73 1412.27 982.542C1412.85 975.354 1411.25 968.47 1407.75 963.158C1404.49 958.229 1399.99 955.293 1395.06 954.891C1384.39 954.021 1374.77 965.014 1373.6 979.391Z" fill="#371A45"/>
<path d="M1336.69 1067.17C1336.53 1067.17 1336.37 1067.17 1336.21 1067.15C1332.08 1066.89 1328.94 1063.33 1329.2 1059.19L1332.18 1012.29C1332.71 1003.91 1329.03 995.882 1322.33 990.811C1311.36 982.496 1305.49 969.339 1306.64 955.617L1312.17 889.604C1312.51 885.477 1316.14 882.408 1320.27 882.756C1324.4 883.102 1327.46 886.728 1327.12 890.856L1321.59 956.869C1320.87 965.441 1324.54 973.66 1331.39 978.854C1342.11 986.972 1348 999.828 1347.15 1013.24L1344.17 1060.14C1343.92 1064.12 1340.62 1067.17 1336.69 1067.17Z" fill="#371A45"/>
<path d="M1563.58 1097.62C1549.2 1097.62 1534.7 1097.53 1520.15 1097.34L1519.95 1097.34C1510.67 1097.21 1501.07 1097.07 1491.51 1096.85L1491.03 1096.83C1483.67 1096.67 1476.18 1096.51 1468.65 1096.3L1467.27 1096.26C1457.2 1095.98 1447.02 1095.66 1437.02 1095.3C1399.66 1093.89 1363.08 1091.94 1328.27 1089.49C1306.31 1087.97 1284.42 1086.22 1263.22 1084.3C1257.62 1083.82 1252.06 1083.3 1246.67 1082.8L1246.56 1082.79L1245.85 1082.72C1242.84 1082.4 1239.87 1082.11 1236.9 1081.83L1236.78 1081.82C1226.96 1080.85 1216.65 1079.77 1205.24 1078.5C1204.8 1078.46 1204.36 1078.41 1203.94 1078.34L1203.78 1078.33C1203.15 1078.26 1202.39 1078.18 1201.52 1078.06C1200.5 1077.96 1199.38 1077.84 1198.23 1077.69C1196.79 1077.55 1195.4 1077.39 1194.16 1077.23C1169.34 1074.4 1145.03 1071.28 1121.9 1067.95C1088.86 1063.25 1056.73 1057.97 1026.45 1052.25C937.44 1035.44 861.914 1014.39 808.037 991.386C747.338 965.467 713.84 937.846 705.627 906.946L705.349 905.898L705.213 904.822C704.538 899.457 704.131 893.857 704.004 888.177C703.805 879.295 710.843 871.934 719.725 871.735C728.607 871.529 735.968 878.574 736.167 887.456C736.26 891.621 736.538 895.711 736.991 899.633C740.611 911.433 756.505 934.401 820.671 961.8C872.441 983.906 945.663 1004.25 1032.42 1020.64C1062.23 1026.27 1093.86 1031.47 1126.46 1036.1C1149.33 1039.39 1173.35 1042.48 1197.89 1045.28L1198.01 1045.3C1199.18 1045.44 1200.34 1045.58 1201.5 1045.69L1202.27 1045.77C1203.08 1045.89 1204.06 1045.98 1205.1 1046.09L1206.03 1046.21C1206.37 1046.26 1206.7 1046.29 1207.04 1046.32C1207.41 1046.36 1207.79 1046.4 1208.17 1046.44L1210.07 1046.67C1220.84 1047.86 1230.6 1048.89 1239.87 1049.8L1239.95 1049.81C1242.96 1050.09 1245.96 1050.38 1249.01 1050.71L1249.12 1050.72C1254.62 1051.23 1260.31 1051.77 1266.04 1052.26C1287.1 1054.16 1308.76 1055.89 1330.51 1057.4C1364.99 1059.82 1401.22 1061.76 1438.21 1063.15C1448.09 1063.51 1458.17 1063.83 1468.16 1064.11L1469.54 1064.14C1477.01 1064.35 1484.44 1064.51 1491.82 1064.67L1492.37 1064.69C1501.75 1064.91 1511.24 1065.04 1520.42 1065.18L1520.58 1065.18C1559.08 1065.66 1597.17 1065.5 1633.79 1064.69C1657.66 1064.15 1681.41 1063.34 1704.39 1062.29C1709.29 1062.09 1714.17 1061.84 1718.9 1061.61L1720.27 1061.52C1738.27 1060.57 1752.73 1059.72 1765.76 1058.84C1767.37 1058.72 1768.98 1058.61 1770.6 1058.5C1772.17 1058.39 1773.75 1058.28 1775.32 1058.16C1898.28 1049.35 2004.5 1032.95 2082.57 1010.72C2183.76 981.913 2205.44 952.574 2210.03 940.327C2210.69 936.301 2211.18 932.218 2211.5 928.17C2212.18 919.313 2219.92 912.694 2228.78 913.378C2237.64 914.066 2244.26 921.804 2243.57 930.661C2243.15 936.135 2242.45 941.66 2241.51 947.084L2241.31 948.221L2240.96 949.318C2234.66 968.647 2217.51 986.571 2190.01 1002.59C2165.52 1016.86 2132.34 1030 2091.38 1041.66C2011.22 1064.48 1902.75 1081.28 1777.69 1090.24C1776.12 1090.36 1774.48 1090.48 1772.83 1090.59C1771.26 1090.7 1769.69 1090.81 1768.11 1090.93L1767.97 1090.94C1754.79 1091.82 1740.2 1092.68 1722.05 1093.65L1720.06 1093.77L1719.91 1093.77C1715.3 1094 1710.54 1094.23 1705.79 1094.43C1682.64 1095.49 1658.63 1096.31 1634.51 1096.86C1611.36 1097.36 1587.63 1097.62 1563.58 1097.62Z" fill="#371A45"/>
<path d="M1709.96 932.368C1764.19 1014.01 1661.38 1056.64 1486.07 1023.64C1486.07 1023.64 1456.36 976.228 1503.78 950.491C1503.78 950.491 1632.05 993.37 1709.96 932.368Z" fill="white"/>
<g opacity="0.35">
<path d="M1486.08 1023.63C1651.14 1050.78 1707.86 1025.22 1722.87 980.414C1717.06 987.145 1711.66 990.117 1711.66 990.117C1711.66 990.117 1649.04 1026.37 1521.96 1004.77C1501.13 1001.31 1485.95 981.624 1489.67 960.783C1463.2 987.123 1486.08 1023.63 1486.08 1023.63Z" fill="#371A45"/>
</g>
<path d="M1594.82 1044.84C1565.15 1044.84 1531.75 1041.77 1495.6 1035.52C1484.28 1033.57 1474.91 1025.71 1471.14 1015.03C1461.76 988.444 1467.72 964.984 1487.92 948.967C1495.55 942.923 1505.85 940.887 1515.49 943.522C1539.94 950.207 1624.53 969.417 1686.37 935.889C1694.86 931.285 1704.84 930.742 1713.75 934.396C1722.35 937.928 1728.83 945.013 1731.51 953.834C1737.76 974.42 1734.07 993.231 1720.82 1008.23C1699.56 1032.3 1654.83 1044.84 1594.82 1044.84ZM1507.05 962.387C1504.58 962.387 1502.21 963.163 1500.35 964.639C1486.98 975.237 1483.5 989.951 1490 1008.37C1491.37 1012.24 1494.82 1015.09 1499.01 1015.82C1550.53 1024.72 1597.35 1027.09 1634.43 1022.68C1668.75 1018.59 1693.45 1009.01 1705.83 994.993C1714.48 985.195 1716.62 973.634 1712.37 959.65C1711.1 955.476 1707.93 953.629 1706.15 952.9C1702.83 951.535 1699.1 951.744 1695.91 953.472C1666.59 969.367 1630.21 976.576 1587.79 974.897C1553.83 973.553 1524.61 966.75 1510.21 962.814C1509.16 962.527 1508.09 962.387 1507.05 962.387Z" fill="#371A45"/>
<g opacity="0.35">
<path d="M1089.7 1461.31C1165.62 1385.38 1165.62 1262.28 1089.7 1186.36C1013.77 1110.43 890.67 1110.43 814.744 1186.36C738.818 1262.28 738.818 1385.38 814.744 1461.31C890.67 1537.24 1013.77 1537.24 1089.7 1461.31Z" fill="#371A45"/>
</g>
<path d="M943.313 1475.96C1039.87 1475.96 1118.15 1397.68 1118.15 1301.12C1118.15 1204.57 1039.87 1126.29 943.313 1126.29C846.755 1126.29 768.479 1204.57 768.479 1301.12C768.479 1397.68 846.755 1475.96 943.313 1475.96Z" fill="black"/>
<g opacity="0.3">
<path d="M785.924 1293.15C803.079 1198.13 894.016 1135 989.039 1152.16C1034.21 1160.31 1072.15 1185.16 1097.71 1219.18C1073.42 1173.5 1029.24 1138.97 974.374 1129.07C879.352 1111.92 788.413 1175.04 771.259 1270.06C762.26 1319.91 775.381 1368.62 803.586 1406.16C785.807 1372.72 778.674 1333.31 785.924 1293.15Z" fill="white"/>
</g>
<g opacity="0.35">
<path d="M912.267 1473.17C1007.26 1490.31 1098.22 1427.23 1115.38 1332.2C1120.76 1302.31 1118.21 1272.83 1109.21 1245.92C1109.8 1258.83 1108.98 1271.98 1106.6 1285.25C1089.44 1380.28 998.51 1443.41 903.478 1426.26C838.329 1414.49 788.176 1368 768.656 1309.35C772.311 1388.97 830.474 1458.39 912.267 1473.17Z" fill="#371A45"/>
</g>
<path d="M943.71 1488.51C932.528 1488.51 921.269 1487.51 910.031 1485.48C860.788 1476.59 817.954 1449.06 789.421 1407.95C760.887 1366.84 750.069 1317.08 758.959 1267.84C767.849 1218.6 795.383 1175.77 836.49 1147.23C877.595 1118.7 927.354 1107.88 976.596 1116.77C1025.84 1125.66 1068.67 1153.19 1097.21 1194.3C1125.74 1235.41 1136.56 1285.16 1127.67 1334.41C1118.78 1383.65 1091.24 1426.48 1050.14 1455.02C1018.41 1477.04 981.528 1488.51 943.71 1488.51ZM942.97 1138.75C910.196 1138.75 878.239 1148.68 850.745 1167.77C815.124 1192.49 791.265 1229.61 783.561 1272.28C775.857 1314.96 785.232 1358.07 809.958 1393.69C834.684 1429.31 871.801 1453.17 914.473 1460.88C957.144 1468.58 1000.26 1459.21 1035.88 1434.48C1071.5 1409.75 1095.36 1372.64 1103.07 1329.96C1110.77 1287.29 1101.39 1244.18 1076.67 1208.55C1051.94 1172.93 1014.83 1149.07 972.154 1141.37C962.419 1139.61 952.657 1138.75 942.97 1138.75Z" fill="#371A45"/>
<path d="M1020.26 1377.35C1063.7 1333.91 1063.7 1263.49 1020.26 1220.05C976.824 1176.62 906.399 1176.62 862.963 1220.05C819.527 1263.49 819.526 1333.91 862.963 1377.35C906.399 1420.79 976.824 1420.79 1020.26 1377.35Z" fill="#22A7F0"/>
<g opacity="0.3">
<path d="M921.881 1408.18C982.339 1419.1 1040.18 1378.93 1051.09 1318.47C1053.47 1305.38 1053.44 1292.39 1051.29 1280C1051.12 1281.22 1050.92 1282.43 1050.7 1283.68C1039.79 1344.14 981.95 1384.31 921.492 1373.4C874.12 1364.86 839.226 1327.5 831.581 1282.66C822.909 1341.75 862.672 1397.48 921.881 1408.18Z" fill="white"/>
</g>
<g opacity="0.35">
<path d="M832.516 1326.41C832.784 1324.52 833.051 1322.63 833.4 1320.73C844.314 1260.27 902.152 1220.1 962.61 1231.02C1008.11 1239.22 1042.14 1274.04 1051.48 1316.53C1058.96 1258.16 1019.44 1203.56 960.884 1193C900.462 1182.09 842.598 1222.22 831.683 1282.67C829.005 1297.64 829.399 1312.45 832.516 1326.41Z" fill="#371A45"/>
</g>
<path d="M941.899 1422.47C934.513 1422.47 927.077 1421.81 919.655 1420.47C852.517 1408.35 807.757 1343.86 819.878 1276.73C825.75 1244.2 843.935 1215.91 871.084 1197.07C898.233 1178.22 931.096 1171.08 963.619 1176.95C996.142 1182.82 1024.43 1201.01 1043.28 1228.15C1062.12 1255.3 1069.27 1288.17 1063.4 1320.69C1057.52 1353.21 1039.34 1381.5 1012.19 1400.35C991.237 1414.89 966.876 1422.47 941.899 1422.47ZM924.097 1395.86C950.049 1400.55 976.271 1394.85 997.934 1379.81C1019.6 1364.77 1034.11 1342.2 1038.79 1316.25C1043.48 1290.3 1037.78 1264.07 1022.74 1242.41C1007.7 1220.75 985.128 1206.24 959.176 1201.55C933.224 1196.87 907.002 1202.57 885.339 1217.6C863.676 1232.64 849.165 1255.22 844.48 1281.17C834.809 1334.74 870.525 1386.19 924.097 1395.86Z" fill="#371A45"/>
<g opacity="0.35">
<path d="M1956.2 1518.26C2063.58 1518.26 2150.62 1431.22 2150.62 1323.84C2150.62 1216.46 2063.58 1129.42 1956.2 1129.42C1848.82 1129.42 1761.78 1216.46 1761.78 1323.84C1761.78 1431.22 1848.82 1518.26 1956.2 1518.26Z" fill="#371A45"/>
</g>
<path d="M1947.27 1475.96C2043.83 1475.96 2122.1 1397.68 2122.1 1301.12C2122.1 1204.57 2043.83 1126.29 1947.27 1126.29C1850.71 1126.29 1772.43 1204.57 1772.43 1301.12C1772.43 1397.68 1850.71 1475.96 1947.27 1475.96Z" fill="black"/>
<g opacity="0.3">
<path d="M1789.88 1293.15C1807.03 1198.13 1897.97 1135 1992.99 1152.16C2038.17 1160.31 2076.1 1185.16 2101.66 1219.18C2077.38 1173.5 2033.19 1138.97 1978.33 1129.07C1883.31 1111.92 1792.37 1175.04 1775.21 1270.06C1766.22 1319.91 1779.34 1368.62 1807.54 1406.16C1789.76 1372.72 1782.63 1333.31 1789.88 1293.15Z" fill="white"/>
</g>
<g opacity="0.35">
<path d="M1916.22 1473.17C2011.22 1490.31 2102.18 1427.23 2119.33 1332.2C2124.71 1302.31 2122.16 1272.83 2113.16 1245.92C2113.75 1258.83 2112.94 1271.98 2110.55 1285.25C2093.4 1380.28 2002.46 1443.41 1907.43 1426.26C1842.28 1414.49 1792.13 1368 1772.61 1309.35C1776.27 1388.97 1834.43 1458.39 1916.22 1473.17Z" fill="#371A45"/>
</g>
<path d="M1947.66 1488.51C1936.48 1488.51 1925.22 1487.51 1913.98 1485.48C1864.74 1476.59 1821.91 1449.06 1793.37 1407.95C1764.84 1366.84 1754.02 1317.08 1762.91 1267.84C1771.8 1218.6 1799.34 1175.77 1840.44 1147.23C1881.55 1118.7 1931.31 1107.88 1980.55 1116.77C2029.79 1125.66 2072.63 1153.19 2101.16 1194.3C2129.69 1235.41 2140.51 1285.16 2131.62 1334.41C2122.73 1383.65 2095.2 1426.48 2054.09 1455.02C2022.37 1477.04 1985.48 1488.51 1947.66 1488.51ZM1946.92 1138.75C1914.15 1138.75 1882.19 1148.68 1854.7 1167.77C1819.08 1192.49 1795.22 1229.61 1787.51 1272.28C1779.81 1314.96 1789.19 1358.07 1813.91 1393.69C1838.64 1429.31 1875.75 1453.17 1918.43 1460.88C1961.1 1468.58 2004.22 1459.21 2039.84 1434.48C2075.46 1409.75 2099.32 1372.64 2107.02 1329.97C2114.72 1287.29 2105.35 1244.18 2080.62 1208.56C2055.9 1172.94 2018.78 1149.08 1976.11 1141.37C1966.37 1139.61 1956.61 1138.75 1946.92 1138.75Z" fill="#371A45"/>
<path d="M2024.21 1377.36C2067.64 1333.92 2067.64 1263.5 2024.21 1220.06C1980.77 1176.62 1910.34 1176.62 1866.91 1220.06C1823.47 1263.5 1823.47 1333.92 1866.91 1377.36C1910.34 1420.79 1980.77 1420.79 2024.21 1377.36Z" fill="#22A7F0"/>
<g opacity="0.3">
<path d="M1925.83 1408.18C1986.29 1419.1 2044.13 1378.93 2055.04 1318.47C2057.42 1305.38 2057.39 1292.39 2055.24 1280C2055.07 1281.22 2054.87 1282.43 2054.65 1283.68C2043.74 1344.14 1985.9 1384.31 1925.44 1373.4C1878.07 1364.86 1843.18 1327.5 1835.53 1282.66C1826.86 1341.75 1866.62 1397.48 1925.83 1408.18Z" fill="white"/>
</g>
<g opacity="0.35">
<path d="M1836.47 1326.41C1836.74 1324.52 1837.01 1322.63 1837.36 1320.73C1848.27 1260.27 1906.11 1220.1 1966.57 1231.02C2012.07 1239.22 2046.09 1274.04 2055.44 1316.53C2062.92 1258.16 2023.39 1203.56 1964.84 1193C1904.42 1182.09 1846.55 1222.22 1835.64 1282.67C1832.96 1297.64 1833.35 1312.45 1836.47 1326.41Z" fill="#371A45"/>
</g>
<path d="M1945.85 1422.47C1938.47 1422.47 1931.03 1421.81 1923.61 1420.47C1856.47 1408.35 1811.71 1343.86 1823.83 1276.73C1829.7 1244.2 1847.89 1215.91 1875.04 1197.07C1902.18 1178.22 1935.05 1171.08 1967.57 1176.95C2034.71 1189.07 2079.47 1253.55 2067.35 1320.69C2061.48 1353.21 2043.29 1381.5 2016.14 1400.35C1995.19 1414.89 1970.83 1422.47 1945.85 1422.47ZM1928.05 1395.86C1954 1400.55 1980.22 1394.85 2001.89 1379.81C2023.55 1364.77 2038.06 1342.2 2042.75 1316.25C2052.42 1262.68 2016.7 1211.22 1963.13 1201.55C1937.18 1196.87 1910.96 1202.57 1889.29 1217.6C1867.63 1232.64 1853.12 1255.22 1848.43 1281.17C1838.76 1334.74 1874.48 1386.19 1928.05 1395.86Z" fill="#371A45"/>
<g opacity="0.35">
<path d="M1591.67 1533.23C1667.6 1457.3 1667.6 1334.2 1591.67 1258.28C1515.74 1182.35 1392.64 1182.35 1316.72 1258.28C1240.79 1334.2 1240.79 1457.3 1316.72 1533.23C1392.64 1609.16 1515.74 1609.16 1591.67 1533.23Z" fill="#371A45"/>
</g>
<path d="M1568.89 1496.66C1637.16 1428.39 1637.16 1317.69 1568.89 1249.41C1500.61 1181.13 1389.91 1181.13 1321.64 1249.41C1253.36 1317.69 1253.36 1428.39 1321.64 1496.66C1389.91 1564.94 1500.61 1564.94 1568.89 1496.66Z" fill="black"/>
<g opacity="0.3">
<path d="M1287.9 1365.07C1305.06 1270.04 1395.99 1206.92 1491.02 1224.08C1536.19 1232.23 1574.12 1257.08 1599.68 1291.09C1575.4 1245.42 1531.21 1210.89 1476.35 1200.99C1381.33 1183.83 1290.39 1246.96 1273.24 1341.98C1264.24 1391.83 1277.36 1440.54 1305.56 1478.07C1287.78 1444.64 1280.65 1405.23 1287.9 1365.07Z" fill="white"/>
</g>
<g opacity="0.35">
<path d="M1414.24 1545.09C1509.24 1562.23 1600.2 1499.15 1617.35 1404.12C1622.74 1374.23 1620.18 1344.75 1611.19 1317.84C1611.78 1330.74 1610.96 1343.89 1608.57 1357.17C1591.42 1452.2 1500.48 1515.33 1405.45 1498.17C1340.3 1486.41 1290.15 1439.92 1270.63 1381.26C1274.29 1460.89 1332.45 1530.31 1414.24 1545.09Z" fill="#371A45"/>
</g>
<path d="M1445.69 1560.43C1434.5 1560.43 1423.25 1559.43 1412.01 1557.4C1310.35 1539.04 1242.58 1441.41 1260.93 1339.76C1279.29 1238.11 1376.92 1170.34 1478.57 1188.69C1580.23 1207.04 1648 1304.67 1629.64 1406.32C1620.75 1455.57 1593.22 1498.4 1552.11 1526.93C1520.39 1548.96 1483.51 1560.43 1445.69 1560.43ZM1416.45 1532.79C1459.12 1540.5 1502.24 1531.12 1537.86 1506.4C1573.48 1481.67 1597.34 1444.55 1605.04 1401.88C1620.95 1313.79 1562.22 1229.19 1474.13 1213.29C1431.46 1205.59 1388.34 1214.96 1352.72 1239.69C1317.1 1264.41 1293.24 1301.53 1285.54 1344.2C1269.63 1432.29 1328.36 1516.89 1416.45 1532.79Z" fill="#371A45"/>
<path d="M1522.23 1449.27C1565.67 1405.83 1565.67 1335.41 1522.23 1291.97C1478.8 1248.54 1408.37 1248.54 1364.94 1291.97C1321.5 1335.41 1321.5 1405.83 1364.94 1449.27C1408.37 1492.71 1478.8 1492.71 1522.23 1449.27Z" fill="#22A7F0"/>
<g opacity="0.3">
<path d="M1423.86 1480.1C1484.32 1491.01 1542.15 1450.84 1553.07 1390.39C1555.44 1377.3 1555.41 1364.31 1553.27 1351.92C1553.1 1353.14 1552.89 1354.35 1552.68 1355.6C1541.76 1416.06 1483.93 1456.23 1423.47 1445.31C1376.1 1436.77 1341.2 1399.42 1333.56 1354.57C1324.89 1413.66 1364.65 1469.4 1423.86 1480.1Z" fill="white"/>
</g>
<g opacity="0.35">
<path d="M1334.49 1398.33C1334.76 1396.44 1335.03 1394.55 1335.38 1392.65C1346.29 1332.19 1404.13 1292.02 1464.59 1302.94C1510.09 1311.13 1544.11 1345.96 1553.46 1388.44C1560.94 1330.08 1521.41 1275.48 1462.86 1264.92C1402.44 1254.01 1344.57 1294.14 1333.66 1354.59C1330.98 1369.56 1331.38 1384.37 1334.49 1398.33Z" fill="#371A45"/>
</g>
<path d="M1443.67 1494.36C1436.4 1494.36 1429.04 1493.72 1421.63 1492.38C1389.11 1486.51 1360.82 1468.33 1341.97 1441.18C1323.13 1414.03 1315.98 1381.17 1321.85 1348.64C1333.98 1281.5 1398.45 1236.75 1465.59 1248.87C1498.12 1254.74 1526.41 1272.92 1545.25 1300.07C1564.1 1327.22 1571.24 1360.08 1565.37 1392.61C1554.59 1452.34 1502.34 1494.36 1443.67 1494.36ZM1443.57 1271.89C1396.75 1271.89 1355.06 1305.42 1346.46 1353.08C1341.77 1379.04 1347.47 1405.26 1362.51 1426.92C1377.55 1448.59 1400.12 1463.1 1426.07 1467.78C1479.65 1477.46 1531.1 1441.74 1540.77 1388.17C1545.46 1362.21 1539.75 1335.99 1524.72 1314.33C1509.68 1292.66 1487.11 1278.15 1461.15 1273.47C1455.25 1272.4 1449.37 1271.89 1443.57 1271.89Z" fill="#371A45"/>
<rect x="1242.84" y="1184.4" width="422.7" height="422.7" rx="65" fill="white"/>
<path d="M1454.35 1219.94L1425.07 1268.64L1530.77 1449.78L1445.02 1545.94C1445.02 1545.94 1512.42 1545.54 1512.02 1545.94C1511.62 1546.34 1592.19 1455.37 1592.19 1455.37L1454.35 1219.94ZM1415.9 1286.6L1316.19 1456.17L1394.76 1545.94H1424.31L1467.51 1495.66H1419.51L1377.19 1448.59L1444.99 1333.28L1415.9 1286.6Z" fill="#04183D"/>
</svg>
