<svg width="3326" height="1809" viewBox="0 0 3326 1809" fill="none" xmlns="http://www.w3.org/2000/svg">
<path d="M2663.54 1110.81C2663.54 1110.81 2839.43 879.482 3292.73 1244.22C3314.03 1261.36 3314.32 1293.67 3293.2 1311.03C3179.78 1404.25 2848.63 1645.23 2666.11 1448.73L2663.54 1110.81Z" fill="#E81818"/>
<path d="M2662.91 1159.67C2662.91 1159.67 2787.73 995.506 3109.55 1255.43C3123.64 1266.81 3123.81 1288.26 3109.84 1299.79C3031.36 1364.62 2794.73 1538.54 2664.73 1398.59L2662.91 1159.67Z" fill="#E7A900"/>
<path d="M2650.53 1198.74C2650.53 1198.74 2734.75 1087.97 2951.9 1263.36C2961.4 1271.03 2961.52 1285.51 2952.1 1293.29C2899.14 1337.03 2739.47 1454.39 2651.75 1359.96L2650.53 1198.74Z" fill="#FFFD01"/>
<path d="M2842.83 1540.86C2836.5 1540.86 2830.25 1540.67 2824.1 1540.3C2756.35 1536.15 2698.98 1509.26 2653.57 1460.38C2650.66 1457.24 2649.03 1453.14 2649 1448.86L2646.44 1110.94C2646.41 1107.16 2647.64 1103.47 2649.93 1100.46C2651.9 1097.87 2699.45 1036.79 2805.92 1023.78C2867.08 1016.31 2935.4 1026.28 3008.98 1053.41C3099.49 1086.78 3198.57 1146.5 3303.46 1230.9C3317.68 1242.34 3325.88 1259.34 3325.98 1277.56C3326.07 1295.7 3318.08 1312.72 3304.06 1324.25C3247.43 1370.8 3134.16 1456.1 3011.86 1504.44C2950.6 1528.64 2893.85 1540.86 2842.83 1540.86ZM2683.16 1441.83C2756.2 1516.3 2862.51 1526.66 2999.28 1472.62C3117.24 1426 3227.25 1343.09 3282.33 1297.82C3288.37 1292.86 3291.81 1285.54 3291.77 1277.73C3291.73 1269.86 3288.17 1262.51 3282.01 1257.55C3052.4 1072.8 2898.63 1046.92 2810.07 1057.74C2733.08 1067.14 2692.32 1104.63 2680.7 1117.11L2683.16 1441.83Z" fill="#371A45"/>
<path d="M2684.19 803.138C2642.46 828.32 2445.44 945.042 2448.9 1069.46L2240.73 976.132C2241.38 970.062 2242.39 963.716 2243.8 957.222L2243.79 957.191C2264.15 863.903 2368.05 732.854 2675.72 792.74C2678.01 793.172 2680.31 793.636 2682.63 794.093C2687.01 794.966 2688.03 800.816 2684.19 803.138Z" fill="black"/>
<g opacity="0.5">
<path d="M2684.2 803.148C2678.69 806.486 2670.49 811.392 2660.35 817.746C2378.93 772.223 2280.05 894.273 2258.73 984.232L2240.72 976.149C2241.36 970.077 2242.41 963.722 2243.81 957.207H2243.77C2264.16 863.911 2368.04 732.854 2675.71 792.733C2678.01 793.175 2680.3 793.618 2682.63 794.1C2687.01 794.984 2688.02 800.815 2684.2 803.148Z" fill="white"/>
</g>
<g opacity="0.25">
<path d="M2679.19 793.138C2637.46 818.32 2440.44 935.042 2443.9 1059.46L2235.73 966.132C2236.38 960.062 2237.39 953.716 2238.8 947.222L2236.16 955.971C2251.32 948.958 2275.7 941.408 2298.98 943.815C2384.53 952.665 2429.43 950.981 2471.11 906.731C2523.36 851.256 2621.57 792.55 2670.72 782.74C2673.01 783.172 2675.31 783.636 2677.63 784.093C2682.01 784.966 2683.03 790.816 2679.19 793.138Z" fill="#371A45"/>
</g>
<path d="M2448.89 1085.56C2440.21 1085.56 2433.06 1078.65 2432.82 1069.92C2431.24 1013.06 2466.11 952.279 2536.46 889.26C2577.37 852.607 2621.89 822.851 2651.05 804.567C2513.98 781.3 2405.1 795.96 2334.98 847.4C2271.94 893.642 2259.26 954.014 2256.73 977.823C2255.79 986.657 2247.88 993.058 2239.04 992.121C2230.2 991.183 2223.8 983.262 2224.74 974.427C2227.72 946.367 2242.57 875.291 2315.95 821.459C2354.32 793.313 2402.45 774.842 2459.02 766.56C2523.86 757.066 2600.16 761.021 2685.81 778.314C2694.37 780.042 2700.86 786.722 2702.35 795.334C2703.84 803.94 2699.98 812.411 2692.51 816.915L2690.53 818.107C2668.47 831.398 2609.85 866.703 2557.92 913.221C2494.95 969.638 2463.68 1022.06 2464.98 1069.03C2465.22 1077.91 2458.22 1085.3 2449.34 1085.55C2449.19 1085.56 2449.04 1085.56 2448.89 1085.56Z" fill="#371A45"/>
<path d="M2433.71 1557.61L2543 1537.83C2592.44 1528.88 2631.94 1497.29 2645.84 1455.59C2687.24 1331.4 2688.18 1199.56 2648.57 1074.35C2635.27 1032.31 2596.23 999.739 2546.92 989.553L2437.94 967.039L2433.71 1557.61Z" fill="#22A7F0"/>
<g opacity="0.5">
<path d="M2648.57 1074.35C2635.27 1032.31 2596.23 999.738 2546.93 989.552L2437.94 967.038L2437.67 1004.89L2532.85 1024.55C2582.16 1034.74 2621.2 1067.31 2634.5 1109.35C2672.64 1229.91 2673.06 1356.59 2636.1 1476.7C2640.08 1470.02 2643.38 1462.97 2645.85 1455.58C2687.24 1331.4 2688.18 1199.56 2648.57 1074.35Z" fill="white"/>
</g>
<g opacity="0.3">
<path d="M2533.17 1497.82C2582.6 1488.89 2622.13 1457.28 2636 1415.58C2652.39 1366.37 2662.38 1315.96 2666.07 1265.22C2666.13 1265.18 2666.19 1265.13 2666.25 1265.09C2636.77 1285.72 2595.03 1300.41 2547.11 1305.93L2435.4 1318.8L2433.97 1515.78L2533.17 1497.82Z" fill="#371A45"/>
</g>
<path d="M2234.83 1564.46C2242.88 1658.22 2336.85 1821.45 2672.92 1760.58C2677.33 1759.78 2678.47 1753.95 2674.68 1751.56C2633.45 1725.55 2438.88 1599.31 2444.83 1474.98" fill="#D25658"/>
<path d="M2672.92 1760.6C2677.32 1759.77 2678.46 1753.95 2674.67 1751.56C2653.57 1738.23 2592.21 1698.61 2538.19 1646.4C2487.12 1597.1 2442.62 1536.51 2444.8 1476.31C2444.8 1475.88 2444.84 1475.41 2444.85 1474.98L2443.57 1475.52L2234.84 1564.44C2237.1 1590.76 2246.13 1622.56 2265.41 1653.33C2314.7 1732.2 2431.15 1804.36 2672.92 1760.6Z" fill="black"/>
<g opacity="0.35">
<path d="M2538.19 1646.4C2487.12 1597.1 2442.62 1536.51 2444.8 1476.31C2444.39 1476.06 2443.98 1475.77 2443.57 1475.52L2234.84 1564.44C2237.1 1590.76 2246.13 1622.56 2265.41 1653.33C2332.36 1676.82 2421.84 1681.12 2538.19 1646.4Z" fill="#371A45"/>
</g>
<path d="M2536.88 1789.9C2506.39 1789.9 2477.73 1787.62 2451.04 1783.06C2395.03 1773.5 2347.39 1753.94 2309.45 1724.91C2280.94 1703.1 2258.4 1676.42 2242.45 1645.6C2225.8 1613.42 2220.4 1584.46 2218.8 1565.83C2218.04 1556.98 2224.6 1549.19 2233.45 1548.43C2242.31 1547.67 2250.1 1554.23 2250.86 1563.08C2252.51 1582.29 2263.01 1648.89 2328.99 1699.36C2398.37 1752.43 2506.15 1769.57 2641.89 1749.4C2608.9 1727.26 2568.29 1697.2 2530.99 1661.81C2460.41 1594.82 2426.01 1531.7 2428.76 1474.21C2429.19 1465.34 2436.72 1458.5 2445.6 1458.91C2454.47 1459.34 2461.32 1466.88 2460.9 1475.75C2458.65 1522.79 2490.54 1579.06 2553.14 1638.47C2598.33 1681.36 2648.84 1716.24 2683.26 1737.95C2690.64 1742.61 2694.33 1751.15 2692.67 1759.73C2691 1768.31 2684.38 1774.85 2675.79 1776.41C2626.17 1785.4 2579.72 1789.9 2536.88 1789.9Z" fill="#371A45"/>
<path d="M2475.11 1077.92C2515.22 1237.5 2501.43 1404.14 2433.7 1557.61C2433.7 1557.61 2035.89 1841.23 1250.4 1784.92C328.264 1718.82 0.830078 1231.82 0.830078 1231.82C0.830078 1231.82 285.31 824.62 1053.59 727.634C1118.28 719.434 1186.44 713.485 1258.1 710.155C1498.92 698.955 1702.9 718.695 1869.99 751.509C2248.5 825.816 2437.95 967.017 2437.95 967.017C2453.29 1003.42 2465.69 1040.46 2475.11 1077.92Z" fill="white"/>
<g opacity="0.3">
<path d="M1250.37 1784.91C2035.87 1841.23 2433.74 1557.62 2433.74 1557.62C2466.13 1484.17 2486.16 1407.68 2493.87 1330.38C2506.04 1208.35 2487.43 1084.31 2437.96 967.012C2437.96 967.012 2337.03 891.8 2135.34 822.247C2201.8 856.555 2327 921.138 2386.52 990.304C2455.9 1070.93 2446.26 1180.04 2291 1244.71C2290.28 1245 2239.64 1267.88 2240.1 1268.51C2349.04 1416.3 2198.52 1536.37 2028.74 1599.86C1721.32 1714.83 1363.6 1733.47 1062.42 1652.77C969.535 1627.88 772.387 1559.2 721.809 1436.93C614.714 1178.03 693.199 915.443 637.079 913.832C550.477 911.347 509.144 1601.25 445.096 1578.6C638.132 1674.82 901.751 1759.9 1250.37 1784.91Z" fill="#371A45"/>
</g>
<path d="M1453.45 1808.38C1386.37 1808.38 1318.23 1805.91 1249.28 1800.97C1035.25 1785.62 835.339 1746.2 655.095 1683.81C649.613 1681.91 645.658 1677.25 644.572 1671.7C610.409 1529.66 593.611 1384.2 594.647 1239.37C595.685 1094.32 614.614 949.081 650.909 807.693C652.285 802.332 656.321 798.055 661.593 796.37C842.709 738.492 1043.16 704.084 1257.38 694.101C1437.73 685.692 1612.4 694.05 1776.52 718.941C1907.96 738.876 2033 769.403 2148.14 809.675C2344.91 878.493 2443.49 951.078 2447.59 954.134C2449.88 955.845 2451.68 958.138 2452.79 960.776C2493.87 1058.1 2514.33 1159.84 2513.59 1263.17C2512.85 1366.48 2490.94 1467.72 2448.47 1564.07C2447.3 1566.72 2445.44 1569 2443.08 1570.68C2438.94 1573.64 2339.31 1643.78 2141.57 1707.68C2025.86 1745.07 1900.41 1772.47 1768.69 1789.12C1667.16 1801.95 1561.69 1808.38 1453.45 1808.38ZM673.967 1656.27C849.382 1716.1 1043.66 1753.97 1251.58 1768.88C1654.73 1797.78 1952.7 1734.91 2131.68 1677.07C2304.42 1621.24 2401.63 1559.72 2420.86 1546.9C2460.35 1455.85 2480.72 1360.34 2481.42 1262.94C2482.11 1165.49 2463.1 1069.47 2424.9 977.472C2405.89 964.219 2308.6 899.688 2135.89 839.473C1958.01 777.457 1661.47 707.471 1258.87 726.237C1050.81 735.933 856.081 768.924 679.875 824.323C610.647 1099.58 608.655 1379.38 673.967 1656.27Z" fill="#371A45"/>
<path d="M2433.7 1573.7C2426.07 1573.7 2419.3 1568.25 2417.89 1560.47C2416.31 1551.73 2422.11 1543.36 2430.85 1541.78L2540.14 1522C2583.87 1514.08 2618.52 1486.69 2630.59 1450.5C2670.9 1329.55 2671.81 1201.16 2633.24 1079.21C2621.67 1042.65 2587.35 1014.33 2543.67 1005.31L2434.69 982.792C2425.99 980.995 2420.39 972.485 2422.19 963.785C2423.99 955.084 2432.5 949.487 2441.2 951.286L2550.18 973.799C2605.26 985.176 2648.83 1021.85 2663.91 1069.5C2704.55 1197.97 2703.58 1333.23 2661.11 1460.67C2645.33 1508.02 2601.17 1543.65 2545.87 1553.66L2436.58 1573.44C2435.61 1573.61 2434.65 1573.7 2433.7 1573.7Z" fill="#371A45"/>
<path d="M2444.36 1365.59C2561.5 1366.74 2677.79 1275.16 2677.79 1275.16C2677.79 1275.16 2677.35 1274.8 2676.54 1274.19C2663.88 1264.11 2556.26 1181.2 2446.26 1180.04C2340.69 1178.96 2255.1 1254.45 2240.1 1268.51C2238.56 1269.96 2237.77 1270.75 2237.77 1270.75C2237.77 1270.75 2328 1364.48 2444.36 1365.59Z" fill="black"/>
<g opacity="0.5">
<path d="M2677.78 1275.17C2677.78 1275.17 2672.84 1279.07 2663.98 1285.21C2612.89 1253.34 2530.35 1211.65 2446.64 1210.77C2363.85 1209.92 2291.67 1249.63 2248.1 1280.51C2241.39 1274.5 2237.77 1270.74 2237.77 1270.74C2237.77 1270.74 2238.55 1269.95 2240.08 1268.51C2255.09 1254.44 2340.69 1178.94 2446.25 1180.04C2556.25 1181.21 2663.89 1264.12 2676.55 1274.18C2677.34 1274.8 2677.78 1275.17 2677.78 1275.17Z" fill="white"/>
</g>
<g opacity="0.3">
<path d="M2444.36 1365.59C2561.5 1366.74 2677.79 1275.16 2677.79 1275.16C2677.79 1275.16 2677.35 1274.8 2676.54 1274.19L2240.1 1268.51C2238.56 1269.96 2237.77 1270.75 2237.77 1270.75C2237.77 1270.75 2328 1364.48 2444.36 1365.59Z" fill="#6B184E"/>
</g>
<path d="M2446.6 1381.7C2445.8 1381.7 2445.01 1381.7 2444.22 1381.69C2393.63 1381.2 2339.89 1363.78 2288.81 1331.33C2250.52 1307 2227.17 1282.91 2226.19 1281.9C2220.11 1275.58 2220.21 1265.56 2226.42 1259.36C2227.41 1258.37 2251.25 1234.76 2290.02 1211.2C2341.74 1179.78 2395.84 1163.46 2446.41 1163.97C2497.65 1164.5 2553.92 1181.31 2613.66 1213.95C2657.72 1238.02 2686.79 1261.73 2688 1262.73C2691.77 1265.82 2693.93 1270.45 2693.88 1275.33C2693.83 1280.2 2691.58 1284.79 2687.75 1287.8C2686.51 1288.77 2656.98 1311.9 2612.44 1335.08C2553 1366.02 2497.21 1381.7 2446.6 1381.7ZM2261.63 1270.99C2271.55 1279.66 2287.09 1292.18 2306.78 1304.62C2338.7 1324.8 2388.52 1348.97 2444.53 1349.52C2529.17 1350.38 2614.84 1299.12 2650.56 1274.9C2615.29 1249.98 2530.52 1197.01 2446.07 1196.14C2390.02 1195.54 2339.77 1218.73 2307.44 1238.26C2287.51 1250.31 2271.72 1262.52 2261.63 1270.99Z" fill="#371A45"/>
<path d="M720.509 887.833C720.463 885.255 720.496 882.64 720.569 880.026C735.184 350.433 1082.5 4.91478 1498.83 16.4048C1915.2 27.8948 2242.93 392.042 2228.31 921.635C2228.24 924.249 2228.09 926.861 2227.9 929.433L720.509 887.833Z" fill="#27BDFF"/>
<g opacity="0.5">
<path d="M1498.83 16.4039C1424.57 14.3549 1352.54 23.7198 1284.17 43.4008C1182.44 72.6888 1088.89 124.944 1008.43 196.948C839.801 347.86 728.698 585.44 720.568 880.024C720.496 882.639 720.463 885.253 720.509 887.832L751.592 888.69C765.698 600.74 879.182 369.404 1048.11 223.418C1086.61 231.035 1143.01 214.406 1194.67 176.633C1229.08 151.466 1255.18 121.447 1270.09 92.6749C1351.29 63.2729 1438.43 48.9078 1528.83 51.4028C1725.49 56.8298 1902.34 140.962 2032.72 284.008C1900.15 119.75 1711.02 22.2599 1498.83 16.4039Z" fill="white"/>
</g>
<g opacity="0.35">
<path d="M1873.35 181.954C1873.34 181.927 1873.33 181.898 1873.31 181.872C1887.31 212.178 1899.65 241.11 1910.42 268.592C1985.05 458.99 1847.62 665.787 1643.14 669.107C1326.34 674.252 875.417 712.548 720.587 880.037C718.812 881.957 720.466 885.265 720.506 887.839L2193.51 928.473C2199.1 599.109 2071.76 335.002 1873.35 181.954Z" fill="#371A45"/>
</g>
<path d="M2227.92 945.518C2227.53 945.518 2227.13 945.503 2226.73 945.475C2217.87 944.828 2211.21 937.12 2211.86 928.26C2212.05 925.614 2212.18 923.302 2212.23 921.193C2219.07 673.551 2148.25 447.623 2012.83 285.025C1881.81 127.711 1699.11 38.0228 1498.39 32.4838C1297.68 26.9438 1110.32 106.421 970.83 256.269C826.651 411.153 743.484 632.832 736.65 880.469C736.575 883.163 736.557 885.478 736.594 887.546C736.752 896.428 729.68 903.757 720.797 903.915C711.928 904.089 704.586 897 704.428 888.118C704.382 885.558 704.403 882.765 704.491 879.58C708.099 748.822 731.749 625.911 774.783 514.261C816.077 407.125 874.115 312.948 947.283 234.348C1093.16 77.6378 1289.19 -5.47525 1499.27 0.32375C1709.37 6.12175 1900.53 99.9178 2037.55 264.436C2106.28 346.951 2159.03 444.185 2194.36 553.437C2231.17 667.29 2248 791.319 2244.39 922.078C2244.32 924.678 2244.18 927.468 2243.95 930.604C2243.33 939.065 2236.27 945.517 2227.92 945.518Z" fill="#371A45"/>
<path d="M2227.9 929.431C2227.57 934.458 2226.88 939.477 2226.05 944.334C2197.8 1031.09 1869.03 1091.25 1469.47 1080.22C1069.95 1069.2 744.994 991.001 721.541 902.815C721.013 897.92 720.605 892.872 720.51 887.832C732.146 797.256 1068.13 733.397 1478.73 744.728C1889.36 756.061 2221.28 838.352 2227.9 929.431Z" fill="#371A45"/>
<path d="M1563.07 1097.6C1532.06 1097.6 1500.67 1097.16 1469.04 1096.29C1275.34 1090.94 1091.27 1069.57 950.752 1036.09C881.706 1019.65 825.923 1000.97 784.952 980.589C738.909 957.683 713.087 933.597 706.01 906.956L705.706 905.813L705.573 904.638C704.917 898.852 704.536 893.292 704.442 888.112C704.279 879.23 711.348 871.897 720.231 871.735C729.113 871.552 736.445 878.641 736.608 887.524C736.677 891.317 736.943 895.417 737.399 899.727C742.401 915.943 764.302 934.384 799.282 951.786C838.067 971.081 891.537 988.917 958.207 1004.8C1096.64 1037.77 1278.37 1058.85 1469.93 1064.13C1661.49 1069.42 1844.11 1058.4 1984.15 1033.11C2051.59 1020.93 2105.97 1006.07 2145.76 988.944C2181.64 973.497 2204.53 956.293 2210.42 940.377C2211.11 936.104 2211.6 932.025 2211.88 928.239C2212.53 919.379 2220.24 912.733 2229.1 913.376C2237.96 914.028 2244.61 921.739 2243.96 930.598C2243.58 935.771 2242.9 941.302 2241.92 947.039L2241.72 948.204L2241.36 949.328C2232.82 975.538 2205.71 998.163 2158.47 1018.49C2116.44 1036.59 2059.71 1052.16 1989.86 1064.77C1870.92 1086.25 1722 1097.6 1563.07 1097.6Z" fill="#181558"/>
<path d="M1563.26 1097.6C1549.07 1097.6 1534.84 1097.51 1520.55 1097.33C1503.6 1097.12 1486.27 1096.78 1469.04 1096.3C1378.29 1093.8 1289.56 1087.8 1205.3 1078.47C1069.69 1063.48 951.791 1040.54 864.364 1012.12C769.663 981.346 716.389 945.958 706.02 906.944L705.727 905.84L705.593 904.706C704.916 899 704.525 893.414 704.43 888.103C704.271 879.221 711.343 871.891 720.225 871.732C729.103 871.547 736.436 878.645 736.596 887.527C736.665 891.391 736.935 895.474 737.399 899.681C751.886 947.086 904.88 1012.9 1208.84 1046.49C1292.22 1055.72 1380.06 1061.66 1469.93 1064.14C1486.99 1064.61 1504.16 1064.96 1520.95 1065.16C1589.19 1066.03 1656.39 1064.8 1720.69 1061.53C1739.77 1060.53 1758.32 1059.4 1775.79 1058.15C1898.67 1049.36 2004.9 1032.96 2082.98 1010.72C2184.19 981.904 2205.85 952.557 2210.42 940.318C2211.07 936.377 2211.57 932.285 2211.9 928.137C2212.61 919.282 2220.34 912.671 2229.21 913.379C2238.07 914.084 2244.68 921.835 2243.97 930.691C2243.53 936.274 2242.83 941.795 2241.9 947.101L2241.71 948.225L2241.35 949.31C2235.06 968.641 2217.92 986.568 2190.41 1002.59C2165.93 1016.86 2132.75 1030 2091.79 1041.67C2011.61 1064.49 1903.14 1081.29 1778.09 1090.24C1760.4 1091.5 1741.65 1092.65 1722.35 1093.66C1670.82 1096.28 1617.48 1097.6 1563.26 1097.6Z" fill="#371A45"/>
<path d="M1253.97 973.698C1253.1 987.192 1248.6 996.72 1242.36 1007.32C1230.47 1028.3 1214.86 1046.02 1196.48 1060.96C1140.65 1054.59 1082.93 1046.17 1029.85 1036.14C1162.87 896.581 1204.91 828.348 1247.22 746.949C1252.08 819.265 1259.27 902.634 1253.97 973.698Z" fill="white"/>
<g opacity="0.35">
<path d="M1253.97 973.698C1253.1 987.192 1248.6 996.72 1242.37 1007.32C1237.23 1016.37 1231.69 1024.49 1225.42 1032.03L1225.42 1032.07C1216.7 1042.91 1207.06 1052.37 1196.48 1060.96C1171.88 1058.16 1147.86 1055.07 1124.61 1051.72C1208.28 980.807 1218.05 846.843 1247.21 747.075C1247.26 747.034 1247.26 746.993 1247.26 746.993C1247.26 746.993 1247.35 748.08 1247.5 750.169C1252.2 821.434 1259.23 903.743 1253.97 973.698Z" fill="#371A45"/>
</g>
<path d="M1196.48 1077.05C1195.88 1077.05 1195.27 1077.01 1194.66 1076.94C1136 1070.25 1077.98 1061.61 1026.86 1051.95C1021.07 1050.85 1016.34 1046.68 1014.54 1041.07C1012.73 1035.46 1014.14 1029.31 1018.21 1025.04C1153.65 882.941 1192.65 817.073 1232.94 739.533C1236.27 733.133 1243.45 729.731 1250.51 731.205C1257.57 732.681 1262.78 738.675 1263.27 745.871C1263.84 754.391 1264.44 763.064 1265.06 771.852C1269.61 837.074 1274.76 910.997 1270.01 974.815C1268.85 992.614 1262.34 1005.08 1256.29 1015.36C1243.92 1037.17 1227.21 1056.71 1206.63 1073.44C1203.75 1075.78 1200.16 1077.05 1196.48 1077.05ZM1061.93 1025.59C1102.65 1032.63 1146.77 1038.97 1191.44 1044.19C1206.59 1030.97 1219 1015.92 1228.37 999.387C1228.41 999.312 1228.46 999.238 1228.5 999.164C1234.12 989.61 1237.28 982.558 1237.91 972.669C1237.92 972.613 1237.92 972.557 1237.93 972.502C1241.83 920.116 1238.73 859.602 1234.96 803.172C1201.72 860.816 1156.74 924.132 1061.93 1025.59Z" fill="#371A45"/>
<path d="M1776.34 747.292L1767.31 1074.59C1675.92 1080.69 1584.92 1082.44 1492.3 1080.46C1492.3 1080.46 1492.3 1080.46 1492.26 1080.46C1492.09 1080.58 1491.92 1080.7 1491.71 1080.82C1491.7 1080.82 1437.19 1079.32 1437.17 1079.32C1437.47 1079.2 1437.72 1079.08 1438.02 1078.92C1373.43 1076.5 1311.3 1072.4 1248.03 1066.43L1257.23 732.966C1258.11 693.693 1291.78 661.207 1331.73 662.476C1350.02 666.476 1743.89 663.733 1743.99 685.027C1744.04 685.028 1744.04 685.028 1744.04 685.028C1764.11 698.397 1776.98 721.67 1776.34 747.292Z" fill="white"/>
<g opacity="0.35">
<path d="M1248.3 1056.6C1253.3 1061.15 1258.95 1064.98 1265.08 1067.98C1259.33 1067.49 1253.66 1066.95 1247.99 1066.43L1248.26 1056.55L1248.3 1056.6Z" fill="#371A45"/>
</g>
<g opacity="0.35">
<path d="M1776.34 747.292L1767.31 1074.59C1747.14 1075.9 1726.11 1077.15 1705.55 1078.05C1711.27 1074.75 1716.35 1070.3 1720.89 1064.59C1720.93 1064.59 1720.93 1064.55 1720.93 1064.51C1764.01 1001.36 1760.42 845.938 1776.33 746.291C1776.36 746.626 1776.35 746.959 1776.34 747.292Z" fill="#371A45"/>
</g>
<path d="M1564.6 1093.31C1541.79 1093.31 1518.75 1093.07 1495.39 1092.6L1494.87 1092.89H1491.71C1491.34 1092.89 1437.38 1091.39 1436.84 1091.38L1378.16 1089.75L1381.5 1088.42C1336.43 1086 1291.99 1082.7 1246.9 1078.44L1235.66 1077.38L1245.17 732.633C1245.67 710.323 1255.08 689.349 1271.66 673.637C1288.22 657.951 1309.7 649.703 1332.11 650.417L1333.22 650.452L1334.2 650.666C1340.15 651.635 1381.95 652.288 1426.2 652.979C1488.85 653.957 1566.81 655.175 1631.23 658.063C1666.98 659.666 1693.68 661.561 1712.86 663.856C1732.13 666.163 1747.83 668.772 1753.64 677.019C1775.86 693.24 1789.1 719.954 1788.4 747.596L1788.4 747.625L1779.06 1085.89L1768.11 1086.62C1701.08 1091.1 1633.95 1093.31 1564.6 1093.31ZM1488.49 1068.34L1492.55 1068.4C1583.61 1070.35 1669.77 1068.67 1755.55 1063.26L1764.28 746.959C1764.76 727.46 1755.55 708.612 1740.05 696.982L1732.03 696.751L1731.98 691.464C1723.21 689.092 1696.77 684.836 1617.52 681.629C1555.87 679.135 1483.77 678.009 1425.83 677.104C1363.53 676.131 1338.56 675.646 1330.6 674.514C1314.92 674.212 1299.92 680.102 1288.25 691.152C1276.38 702.401 1269.65 717.346 1269.3 733.233L1260.4 1055.46C1319.72 1060.86 1378.09 1064.6 1438.47 1066.87L1480.44 1068.44C1483.45 1068.53 1486.07 1068.6 1488.06 1068.65L1488.49 1068.34ZM1731.93 685.085C1731.93 685.111 1731.93 685.137 1731.93 685.162V685.085Z" fill="#371A45"/>
<path d="M2037.25 543.607C2033.54 631.642 1977.13 708.722 1911.24 767.609L1911.2 767.608C1849.16 822.812 1775.07 864.716 1698.3 896.528C1698.3 896.528 1698.3 896.57 1698.34 896.612C1698.34 896.654 1698.37 896.822 1698.49 897.033C1707.71 928.226 1714.35 961.064 1718.05 993.676L1718.09 993.719C1721.27 1021.36 1722.39 1049.57 1720.16 1077.37C1644.67 1081.15 1569.05 1082.11 1492.3 1080.46C1492.3 1080.46 1492.3 1080.46 1492.26 1080.46C1492.09 1080.58 1491.92 1080.7 1491.71 1080.82C1491.7 1080.82 1437.19 1079.32 1437.17 1079.32C1437.47 1079.2 1437.72 1079.08 1438.02 1078.92C1358.61 1075.86 1281.99 1070.58 1203.92 1061.79C1193.13 968.747 1205.19 869.586 1236.22 781.169C1236.27 781.128 1236.22 781.127 1236.22 781.127C1238.64 774.772 1240.91 768.59 1243.62 762.527C1261.54 722.321 1291.62 663.874 1343.84 672.106C1431.57 691.694 1521.75 711.958 1608.91 734.667C1616.64 737.261 1623.8 739.004 1631.64 735.795L1631.65 735.753C1635.97 734.712 1640.1 733.499 1644.46 732.271C1679.62 721.654 1705.22 691.944 1735.65 670.935C1735.7 670.936 1749.46 657.996 1749.46 657.996C1791.2 620.33 1806.83 601.845 1830.04 560.697C1823.25 531.989 1826.52 521.065 1829.77 491.185C1833.44 471.436 1855.7 460.861 1870.55 468.336C1882.21 474.139 1884.44 499.244 1889.51 513.93C1889.51 513.93 1889.83 512.855 1890.51 510.914C1925.13 400.995 2039.5 438.907 2037.25 543.607Z" fill="white"/>
<g opacity="0.35">
<path d="M1721.17 1058.76C1720.97 1064.99 1720.69 1071.17 1720.16 1077.37C1691.72 1078.77 1663.78 1079.82 1634.56 1080.47C1595.67 1052.92 1536.33 1071.89 1485.64 1054.51C1475.07 1042.54 1468.5 995.544 1503.33 981.372C1562.25 998.828 1649.86 1009.02 1709.51 963.254C1717.13 968.254 1716.56 984.723 1718.05 993.676L1718.09 993.719C1720.59 1015.19 1721.75 1037.09 1721.17 1058.76Z" fill="#371A45"/>
</g>
<g opacity="0.35">
<path d="M1655.59 936.922C1658.84 952.401 1661.93 969.235 1664.42 986.67C1680.35 981.578 1695.73 974.061 1709.5 963.255C1709.5 963.255 1711.88 965.453 1714.74 969.425C1710.85 944.886 1705.44 920.186 1698.33 896.6C1698.3 896.568 1698.3 896.538 1698.3 896.538C1775.45 864.52 1848.92 822.909 1911.22 767.62L1911.25 767.621C1976.05 712.142 2037.98 621.632 2037.26 540.571C1914.67 839.283 1624.06 798.03 1655.59 936.922Z" fill="#371A45"/>
</g>
<path d="M1720.13 1089.44C1719.81 1089.44 1719.48 1089.42 1719.15 1089.4C1712.51 1088.86 1707.56 1083.05 1708.09 1076.41C1711.15 1038.19 1708.16 996.645 1698.94 949.416C1698.11 945.718 1697.21 942.106 1696.34 938.612C1692.89 924.792 1689.64 911.739 1692.9 899.709C1697.83 881.492 1714.92 874.273 1727.78 870.468C1880.22 798.738 1970.93 714.456 2013.21 605.276L2013.53 604.532C2035.42 557.625 2025 508.509 2004.97 480.641C1991.83 462.353 1975 452.91 1958.8 454.735C1937.49 457.135 1917.2 478.711 1901.67 515.498C1899.63 520.529 1894.69 523.8 1889.21 523.645C1883.79 523.503 1879.03 520.075 1877.17 515.047C1874.76 508.849 1873.79 502.466 1872.93 496.827C1871.26 485.881 1870.18 481.528 1865.35 479.226L1865.12 479.113C1861.4 477.24 1858.18 476.946 1854.98 478.189C1849.57 480.292 1844.36 486.753 1841.05 495.473C1837.45 504.935 1835.3 530.564 1841.78 557.918L1842.87 562.513L1840.55 566.626C1817.23 607.952 1787.44 639.412 1743.85 679.787L1743.22 680.376L1742.5 680.868C1736.09 685.29 1729.73 689.839 1722.99 694.656C1687.78 719.833 1651.36 745.868 1609.63 752.631C1603.06 753.696 1596.86 749.23 1595.79 742.653C1594.73 736.076 1599.19 729.88 1605.77 728.814C1641.92 722.955 1676 698.59 1708.96 675.028C1715.25 670.535 1721.74 665.894 1728.09 661.502C1768.13 624.372 1795.89 595.242 1817.25 558.743C1811.21 529.568 1813.17 500.907 1818.49 486.9C1824.37 471.45 1834.22 460.369 1846.25 455.698C1855.82 451.979 1866.06 452.604 1875.86 457.505C1886.01 462.389 1890.89 470.196 1893.56 478.189C1914.94 443.084 1938.59 432.73 1956.1 430.758C1981.23 427.93 2006.18 440.978 2024.57 466.56C2037.91 485.119 2046.64 509.057 2049.16 533.963C2051.93 561.401 2047.23 589.193 2035.57 614.363C2011.49 676.363 1973.52 729.819 1919.51 777.766C1872.29 819.676 1812.66 857.274 1737.19 892.709L1736.32 893.117L1735.4 893.382C1718.27 898.313 1716.76 903.911 1716.19 906.019C1714.57 911.993 1716.97 921.625 1719.75 932.778C1720.67 936.465 1721.62 940.277 1722.53 944.323L1722.59 944.635C1732.26 994.117 1735.39 1037.85 1732.14 1078.34C1731.64 1084.65 1726.36 1089.44 1720.13 1089.44Z" fill="#371A45"/>
<path d="M1553.48 957.407C1533.56 997.275 1511.62 1040.99 1491.71 1080.82C1491.7 1080.82 1437.19 1079.32 1437.17 1079.32C1437.47 1079.2 1437.72 1079.08 1438.02 1078.92C1359.56 1075.91 1283.88 1070.68 1206.75 1062.12C1218.77 1034.7 1233.09 1001.65 1245.07 974.203C1347.01 968.628 1451.63 962.992 1553.48 957.407Z" fill="white"/>
<path d="M1200.46 1073.47C1194.3 1073.47 1189.04 1068.77 1188.46 1062.51C1180.81 979.554 1192.72 877.784 1219.65 792.809L1219.6 792.808L1220.86 789.04C1222.02 785.448 1223.21 781.889 1224.43 778.362L1224.78 777.299C1228.12 767.312 1231.79 757.223 1235.69 747.284L1236.27 745.774C1241.46 732.499 1247.25 718.935 1253.49 705.457C1256.29 699.411 1263.46 696.778 1269.51 699.577C1275.55 702.376 1278.19 709.547 1275.39 715.593C1269.66 727.961 1264.33 740.395 1259.51 752.587V752.599L1258.72 754.641C1255.3 763.31 1252.05 772.107 1249.05 780.849L1250.4 784.361L1246.66 787.896C1218.26 871.059 1204.86 977.61 1212.48 1060.29C1213.1 1066.93 1208.21 1072.8 1201.58 1073.41C1201.2 1073.45 1200.83 1073.47 1200.46 1073.47Z" fill="#371A45"/>
<g opacity="0.35">
<path d="M1222.37 825.381C1296.92 868.07 1367.9 882.676 1475.61 862.566C1585.88 834.043 1646.23 789.498 1695.74 712.633C1664.59 727.351 1637.35 734.708 1621.71 738.141C1535.56 714.344 1340.72 671.389 1340.72 671.389C1288.94 664.613 1246.61 734.445 1222.37 825.381Z" fill="#371A45"/>
</g>
<path d="M1199.94 892.474C1177.56 906.836 1174.69 970.027 1189.29 981.315C1189.28 981.315 1232.04 1022.18 1336.84 1004.99C1336.84 1004.99 1359.11 952.45 1329.73 920.467C1329.73 920.467 1248.36 938.872 1199.94 892.474Z" fill="white"/>
<g opacity="0.35">
<path d="M1189.27 981.314C1189.27 981.314 1232.05 1022.17 1336.85 1005.01C1336.85 1005.01 1341.38 994.319 1343.67 979.642C1218.05 991.728 1180.8 961.97 1191.47 902.699C1172.91 923.191 1181.54 979.928 1189.27 981.314Z" fill="#371A45"/>
</g>
<path d="M1287.97 1019.17C1258.11 1019.17 1235.75 1014.22 1220.56 1009.08C1199.75 1002.02 1187.72 993.262 1183.18 989.209L1183.17 989.226C1170.25 979.236 1169.94 953.524 1170.4 942.934C1171.35 921.351 1178.19 894.552 1194.54 884.059L1201.17 879.804L1206.86 885.255C1250.74 927.298 1326.77 910.882 1327.53 910.713L1333.17 909.451L1337.09 913.703C1370.45 950.01 1347.06 1006.51 1346.04 1008.9L1343.89 1013.97L1338.46 1014.86C1319.73 1017.93 1302.91 1019.17 1287.97 1019.17ZM1200.63 977.446C1205.58 980.825 1214.72 986.135 1228.48 990.634C1248.15 997.062 1281.39 1003.05 1329.45 996.023C1333.38 983.964 1341.11 952.978 1325.74 931.399C1306.04 934.682 1244.39 941.329 1200.33 906.094C1195.01 913.93 1191.16 927.853 1190.41 943.277C1189.54 961.094 1193.23 971.692 1195.41 973.405L1200.63 977.446Z" fill="#371A45"/>
<path d="M1922.67 764.683C1922.19 764.683 1921.7 764.637 1921.21 764.541C1885.34 757.495 1851.07 730.82 1819.35 685.258C1796.12 651.884 1783.27 620.965 1782.73 619.665C1781.15 615.835 1782.98 611.451 1786.81 609.873C1790.64 608.296 1795.02 610.119 1796.6 613.947C1797.1 615.153 1847.3 734.738 1924.11 749.823C1928.17 750.621 1930.82 754.563 1930.02 758.628C1929.32 762.203 1926.18 764.683 1922.67 764.683Z" fill="#371A45"/>
<path d="M1740.41 563.641C1731.37 563.641 1723.38 557.079 1721.88 547.874L1690.79 356.849C1689.12 346.627 1696.09 336.956 1706.31 335.292C1728.08 331.749 1749.92 336.895 1767.81 349.78C1785.66 362.634 1797.45 381.656 1801.03 403.354C1801.6 406.374 1802.19 409.44 1802.79 412.541C1808.24 440.72 1814.42 472.659 1809.44 500.233C1803.29 534.233 1781.27 555.45 1743.98 563.295L1743.44 563.397C1742.42 563.561 1741.41 563.641 1740.41 563.641ZM1715.5 358.485L1744.77 538.311C1768.89 531.84 1781.6 518.591 1785.69 495.942C1789.87 472.809 1784.15 443.224 1779.1 417.123C1778.49 413.937 1777.88 410.788 1777.29 407.687L1777.24 407.387C1774.73 391.984 1766.38 378.479 1753.71 369.36C1742.5 361.29 1729.11 357.509 1715.5 358.485Z" fill="white"/>
<path d="M1077.72 449.828C1081.38 449.232 1084.83 451.718 1085.43 455.38L1116.52 646.405C1117.12 650.068 1114.63 653.52 1110.97 654.116C1072.54 660.37 1036.32 634.291 1030.07 595.866C1019.36 539.109 1000.61 466.048 1077.72 449.828Z" fill="black"/>
<path d="M1099.49 657.939C1084.23 657.939 1069.39 653.183 1056.77 644.091C1040.86 632.638 1030.37 615.676 1027.22 596.331C1026.65 593.324 1026.04 590.197 1025.43 587.033C1014.74 531.739 1001.42 462.924 1077.12 447L1077.25 446.976C1082.48 446.123 1087.43 449.687 1088.28 454.916L1119.37 645.941C1119.79 648.474 1119.19 651.017 1117.69 653.1C1116.19 655.183 1113.97 656.557 1111.43 656.969C1107.44 657.618 1103.45 657.939 1099.49 657.939ZM1078.24 452.671C1008.19 467.455 1020.37 530.399 1031.11 585.935C1031.72 589.107 1032.33 592.242 1032.91 595.33C1035.82 613.224 1045.49 628.85 1060.15 639.401C1074.8 649.952 1092.69 654.165 1110.5 651.264C1111.51 651.1 1112.4 650.552 1113 649.722C1113.59 648.892 1113.83 647.879 1113.67 646.869L1082.58 455.844C1082.24 453.779 1080.3 452.365 1078.24 452.671Z" fill="white"/>
<g opacity="0.35">
<path d="M1107.91 593.408L1116.53 646.403C1117.13 650.064 1114.63 653.518 1110.97 654.118C1058.55 663.259 1026.5 615.774 1025.61 568.429C1040.72 592.419 1082.24 611.353 1107.91 593.408Z" fill="white"/>
</g>
<path d="M1099.47 667.115C1082.3 667.115 1065.61 661.764 1051.41 651.536C1033.55 638.682 1021.76 619.66 1018.19 597.962C1017.62 594.942 1017.03 591.877 1016.43 588.775C1010.98 560.596 1004.8 528.657 1009.78 501.083C1015.92 467.083 1037.94 445.866 1075.23 438.021L1075.78 437.919C1086 436.252 1095.67 443.218 1097.34 453.441L1128.43 644.466C1129.23 649.418 1128.06 654.388 1125.13 658.459C1122.2 662.531 1117.86 665.217 1112.91 666.023C1108.42 666.754 1103.93 667.115 1099.47 667.115ZM1074.45 463.004C1050.32 469.475 1037.61 482.725 1033.52 505.374C1029.34 528.507 1035.07 558.092 1040.11 584.193C1040.73 587.379 1041.34 590.528 1041.93 593.629L1041.98 593.929C1044.49 609.332 1052.84 622.837 1065.51 631.956C1076.71 640.026 1090.11 643.805 1103.72 642.831L1074.45 463.004Z" fill="white"/>
<path d="M1738.11 470.89C1769.86 903.319 1127.61 961.443 1081.19 530.398C1049.44 97.9826 1691.68 39.8587 1738.11 470.89Z" fill="black"/>
<path d="M1405.6 828.852C1375.54 828.852 1345.89 825.161 1317.1 817.812C1276.16 807.364 1238.84 789.962 1206.18 766.09C1133.38 712.894 1089.17 631.5 1078.31 530.708C1070.88 429.498 1099.76 341.479 1161.81 276.072C1189.66 246.719 1223.25 222.896 1261.65 205.266C1298.67 188.265 1338.52 177.737 1380.08 173.974C1421.64 170.211 1462.72 173.412 1502.2 183.486C1543.13 193.933 1580.45 211.334 1613.12 235.206C1685.91 288.4 1730.13 369.792 1740.98 470.58L1740.99 470.678C1748.41 571.794 1719.54 659.815 1657.48 725.225C1629.63 754.579 1596.05 778.402 1557.65 796.033C1520.63 813.034 1480.78 823.563 1439.22 827.325C1427.97 828.344 1416.76 828.852 1405.6 828.852ZM1413 178.269C1402.12 178.269 1391.31 178.759 1380.6 179.73C1226.41 193.689 1067.85 309.313 1084.07 530.187C1107.77 750.269 1284.51 835.528 1438.7 821.569C1592.87 807.611 1751.42 692.005 1735.23 471.15C1713.15 266.313 1558.58 178.269 1413 178.269Z" fill="white"/>
<g opacity="0.35">
<path d="M1730.84 425.708C1824.47 890.634 1114.78 987.584 1080.13 514.803C1165.9 897.325 1750.47 819.075 1730.84 425.708Z" fill="white"/>
</g>
<path d="M1405.6 838.027C1374.77 838.027 1344.36 834.24 1314.83 826.702C1272.76 815.964 1234.38 798.063 1200.76 773.497C1125.83 718.735 1080.33 635.12 1069.19 531.69L1069.16 531.281C1061.54 427.522 1091.28 337.089 1155.16 269.756C1183.82 239.551 1218.36 215.048 1257.82 196.927C1295.79 179.489 1336.65 168.692 1379.25 164.835C1421.85 160.978 1463.98 164.262 1504.47 174.595C1546.54 185.333 1584.92 203.232 1618.53 227.798C1693.47 282.558 1738.96 366.171 1750.1 469.597L1750.14 470.006C1757.76 573.768 1728.02 664.204 1664.14 731.539C1635.48 761.745 1600.94 786.249 1561.48 804.37C1523.51 821.808 1482.65 832.605 1440.05 836.462C1428.52 837.506 1417.03 838.027 1405.6 838.027ZM1093.2 529.311C1116.34 743.184 1288.06 825.994 1437.87 812.432C1587.68 798.869 1741.75 686.551 1726.09 471.978C1702.96 258.112 1531.23 175.304 1381.42 188.866C1231.61 202.43 1077.55 314.745 1093.2 529.311Z" fill="white"/>
<path d="M1737.82 479.422C1783.59 775.177 1340.19 875.453 1160.73 715.511C815.312 289.504 1687.56 78.9278 1737.82 479.422Z" fill="#371A45"/>
<g opacity="0.5">
<path d="M1567.63 593.144C1559.89 627.047 1605.66 636.918 1612.57 602.835C1620.31 568.934 1574.55 559.063 1567.63 593.144Z" fill="#9B8CA2"/>
</g>
<g opacity="0.5">
<path d="M1169.85 651.715C1080.09 447.986 1215.38 337.496 1393.75 332.257C1270.71 371.592 1184.15 499.591 1169.85 651.715Z" fill="#9B8CA2"/>
</g>
<path d="M1282.98 1055.62L1456.86 1070.79C1477.44 1072.59 1495.76 1057.22 1497.56 1036.61L1505.63 944.086C1507.2 926.047 1495.6 909.77 1478.86 904.794C1476.5 904.072 1474.01 903.611 1471.45 903.382L1297.6 888.218C1277 886.416 1258.67 901.788 1256.9 922.394L1250.49 995.677L1248.81 1014.92C1247 1035.52 1262.4 1053.82 1282.98 1055.62Z" fill="white"/>
<g opacity="0.35">
<path d="M1282.98 1055.62L1456.86 1070.79C1477.43 1072.59 1495.76 1057.22 1497.56 1036.61L1505.62 944.086C1507.2 926.047 1495.6 909.77 1478.86 904.794C1468.42 910.49 1461.78 914.138 1461.78 914.138C1446.84 987.671 1422.46 1022.86 1330.1 1016.32C1290.23 1013.49 1265.63 1005.23 1250.49 995.677L1248.8 1014.92C1247 1035.52 1262.4 1053.82 1282.98 1055.62Z" fill="#371A45"/>
</g>
<path d="M1460.16 1080.94C1458.77 1080.94 1457.38 1080.88 1455.98 1080.76L1282.11 1065.59C1255.98 1063.31 1236.57 1040.19 1238.85 1014.05L1246.92 921.513C1248.02 908.893 1254 897.432 1263.76 889.241C1273.52 881.05 1285.84 877.146 1298.46 878.246L1472.32 893.414C1498.46 895.695 1517.87 918.814 1515.59 944.952L1507.51 1037.49C1506.41 1050.11 1500.43 1061.57 1490.68 1069.76C1482 1077.05 1471.3 1080.94 1460.16 1080.94ZM1294.3 898.065C1280.17 898.065 1268.1 908.911 1266.84 923.252L1258.77 1015.79C1257.45 1030.94 1268.7 1044.35 1283.85 1045.67L1457.71 1060.83C1465.01 1061.48 1472.15 1059.2 1477.82 1054.45C1483.48 1049.69 1486.95 1043.05 1487.59 1035.75L1495.66 943.214C1496.98 928.063 1485.73 914.661 1470.58 913.339L1296.72 898.171C1295.91 898.1 1295.1 898.065 1294.3 898.065Z" fill="#371A45"/>
<path d="M1276.06 1054.33C1278.27 1055 1280.57 1055.43 1282.98 1055.62L1456.86 1070.79C1471.94 1072.1 1485.8 1064.21 1492.84 1051.76C1495.4 1047.23 1497.07 1042.11 1497.53 1036.61L1501.14 995.507L1502.32 981.945L1505.63 944.086C1507.43 923.481 1492.03 905.183 1471.45 903.382L1433.88 900.114C1450.91 904.888 1462.77 921.304 1461.19 939.527L1456.84 989.509L1453.12 1032.08C1451.32 1052.66 1433 1068.06 1412.42 1066.26L1276.06 1054.33Z" fill="white"/>
<g opacity="0.35">
<path d="M1276.06 1054.33C1278.27 1055 1280.57 1055.43 1282.98 1055.62L1456.86 1070.79C1477.44 1072.59 1495.76 1057.22 1497.53 1036.61L1502.32 981.945C1497.11 991.223 1488.22 1002.39 1475.54 1002.54C1468.58 1002.64 1462.22 997.084 1456.84 989.508L1453.12 1032.08C1451.32 1052.66 1433 1068.06 1412.42 1066.26L1276.06 1054.33Z" fill="#371A45"/>
</g>
<path d="M1460.18 1080.94C1458.79 1080.94 1457.39 1080.88 1455.98 1080.76L1282.11 1065.58C1279.15 1065.34 1276.15 1064.79 1273.24 1063.94L1276.92 1044.38L1413.29 1056.29C1420.59 1056.93 1427.72 1054.66 1433.38 1049.9C1439.05 1045.14 1442.52 1038.51 1443.15 1031.21L1451.22 938.667C1452.37 925.486 1443.95 913.315 1431.18 909.728L1434.76 890.139L1472.31 893.408C1484.94 894.517 1496.4 900.498 1504.59 910.252C1512.78 920.011 1516.69 932.337 1515.58 944.958L1507.51 1037.49C1506.41 1050.11 1500.43 1061.57 1490.67 1069.77C1482 1077.05 1471.31 1080.94 1460.18 1080.94ZM1451.33 1060.27L1457.73 1060.83C1465.02 1061.47 1472.15 1059.21 1477.81 1054.45C1483.48 1049.69 1486.95 1043.05 1487.58 1035.76V1035.75L1495.65 943.214C1496.29 935.914 1494.03 928.777 1489.27 923.112C1484.51 917.446 1477.87 913.973 1470.57 913.332L1465.14 912.86C1469.76 921.002 1472.01 930.54 1471.14 940.406L1463.07 1032.94C1462.19 1043.19 1458.08 1052.68 1451.33 1060.27Z" fill="#371A45"/>
<path d="M1388.53 980.574C1388.25 983.997 1390.81 1012.02 1390.81 1012.02C1390.81 1012.02 1399.57 1012.74 1410.32 1013.61C1423.75 1014.71 1435.77 1001.69 1437.16 984.536C1438.56 967.383 1428.81 952.59 1415.37 951.496C1406.31 950.758 1395.87 949.907 1395.87 949.907C1395.87 949.907 1388.98 974.997 1388.53 980.574Z" fill="#22A7F0"/>
<g opacity="0.35">
<path d="M1388.53 980.574C1388.25 983.997 1390.81 1012.02 1390.81 1012.02C1390.81 1012.02 1399.57 1012.74 1410.32 1013.61C1423.75 1014.71 1435.77 1001.69 1437.16 984.536C1438.56 967.383 1428.81 952.59 1415.37 951.496C1406.31 950.758 1395.87 949.907 1395.87 949.907C1395.87 949.907 1388.98 974.997 1388.53 980.574Z" fill="#371A45"/>
</g>
<path d="M1411.87 1018.68C1411.22 1018.68 1410.57 1018.65 1409.91 1018.6L1390.41 1017.01C1387.98 1016.81 1386.05 1014.9 1385.83 1012.48C1385.22 1005.8 1383.25 983.745 1383.55 980.168C1384.02 974.294 1390.33 951.197 1391.05 948.583C1391.69 946.266 1393.88 944.724 1396.28 944.923L1415.78 946.512C1423.84 947.168 1431.03 951.689 1436.01 959.24C1440.73 966.409 1442.91 975.536 1442.15 984.941C1440.6 1004.01 1427.22 1018.68 1411.87 1018.68ZM1395.42 1007.38L1410.72 1008.63C1421.38 1009.5 1431.01 998.508 1432.18 984.13C1432.77 976.942 1431.16 970.058 1427.66 964.746C1424.41 959.817 1419.9 956.881 1414.97 956.479L1399.61 955.228C1397.05 964.798 1393.78 977.717 1393.51 980.971C1393.4 982.88 1394.34 995.212 1395.42 1007.38Z" fill="#371A45"/>
<path d="M1417.69 982.979C1419.09 965.825 1409.33 951.033 1395.9 949.938C1382.47 948.844 1370.45 961.863 1369.06 979.017C1367.66 996.17 1377.41 1010.96 1390.84 1012.06C1404.27 1013.15 1416.29 1000.13 1417.69 982.979Z" fill="#22A7F0"/>
<path d="M1372.42 983.104C1373.68 970.59 1383.38 960.985 1393.87 959.224C1406.26 957.147 1416.25 966.933 1420.16 982.107C1420.52 978.774 1420.43 975.246 1419.81 971.673C1416.95 954.705 1402.16 946.996 1388.87 949.224C1375.58 951.477 1368.84 962.802 1371.7 979.796C1371.9 980.908 1372.12 982.015 1372.42 983.104Z" fill="white"/>
<g opacity="0.35">
<path d="M1390.82 1012.04C1404.26 1013.12 1416.27 1000.09 1417.66 982.938C1417.97 979.22 1417.73 975.618 1417.06 972.24C1412.67 983.851 1403.04 991.615 1392.54 990.774C1382.04 989.907 1373.79 980.704 1371.37 968.512C1370.13 971.732 1369.35 975.28 1369.03 978.998C1367.64 996.15 1377.39 1010.93 1390.82 1012.04Z" fill="#371A45"/>
</g>
<path d="M1392.42 1017.09C1391.75 1017.09 1391.08 1017.06 1390.41 1017.01C1382.34 1016.35 1375.16 1011.83 1370.18 1004.28C1365.46 997.111 1363.27 987.983 1364.04 978.579C1365.66 958.705 1380.12 943.606 1396.28 944.923C1404.34 945.579 1411.52 950.1 1416.5 957.651C1421.23 964.82 1423.41 973.947 1422.64 983.352C1421.88 992.757 1418.25 1001.41 1412.42 1007.72C1406.8 1013.81 1399.76 1017.09 1392.42 1017.09ZM1374.01 979.391C1373.42 986.579 1375.03 993.463 1378.53 998.775C1381.78 1003.7 1386.29 1006.64 1391.22 1007.04C1396.15 1007.44 1401.07 1005.28 1405.07 1000.94C1409.39 996.263 1412.09 989.73 1412.68 982.542C1413.26 975.354 1411.65 968.47 1408.15 963.158C1404.9 958.229 1400.4 955.293 1395.47 954.891C1384.8 954.021 1375.18 965.014 1374.01 979.391Z" fill="#371A45"/>
<path d="M1337.1 1067.17C1336.94 1067.17 1336.78 1067.17 1336.62 1067.15C1332.48 1066.89 1329.34 1063.33 1329.61 1059.19L1332.58 1012.29C1333.11 1003.91 1329.44 995.882 1322.74 990.811C1311.76 982.496 1305.9 969.339 1307.05 955.617L1312.57 889.604C1312.92 885.477 1316.54 882.408 1320.67 882.756C1324.8 883.102 1327.87 886.728 1327.52 890.856L1321.99 956.869C1321.28 965.441 1324.94 973.66 1331.8 978.854C1342.52 986.972 1348.4 999.828 1347.55 1013.24L1344.58 1060.14C1344.32 1064.12 1341.02 1067.17 1337.1 1067.17Z" fill="#371A45"/>
<path d="M1563.99 1097.62C1549.6 1097.62 1535.11 1097.53 1520.55 1097.34L1520.36 1097.34C1511.07 1097.21 1501.48 1097.07 1491.92 1096.85L1491.44 1096.83C1484.08 1096.67 1476.59 1096.51 1469.06 1096.3L1467.68 1096.26C1457.6 1095.98 1447.43 1095.66 1437.43 1095.3C1400.07 1093.89 1363.49 1091.94 1328.68 1089.49C1306.72 1087.97 1284.83 1086.22 1263.62 1084.3C1258.03 1083.82 1252.47 1083.3 1247.08 1082.8L1246.97 1082.79L1246.26 1082.72C1243.25 1082.4 1240.28 1082.11 1237.3 1081.83L1237.18 1081.82C1227.36 1080.85 1217.06 1079.77 1205.64 1078.5C1205.2 1078.46 1204.77 1078.41 1204.34 1078.34L1204.19 1078.33C1203.56 1078.26 1202.79 1078.18 1201.93 1078.06C1200.9 1077.96 1199.78 1077.84 1198.64 1077.69C1197.19 1077.55 1195.8 1077.39 1194.57 1077.23C1169.74 1074.4 1145.43 1071.28 1122.3 1067.95C1089.26 1063.25 1057.14 1057.97 1026.86 1052.25C937.846 1035.44 862.32 1014.39 808.443 991.386C747.744 965.467 714.246 937.846 706.033 906.946L705.755 905.898L705.619 904.822C704.944 899.457 704.537 893.857 704.41 888.177C704.211 879.295 711.249 871.934 720.131 871.735C729.013 871.529 736.374 878.574 736.573 887.456C736.666 891.621 736.944 895.711 737.397 899.633C741.017 911.433 756.911 934.401 821.077 961.8C872.847 983.906 946.069 1004.25 1032.83 1020.64C1062.63 1026.27 1094.27 1031.47 1126.86 1036.1C1149.73 1039.39 1173.76 1042.48 1198.3 1045.28L1198.42 1045.3C1199.58 1045.44 1200.75 1045.58 1201.91 1045.69L1202.68 1045.77C1203.49 1045.89 1204.47 1045.98 1205.5 1046.09L1206.43 1046.21C1206.77 1046.26 1207.11 1046.29 1207.44 1046.32C1207.82 1046.36 1208.19 1046.4 1208.58 1046.44L1210.47 1046.67C1221.24 1047.86 1231.01 1048.89 1240.28 1049.8L1240.36 1049.81C1243.36 1050.09 1246.37 1050.38 1249.41 1050.71L1249.53 1050.72C1255.03 1051.23 1260.72 1051.77 1266.45 1052.26C1287.5 1054.16 1309.17 1055.89 1330.92 1057.4C1365.4 1059.82 1401.63 1061.76 1438.62 1063.15C1448.49 1063.51 1458.58 1063.83 1468.57 1064.11L1469.95 1064.14C1477.41 1064.35 1484.84 1064.51 1492.23 1064.67L1492.77 1064.69C1502.15 1064.91 1511.64 1065.04 1520.82 1065.18L1520.99 1065.18C1559.48 1065.66 1597.58 1065.5 1634.2 1064.69C1658.06 1064.15 1681.82 1063.34 1704.8 1062.29C1709.7 1062.09 1714.58 1061.84 1719.31 1061.61L1720.67 1061.52C1738.68 1060.57 1753.14 1059.72 1766.16 1058.84C1767.78 1058.72 1769.39 1058.61 1771.01 1058.5C1772.58 1058.39 1774.15 1058.28 1775.73 1058.16C1898.69 1049.35 2004.9 1032.95 2082.97 1010.72C2184.16 981.913 2205.85 952.574 2210.43 940.327C2211.09 936.301 2211.59 932.218 2211.9 928.17C2212.59 919.313 2220.32 912.694 2229.18 913.378C2238.04 914.066 2244.66 921.804 2243.98 930.661C2243.55 936.135 2242.86 941.66 2241.92 947.084L2241.72 948.221L2241.36 949.318C2235.06 968.647 2217.92 986.571 2190.41 1002.59C2165.93 1016.86 2132.75 1030 2091.78 1041.66C2011.62 1064.48 1903.15 1081.28 1778.1 1090.24C1776.52 1090.36 1774.88 1090.48 1773.24 1090.59C1771.67 1090.7 1770.09 1090.81 1768.52 1090.93L1768.37 1090.94C1755.2 1091.82 1740.61 1092.68 1722.45 1093.65L1720.47 1093.77L1720.32 1093.77C1715.71 1094 1710.95 1094.23 1706.19 1094.43C1683.05 1095.49 1659.04 1096.31 1634.91 1096.86C1611.77 1097.36 1588.03 1097.62 1563.99 1097.62Z" fill="#371A45"/>
<path d="M1710.36 932.368C1764.6 1014.01 1661.79 1056.64 1486.48 1023.64C1486.48 1023.64 1456.77 976.228 1504.19 950.491C1504.19 950.491 1632.46 993.37 1710.36 932.368Z" fill="white"/>
<g opacity="0.35">
<path d="M1486.48 1023.63C1651.54 1050.78 1708.26 1025.22 1723.27 980.414C1717.46 987.145 1712.06 990.117 1712.06 990.117C1712.06 990.117 1649.44 1026.37 1522.37 1004.77C1501.53 1001.31 1486.35 981.624 1490.07 960.783C1463.6 987.123 1486.48 1023.63 1486.48 1023.63Z" fill="#371A45"/>
</g>
<path d="M1595.23 1044.84C1565.56 1044.84 1532.16 1041.77 1496.01 1035.52C1484.69 1033.57 1475.32 1025.71 1471.55 1015.03C1462.17 988.444 1468.13 964.984 1488.33 948.967C1495.95 942.923 1506.26 940.887 1515.89 943.522C1540.35 950.207 1624.94 969.417 1686.78 935.889C1695.27 931.285 1705.25 930.742 1714.15 934.396C1722.76 937.928 1729.23 945.013 1731.91 953.834C1738.17 974.42 1734.47 993.231 1721.23 1008.23C1699.97 1032.3 1655.23 1044.84 1595.23 1044.84ZM1507.45 962.387C1504.99 962.387 1502.62 963.163 1500.76 964.639C1487.39 975.237 1483.91 989.951 1490.41 1008.37C1491.77 1012.24 1495.22 1015.09 1499.41 1015.82C1550.93 1024.72 1597.76 1027.09 1634.83 1022.68C1669.16 1018.59 1693.85 1009.01 1706.24 994.993C1714.89 985.195 1717.03 973.634 1712.78 959.65C1711.51 955.476 1708.34 953.629 1706.56 952.9C1703.24 951.535 1699.5 951.744 1696.31 953.472C1667 969.367 1630.62 976.576 1588.2 974.897C1554.23 973.553 1525.01 966.75 1510.62 962.814C1509.57 962.527 1508.5 962.387 1507.45 962.387Z" fill="#371A45"/>
<g opacity="0.35">
<path d="M1090.1 1461.31C1166.03 1385.38 1166.03 1262.28 1090.1 1186.36C1014.18 1110.43 891.076 1110.43 815.15 1186.36C739.224 1262.28 739.224 1385.38 815.15 1461.31C891.076 1537.24 1014.18 1537.24 1090.1 1461.31Z" fill="#371A45"/>
</g>
<path d="M943.72 1475.96C1040.28 1475.96 1118.55 1397.68 1118.55 1301.12C1118.55 1204.57 1040.28 1126.29 943.72 1126.29C847.161 1126.29 768.885 1204.57 768.885 1301.12C768.885 1397.68 847.161 1475.96 943.72 1475.96Z" fill="black"/>
<g opacity="0.3">
<path d="M786.331 1293.15C803.486 1198.13 894.423 1135 989.446 1152.16C1034.62 1160.31 1072.55 1185.16 1098.11 1219.18C1073.83 1173.5 1029.64 1138.97 974.78 1129.07C879.758 1111.92 788.819 1175.04 771.665 1270.06C762.666 1319.91 775.788 1368.62 803.993 1406.16C786.214 1372.72 779.081 1333.31 786.331 1293.15Z" fill="white"/>
</g>
<g opacity="0.35">
<path d="M912.673 1473.17C1007.67 1490.31 1098.63 1427.23 1115.78 1332.2C1121.17 1302.31 1118.61 1272.83 1109.62 1245.92C1110.21 1258.83 1109.39 1271.98 1107 1285.25C1089.85 1380.28 998.917 1443.41 903.885 1426.26C838.736 1414.49 788.583 1368 769.062 1309.35C772.717 1388.97 830.88 1458.39 912.673 1473.17Z" fill="#371A45"/>
</g>
<path d="M944.116 1488.51C932.934 1488.51 921.675 1487.51 910.437 1485.48C861.194 1476.59 818.36 1449.06 789.827 1407.95C761.293 1366.84 750.475 1317.08 759.365 1267.84C768.255 1218.6 795.789 1175.77 836.896 1147.23C878.001 1118.7 927.76 1107.88 977.002 1116.77C1026.24 1125.66 1069.08 1153.19 1097.61 1194.3C1126.15 1235.41 1136.96 1285.16 1128.07 1334.41C1119.18 1383.65 1091.65 1426.48 1050.54 1455.02C1018.82 1477.04 981.934 1488.51 944.116 1488.51ZM943.376 1138.75C910.602 1138.75 878.645 1148.68 851.151 1167.77C815.53 1192.49 791.671 1229.61 783.967 1272.28C776.263 1314.96 785.638 1358.07 810.364 1393.69C835.09 1429.31 872.207 1453.17 914.879 1460.88C957.55 1468.58 1000.67 1459.21 1036.29 1434.48C1071.91 1409.75 1095.77 1372.64 1103.47 1329.96C1111.18 1287.29 1101.8 1244.18 1077.07 1208.55C1052.35 1172.93 1015.23 1149.07 972.56 1141.37C962.825 1139.61 953.063 1138.75 943.376 1138.75Z" fill="#371A45"/>
<path d="M1020.67 1377.35C1064.1 1333.91 1064.1 1263.49 1020.67 1220.05C977.23 1176.62 906.806 1176.62 863.369 1220.05C819.933 1263.49 819.933 1333.91 863.369 1377.35C906.806 1420.79 977.23 1420.79 1020.67 1377.35Z" fill="#22A7F0"/>
<g opacity="0.3">
<path d="M922.287 1408.18C982.745 1419.1 1040.58 1378.93 1051.5 1318.47C1053.87 1305.38 1053.84 1292.39 1051.7 1280C1051.53 1281.22 1051.32 1282.43 1051.11 1283.68C1040.19 1344.14 982.356 1384.31 921.898 1373.4C874.526 1364.86 839.632 1327.5 831.987 1282.66C823.315 1341.75 863.078 1397.48 922.287 1408.18Z" fill="white"/>
</g>
<g opacity="0.35">
<path d="M832.923 1326.41C833.191 1324.52 833.458 1322.63 833.807 1320.73C844.721 1260.27 902.559 1220.1 963.017 1231.02C1008.52 1239.22 1042.54 1274.04 1051.89 1316.53C1059.37 1258.16 1019.84 1203.56 961.291 1193C900.869 1182.09 843.005 1222.22 832.09 1282.67C829.412 1297.64 829.806 1312.45 832.923 1326.41Z" fill="#371A45"/>
</g>
<path d="M942.305 1422.47C934.919 1422.47 927.483 1421.81 920.061 1420.47C852.923 1408.35 808.163 1343.86 820.284 1276.73C826.156 1244.2 844.341 1215.91 871.49 1197.07C898.639 1178.22 931.502 1171.08 964.025 1176.95C996.548 1182.82 1024.84 1201.01 1043.68 1228.15C1062.53 1255.3 1069.67 1288.17 1063.8 1320.69C1057.93 1353.21 1039.75 1381.5 1012.6 1400.35C991.643 1414.89 967.282 1422.47 942.305 1422.47ZM924.503 1395.86C950.455 1400.55 976.677 1394.85 998.34 1379.81C1020 1364.77 1034.51 1342.2 1039.2 1316.25C1043.88 1290.3 1038.18 1264.07 1023.14 1242.41C1008.11 1220.75 985.534 1206.24 959.582 1201.55C933.63 1196.87 907.408 1202.57 885.745 1217.6C864.082 1232.64 849.571 1255.22 844.886 1281.17C835.215 1334.74 870.931 1386.19 924.503 1395.86Z" fill="#371A45"/>
<g opacity="0.35">
<path d="M1956.6 1518.26C2063.98 1518.26 2151.03 1431.22 2151.03 1323.84C2151.03 1216.46 2063.98 1129.42 1956.6 1129.42C1849.23 1129.42 1762.18 1216.46 1762.18 1323.84C1762.18 1431.22 1849.23 1518.26 1956.6 1518.26Z" fill="#371A45"/>
</g>
<path d="M1947.67 1475.96C2044.23 1475.96 2122.51 1397.68 2122.51 1301.12C2122.51 1204.57 2044.23 1126.29 1947.67 1126.29C1851.11 1126.29 1772.84 1204.57 1772.84 1301.12C1772.84 1397.68 1851.11 1475.96 1947.67 1475.96Z" fill="black"/>
<g opacity="0.3">
<path d="M1790.28 1293.15C1807.44 1198.13 1898.37 1135 1993.4 1152.16C2038.57 1160.31 2076.5 1185.16 2102.06 1219.18C2077.78 1173.5 2033.59 1138.97 1978.73 1129.07C1883.71 1111.92 1792.77 1175.04 1775.62 1270.06C1766.62 1319.91 1779.74 1368.62 1807.94 1406.16C1790.16 1372.72 1783.03 1333.31 1790.28 1293.15Z" fill="white"/>
</g>
<g opacity="0.35">
<path d="M1916.62 1473.17C2011.62 1490.31 2102.58 1427.23 2119.73 1332.2C2125.12 1302.31 2122.56 1272.83 2113.57 1245.92C2114.16 1258.83 2113.34 1271.98 2110.95 1285.25C2093.8 1380.28 2002.87 1443.41 1907.83 1426.26C1842.68 1414.49 1792.53 1368 1773.01 1309.35C1776.67 1388.97 1834.83 1458.39 1916.62 1473.17Z" fill="#371A45"/>
</g>
<path d="M1948.07 1488.51C1936.89 1488.51 1925.63 1487.51 1914.39 1485.48C1865.15 1476.59 1822.31 1449.06 1793.78 1407.95C1765.24 1366.84 1754.43 1317.08 1763.32 1267.84C1772.21 1218.6 1799.74 1175.77 1840.85 1147.23C1881.95 1118.7 1931.71 1107.88 1980.95 1116.77C2030.2 1125.66 2073.03 1153.19 2101.56 1194.3C2130.1 1235.41 2140.92 1285.16 2132.03 1334.41C2123.14 1383.65 2095.6 1426.48 2054.49 1455.02C2022.77 1477.04 1985.89 1488.51 1948.07 1488.51ZM1947.33 1138.75C1914.55 1138.75 1882.6 1148.68 1855.1 1167.77C1819.48 1192.49 1795.62 1229.61 1787.92 1272.28C1780.22 1314.96 1789.59 1358.07 1814.32 1393.69C1839.04 1429.31 1876.16 1453.17 1918.83 1460.88C1961.5 1468.58 2004.62 1459.21 2040.24 1434.48C2075.86 1409.75 2099.72 1372.64 2107.42 1329.97C2115.13 1287.29 2105.75 1244.18 2081.03 1208.56C2056.3 1172.94 2019.18 1149.08 1976.51 1141.37C1966.78 1139.61 1957.02 1138.75 1947.33 1138.75Z" fill="#371A45"/>
<path d="M2024.61 1377.36C2068.05 1333.92 2068.05 1263.5 2024.61 1220.06C1981.17 1176.62 1910.75 1176.62 1867.31 1220.06C1823.88 1263.5 1823.88 1333.92 1867.31 1377.36C1910.75 1420.79 1981.17 1420.79 2024.61 1377.36Z" fill="#22A7F0"/>
<g opacity="0.3">
<path d="M1926.24 1408.18C1986.69 1419.1 2044.53 1378.93 2055.45 1318.47C2057.82 1305.38 2057.79 1292.39 2055.65 1280C2055.48 1281.22 2055.27 1282.43 2055.06 1283.68C2044.14 1344.14 1986.31 1384.31 1925.85 1373.4C1878.48 1364.86 1843.58 1327.5 1835.94 1282.66C1827.26 1341.75 1867.03 1397.48 1926.24 1408.18Z" fill="white"/>
</g>
<g opacity="0.35">
<path d="M1836.88 1326.41C1837.14 1324.52 1837.41 1322.63 1837.76 1320.73C1848.67 1260.27 1906.51 1220.1 1966.97 1231.02C2012.47 1239.22 2046.5 1274.04 2055.84 1316.53C2063.32 1258.16 2023.8 1203.56 1965.24 1193C1904.82 1182.09 1846.96 1222.22 1836.04 1282.67C1833.36 1297.64 1833.76 1312.45 1836.88 1326.41Z" fill="#371A45"/>
</g>
<path d="M1946.26 1422.47C1938.87 1422.47 1931.43 1421.81 1924.01 1420.47C1856.87 1408.35 1812.11 1343.86 1824.23 1276.73C1830.11 1244.2 1848.29 1215.91 1875.44 1197.07C1902.59 1178.22 1935.45 1171.08 1967.98 1176.95C2035.11 1189.07 2079.87 1253.55 2067.75 1320.69C2061.88 1353.21 2043.7 1381.5 2016.55 1400.35C1995.59 1414.89 1971.23 1422.47 1946.26 1422.47ZM1928.45 1395.86C1954.41 1400.55 1980.63 1394.85 2002.29 1379.81C2023.95 1364.77 2038.47 1342.2 2043.15 1316.25C2052.82 1262.68 2017.11 1211.22 1963.53 1201.55C1937.59 1196.87 1911.36 1202.57 1889.7 1217.6C1868.03 1232.64 1853.52 1255.22 1848.84 1281.17C1839.17 1334.74 1874.88 1386.19 1928.45 1395.86Z" fill="#371A45"/>
<g opacity="0.35">
<path d="M1592.08 1533.23C1668 1457.3 1668 1334.2 1592.08 1258.28C1516.15 1182.35 1393.05 1182.35 1317.12 1258.28C1241.2 1334.2 1241.2 1457.3 1317.12 1533.23C1393.05 1609.16 1516.15 1609.16 1592.08 1533.23Z" fill="#371A45"/>
</g>
<path d="M1569.29 1496.66C1637.57 1428.39 1637.57 1317.69 1569.29 1249.41C1501.02 1181.13 1390.32 1181.13 1322.04 1249.41C1253.77 1317.69 1253.77 1428.39 1322.04 1496.66C1390.32 1564.94 1501.02 1564.94 1569.29 1496.66Z" fill="black"/>
<g opacity="0.3">
<path d="M1288.31 1365.07C1305.46 1270.04 1396.4 1206.92 1491.42 1224.08C1536.59 1232.23 1574.53 1257.08 1600.09 1291.09C1575.8 1245.42 1531.62 1210.89 1476.76 1200.99C1381.74 1183.83 1290.8 1246.96 1273.64 1341.98C1264.64 1391.83 1277.76 1440.54 1305.97 1478.07C1288.19 1444.64 1281.06 1405.23 1288.31 1365.07Z" fill="white"/>
</g>
<g opacity="0.35">
<path d="M1414.65 1545.09C1509.65 1562.23 1600.61 1499.15 1617.76 1404.12C1623.14 1374.23 1620.59 1344.75 1611.59 1317.84C1612.18 1330.74 1611.36 1343.89 1608.98 1357.17C1591.82 1452.2 1500.89 1515.33 1405.86 1498.17C1340.71 1486.41 1290.56 1439.92 1271.04 1381.26C1274.69 1460.89 1332.86 1530.31 1414.65 1545.09Z" fill="#371A45"/>
</g>
<path d="M1446.09 1560.43C1434.91 1560.43 1423.65 1559.43 1412.41 1557.4C1310.76 1539.04 1242.99 1441.41 1261.34 1339.76C1279.69 1238.11 1377.33 1170.34 1478.98 1188.69C1580.63 1207.04 1648.4 1304.67 1630.05 1406.32C1621.16 1455.57 1593.63 1498.4 1552.52 1526.93C1520.8 1548.96 1483.91 1560.43 1446.09 1560.43ZM1416.86 1532.79C1459.53 1540.5 1502.65 1531.12 1538.27 1506.4C1573.89 1481.67 1597.75 1444.55 1605.45 1401.88C1621.35 1313.79 1562.63 1229.19 1474.54 1213.29C1431.87 1205.59 1388.75 1214.96 1353.13 1239.69C1317.51 1264.41 1293.65 1301.53 1285.94 1344.2C1270.04 1432.29 1328.77 1516.89 1416.86 1532.79Z" fill="#371A45"/>
<path d="M1522.64 1449.27C1566.08 1405.83 1566.08 1335.41 1522.64 1291.97C1479.2 1248.54 1408.78 1248.54 1365.34 1291.97C1321.91 1335.41 1321.91 1405.83 1365.34 1449.27C1408.78 1492.71 1479.2 1492.71 1522.64 1449.27Z" fill="#22A7F0"/>
<g opacity="0.3">
<path d="M1424.26 1480.1C1484.72 1491.01 1542.56 1450.84 1553.47 1390.39C1555.85 1377.3 1555.82 1364.31 1553.67 1351.92C1553.5 1353.14 1553.3 1354.35 1553.08 1355.6C1542.17 1416.06 1484.33 1456.23 1423.87 1445.31C1376.5 1436.77 1341.61 1399.42 1333.96 1354.57C1325.29 1413.66 1365.05 1469.4 1424.26 1480.1Z" fill="white"/>
</g>
<g opacity="0.35">
<path d="M1334.9 1398.33C1335.17 1396.44 1335.43 1394.55 1335.78 1392.65C1346.7 1332.19 1404.54 1292.02 1464.99 1302.94C1510.5 1311.13 1544.52 1345.96 1553.86 1388.44C1561.35 1330.08 1521.82 1275.48 1463.27 1264.92C1402.85 1254.01 1344.98 1294.14 1334.07 1354.59C1331.39 1369.56 1331.78 1384.37 1334.9 1398.33Z" fill="#371A45"/>
</g>
<path d="M1444.08 1494.36C1436.8 1494.36 1429.44 1493.72 1422.04 1492.38C1389.51 1486.51 1361.22 1468.33 1342.38 1441.18C1323.53 1414.03 1316.39 1381.17 1322.26 1348.64C1334.38 1281.5 1398.86 1236.75 1466 1248.87C1498.52 1254.74 1526.81 1272.92 1545.66 1300.07C1564.5 1327.22 1571.65 1360.08 1565.78 1392.61C1554.99 1452.34 1502.75 1494.36 1444.08 1494.36ZM1443.97 1271.89C1397.15 1271.89 1355.47 1305.42 1346.86 1353.08C1342.18 1379.04 1347.88 1405.26 1362.92 1426.92C1377.96 1448.59 1400.53 1463.1 1426.48 1467.78C1480.05 1477.46 1531.51 1441.74 1541.18 1388.17C1545.86 1362.21 1540.16 1335.99 1525.12 1314.33C1510.09 1292.66 1487.51 1278.15 1461.56 1273.47C1455.65 1272.4 1449.77 1271.89 1443.97 1271.89Z" fill="#371A45"/>
<path d="M1606.87 1178.51H1308.92C1273.02 1178.51 1243.92 1207.62 1243.92 1243.51V1537.35C1243.92 1573.25 1273.02 1602.35 1308.92 1602.35H1606.87C1642.76 1602.35 1671.87 1573.25 1671.87 1537.35V1243.51C1671.87 1207.62 1642.76 1178.51 1606.87 1178.51Z" fill="black"/>
<path d="M1455.85 1572.51V1510.23C1449.58 1510.23 1443.17 1509.68 1436.91 1508.73L1427.09 1570.19C1436.63 1571.83 1446.31 1572.51 1455.85 1572.51ZM1484.47 1570.33C1494.01 1568.83 1503.41 1566.65 1512.55 1563.65L1493.33 1504.37C1487.33 1506.27 1481.06 1507.77 1474.79 1508.73L1484.47 1570.33ZM1399.15 1563.65L1418.37 1504.5C1412.37 1502.59 1406.51 1500.14 1400.79 1497.28L1372.44 1552.75C1381.03 1556.97 1390.02 1560.65 1399.15 1563.65ZM1539.12 1552.75C1547.71 1548.39 1555.88 1543.34 1563.65 1537.76L1526.86 1487.47C1521.81 1491.15 1516.36 1494.55 1510.64 1497.28L1539.12 1552.75ZM1347.91 1537.62L1384.71 1487.33C1379.66 1483.65 1374.76 1479.56 1370.26 1475.07L1326.1 1519.08C1332.92 1525.76 1340.28 1532.03 1347.91 1537.62ZM1585.32 1519.36L1585.73 1518.95C1592.55 1512.27 1598.82 1504.91 1604.4 1497.28L1553.98 1460.62C1550.3 1465.66 1546.07 1470.57 1541.71 1474.93L1541.03 1475.61L1562.29 1495.64L1585.32 1519.36ZM1307.43 1497.14L1357.86 1460.48C1354.18 1455.44 1350.77 1449.99 1347.91 1444.4L1292.3 1472.61C1296.67 1481.2 1301.71 1489.37 1307.43 1497.14ZM1619.39 1472.75C1623.76 1464.3 1627.44 1455.3 1630.43 1446.17L1571.01 1427.09C1569.1 1433.09 1566.65 1438.95 1563.79 1444.54L1619.39 1472.75ZM1281.26 1446.17L1340.69 1426.96C1338.78 1420.96 1337.28 1414.83 1336.32 1408.56L1274.59 1418.24C1276.09 1427.64 1278.4 1437.04 1281.26 1446.17ZM1637.11 1418.37C1638.61 1408.97 1639.43 1399.29 1639.43 1389.75H1577.01C1577.01 1396.02 1576.46 1402.43 1575.51 1408.7L1637.11 1418.37ZM1334.83 1389.62C1334.83 1383.35 1335.37 1376.94 1336.32 1370.67L1274.59 1361C1273.09 1370.4 1272.41 1380.08 1272.27 1389.62H1334.83ZM1575.51 1370.81L1637.25 1361.13C1635.75 1351.73 1633.57 1342.33 1630.57 1333.19L1571.15 1352.27C1573.06 1358.41 1574.56 1364.54 1575.51 1370.81ZM1340.69 1352.27C1342.59 1346.28 1345.05 1340.42 1347.91 1334.83L1292.3 1306.62C1287.94 1315.07 1284.26 1324.06 1281.26 1333.19L1340.69 1352.27ZM1563.93 1334.97L1619.67 1306.76C1615.31 1298.17 1610.26 1289.99 1604.54 1282.23L1553.98 1318.89C1557.66 1323.93 1561.06 1329.38 1563.93 1334.97ZM1357.86 1318.75C1361.54 1313.71 1365.76 1308.8 1370.26 1304.3L1370.4 1304.17L1326.24 1260.15L1326.1 1260.28C1319.29 1267.1 1313.02 1274.32 1307.43 1282.09L1357.86 1318.75ZM1541.71 1304.58L1555.07 1291.08L1585.73 1260.56L1585.6 1260.42C1578.78 1253.74 1571.56 1247.47 1563.93 1241.89L1527.13 1292.17C1532.17 1295.85 1537.08 1299.94 1541.44 1304.44L1541.71 1304.58ZM1384.84 1291.9C1389.89 1288.22 1395.34 1284.95 1401.06 1282.09L1372.71 1226.62C1364.13 1230.98 1355.95 1236.03 1348.18 1241.61L1384.84 1291.9ZM1511.05 1282.23L1539.53 1226.76C1530.94 1222.4 1522.09 1218.72 1512.95 1215.72L1493.6 1274.87C1499.46 1276.91 1505.32 1279.36 1511.05 1282.23ZM1418.64 1274.87C1424.64 1272.96 1430.91 1271.46 1437.18 1270.5L1427.5 1209.04C1418.1 1210.54 1408.56 1212.72 1399.43 1215.72L1418.64 1274.87ZM1474.93 1270.5L1484.74 1209.04C1475.34 1207.54 1465.66 1206.72 1456.12 1206.72V1269.01C1462.39 1269.01 1468.8 1269.55 1474.93 1270.5Z" fill="white"/>
<path d="M1455.85 1513.09V1450.53C1450.53 1450.53 1445.35 1449.85 1440.17 1448.49L1423.82 1508.86C1434.31 1511.59 1445.08 1513.09 1455.85 1513.09ZM1487.88 1508.86C1498.37 1506.14 1508.32 1502.05 1517.72 1496.6L1486.1 1442.49C1481.61 1445.08 1476.7 1447.13 1471.66 1448.49L1487.88 1508.86ZM1394.11 1496.6L1425.73 1442.49C1421.23 1439.9 1417.01 1436.63 1413.19 1432.95L1412.64 1432.41L1392.75 1453.26L1368.21 1476.84L1368.62 1477.25C1376.26 1484.74 1384.84 1491.28 1394.11 1496.6ZM1543.21 1477.25C1550.84 1469.61 1557.52 1461.16 1562.83 1451.9L1508.18 1420.55C1505.59 1425.05 1502.32 1429.14 1498.51 1432.95L1543.21 1477.25ZM1348.86 1451.76L1403.51 1420.55C1400.92 1416.05 1398.88 1411.28 1397.52 1406.24L1336.6 1422.32C1339.32 1432.54 1343.55 1442.49 1348.86 1451.76ZM1575.24 1422.46C1577.96 1412.1 1579.46 1401.47 1579.46 1390.84H1516.36C1516.36 1396.02 1515.68 1401.34 1514.32 1406.38L1575.24 1422.46ZM1395.61 1390.71C1395.61 1385.53 1396.29 1380.21 1397.65 1375.17L1336.6 1359.09C1333.87 1369.45 1332.37 1380.08 1332.37 1390.71H1395.61ZM1514.18 1375.31L1575.24 1359.22C1572.51 1348.87 1568.29 1338.92 1562.97 1329.65L1508.32 1360.86C1510.77 1365.49 1512.82 1370.26 1514.18 1375.31ZM1403.65 1360.86C1406.24 1356.5 1409.37 1352.27 1413.19 1348.59L1413.33 1348.46L1390.7 1326.11L1369.03 1303.89L1368.62 1304.3C1360.99 1311.8 1354.45 1320.38 1349 1329.52L1403.65 1360.86ZM1498.51 1348.59L1520.86 1326.38L1543.75 1304.85L1543.21 1304.3C1535.58 1296.67 1526.99 1290.27 1517.72 1284.81L1486.1 1338.92C1490.6 1341.51 1494.69 1344.64 1498.51 1348.32V1348.59ZM1425.73 1338.92C1430.23 1336.33 1435.13 1334.28 1440.17 1332.92L1424.09 1272.55C1413.6 1275.27 1403.65 1279.36 1394.25 1284.81L1425.73 1338.92ZM1471.52 1333.06L1487.88 1272.69C1477.52 1269.96 1466.75 1268.46 1455.98 1268.46V1331.01C1461.16 1331.01 1466.48 1331.7 1471.52 1333.06Z" fill="white"/>
</svg>
